<?xml version="1.0" encoding="UTF-8" standalone="no"?>
<!-- Created with Inkscape (http://www.inkscape.org/) -->

<svg
   xmlns:dc="http://purl.org/dc/elements/1.1/"
   xmlns:cc="http://creativecommons.org/ns#"
   xmlns:rdf="http://www.w3.org/1999/02/22-rdf-syntax-ns#"
   xmlns:svg="http://www.w3.org/2000/svg"
   xmlns="http://www.w3.org/2000/svg"
   xmlns:xlink="http://www.w3.org/1999/xlink"
   xmlns:sodipodi="http://sodipodi.sourceforge.net/DTD/sodipodi-0.dtd"
   xmlns:inkscape="http://www.inkscape.org/namespaces/inkscape"
   id="svg2"
   version="1.1"
   inkscape:version="0.91 r13725"
   width="2481"
   height="1906"
   sodipodi:docname="Pepper-and-Carrot_by-David-Revoy_E05P04.svg">
  <metadata
     id="metadata8">
    <rdf:RDF>
      <cc:Work
         rdf:about="">
        <dc:format>image/svg+xml</dc:format>
        <dc:type
           rdf:resource="http://purl.org/dc/dcmitype/StillImage" />
        <dc:title />
      </cc:Work>
    </rdf:RDF>
  </metadata>
  <defs
     id="defs6">
    <filter
       id="filter3980"
       style="color-interpolation-filters:sRGB;"
       inkscape:label="Drop Shadow">
      <feFlood
         id="feFlood3982"
         flood-opacity="0.228"
         flood-color="rgb(255,255,255)"
         result="flood" />
      <feComposite
         id="feComposite3984"
         in2="SourceGraphic"
         in="flood"
         operator="in"
         result="composite1" />
      <feGaussianBlur
         id="feGaussianBlur3986"
         in="composite"
         stdDeviation="0.2"
         result="blur" />
      <feOffset
         id="feOffset3988"
         dx="1.2"
         dy="-3.3"
         result="offset" />
      <feComposite
         id="feComposite3990"
         in2="offset"
         in="SourceGraphic"
         operator="over"
         result="composite2" />
    </filter>
  </defs>
  <sodipodi:namedview
     pagecolor="#ffffff"
     bordercolor="#666666"
     borderopacity="1"
     objecttolerance="10"
     gridtolerance="10"
     guidetolerance="10"
     inkscape:pageopacity="0"
     inkscape:pageshadow="2"
     inkscape:window-width="1366"
     inkscape:window-height="705"
     id="namedview4"
     showgrid="false"
     inkscape:zoom="0.304175"
     inkscape:cx="1436.5503"
     inkscape:cy="919.4969"
     inkscape:window-x="-8"
     inkscape:window-y="-8"
     inkscape:window-maximized="1"
     inkscape:current-layer="svg2" />
  <image
     sodipodi:absref="D:\T\oth\david\trns\ep5\peppercarrot_ep05_translation-master\peppercarrot_ep05_translation-master_si\si\..\gfx_Pepper-and-Carrot_by-David-Revoy_E05P04.png"
     xlink:href="../gfx_Pepper-and-Carrot_by-David-Revoy_E05P04.png"
     y="0"
     x="0"
     id="image10"
     height="1906"
     width="2481" />
  <path
     style="font-style:normal;font-variant:normal;font-weight:normal;font-stretch:normal;font-size:12px;line-height:125%;font-family:Arial;-inkscape-font-specification:Arial;letter-spacing:0px;word-spacing:0px;fill:#483c2b;fill-opacity:1;stroke:#413727;stroke-width:0.97865105;stroke-miterlimit:4;stroke-dasharray:none;stroke-opacity:1;filter:url(#filter3980)"
     d="M 1471.9004 1447.4219 C 1469.038 1448.8671 1468.0281 1452.265 1467.8324 1455.2455 C 1467.1429 1460.4671 1466.2843 1465.6639 1465.459 1470.8652 C 1464.5906 1471.821 1466.6872 1473.0717 1467.0468 1471.7741 C 1468.5945 1468.4958 1468.632 1464.779 1469.705 1461.3533 C 1470.7187 1456.7948 1471.7324 1452.2363 1472.7461 1447.6777 C 1472.5126 1447.4843 1472.2029 1447.3828 1471.9004 1447.4219 z M 1458.1348 1452.6973 C 1453.6602 1452.9813 1449.4197 1455.7071 1447.3379 1459.6836 C 1447.192 1460.8274 1447.0388 1461.9783 1446.6719 1463.0762 C 1447.0739 1464.0694 1448.7108 1464.0726 1449.1406 1463.1016 C 1451.6422 1461.261 1455.0672 1460.6382 1458.0059 1461.7266 C 1460.5833 1464.6148 1460.2545 1469.0287 1458.5688 1472.2775 C 1456.9088 1476.3425 1453.5196 1479.6885 1449.3887 1481.2051 C 1445.9816 1481.3753 1443.4727 1477.226 1444.9121 1474.2188 C 1445.43 1472.1835 1446.5373 1470.3464 1447.8828 1468.752 C 1448.9332 1469.0207 1449.1485 1470.6617 1448.2344 1471.2207 C 1447.2964 1472.9072 1447.7229 1475.2801 1449.3184 1476.418 C 1453.1945 1476.743 1456.4861 1473.3208 1457.0786 1469.6711 C 1457.3913 1468.3644 1457.3325 1467.0035 1457.1406 1465.6836 C 1455.1522 1463.8263 1451.528 1465.4048 1451.1992 1468.0078 C 1450.7601 1469.2292 1450.7937 1470.6003 1451.2539 1471.8105 C 1452.5659 1472.5237 1454.3837 1471.8435 1454.9551 1470.4766 C 1454.7702 1472.5411 1452.3719 1473.9985 1450.4434 1473.2852 C 1449.1255 1471.9192 1450.1652 1469.9844 1450.6113 1468.4746 C 1450.9131 1467.4434 1450.0107 1466.0405 1448.8461 1466.5261 C 1446.7293 1466.9884 1445.8095 1469.2088 1444.7275 1470.8415 C 1442.8097 1474.2899 1442.1622 1478.7265 1444.0312 1482.334 C 1446.1033 1485.0903 1450.5078 1485.0515 1452.9321 1482.7898 C 1457.8909 1479.2474 1460.6969 1473.3179 1461.5137 1467.3926 C 1461.7817 1464.8438 1461.7164 1461.7476 1459.5488 1459.9941 C 1457.3316 1458.2508 1454.1015 1458.3102 1451.7182 1459.6832 C 1450.9764 1459.9695 1450.0128 1460.8077 1449.2988 1460.0195 C 1448.7872 1458.7909 1450.1892 1457.9538 1451.1483 1457.5793 C 1453.8536 1456.0579 1457.1599 1455.2553 1460.1973 1456.1934 C 1460.9384 1456.7468 1460.4578 1458.366 1461.668 1458.373 C 1463.6818 1456.9728 1462.6363 1453.5601 1460.4164 1452.9962 C 1459.6948 1452.7106 1458.9028 1452.6583 1458.1348 1452.6973 z M 1454.1797 1467.207 C 1454.9835 1468.1803 1454.1279 1469.8987 1452.8652 1469.8398 C 1451.984 1468.9018 1452.7545 1467.0995 1454.041 1467.0879 L 1454.1797 1467.207 L 1454.1797 1467.207 z M 1436.6016 1468.2012 C 1433.3737 1468.824 1431.0583 1471.3598 1428.8242 1473.5684 C 1428.628 1471.9035 1426.0291 1471.4128 1425.2012 1472.8496 C 1423.0495 1474.6491 1421.9267 1477.3786 1421.4688 1480.0879 C 1421.9931 1481.1525 1423.8382 1480.5801 1423.7871 1479.4375 C 1424.4495 1477.7307 1424.9863 1475.9366 1426.0801 1474.4414 C 1427.2006 1475.358 1426.4879 1477.0187 1425.627 1477.8477 C 1423.3948 1481.4525 1421.2082 1485.0866 1419.1621 1488.8008 C 1420.4546 1489.476 1422.112 1487.9608 1423.2166 1489.2404 C 1425.5767 1491.0851 1429.0823 1489.987 1430.8707 1487.8526 C 1434.1397 1484.969 1435.8744 1480.2471 1434.7266 1475.9727 C 1434.2052 1474.9568 1433.0676 1474.1997 1431.9004 1474.3828 C 1430.9654 1473.6907 1431.9106 1472.3539 1432.8008 1472.1582 C 1435.2296 1470.7316 1439.0637 1472.249 1439.234 1475.2374 C 1439.8528 1478.9587 1438.336 1482.8299 1435.7031 1485.4609 C 1434.2961 1486.068 1432.7812 1486.8084 1432.2129 1488.3457 C 1431.4422 1489.9999 1430.9326 1492.0791 1431.7715 1493.791 C 1432.875 1495.4587 1435.2887 1495.3135 1436.7697 1494.2597 C 1438.8442 1492.8896 1439.8231 1490.3322 1439.9922 1487.9375 C 1439.9025 1486.9188 1438.2588 1486.8524 1438.1445 1487.8984 C 1438.0419 1488.9716 1437.9989 1490.1791 1437.0247 1490.8705 C 1436.0605 1491.7847 1434.0632 1492.045 1433.4043 1490.6582 C 1432.9867 1489.2965 1434.3285 1488.3022 1435.3319 1487.6797 C 1439.9511 1484.104 1441.8948 1477.8373 1441.1777 1472.1699 C 1440.7262 1470.0751 1438.9394 1467.9276 1436.6016 1468.2012 z M 1466.2891 1474.4727 C 1464.118 1475.6048 1462.7835 1478.0928 1462.9473 1480.5234 C 1464.0541 1481.729 1466.2937 1480.8159 1466.4785 1479.2617 C 1467.2182 1477.8695 1467.5462 1476.2662 1467.4141 1474.6953 C 1467.0631 1474.5321 1466.6768 1474.4457 1466.2891 1474.4727 z M 1409.9355 1475.0781 C 1407.0086 1476.0911 1404.9019 1478.8888 1404.4277 1481.9102 C 1405.0123 1482.7366 1406.2946 1482.6967 1407.0156 1482.0742 C 1409.5596 1481.869 1411.2962 1485.2858 1409.7793 1487.2812 C 1407.9005 1491.6857 1403.0064 1494.4214 1398.3025 1494.2084 C 1396.2102 1493.7521 1395.1375 1491.0935 1396.1782 1489.2601 C 1396.9904 1486.34 1399.6083 1484.1463 1402.5059 1483.4492 C 1404.6871 1482.4086 1404.7958 1478.7581 1402.5801 1477.6953 C 1399.8768 1477.3729 1397.231 1479.4378 1396.6504 1482.0527 C 1396.8987 1483.2142 1398.8259 1483.1914 1399.1309 1482.0781 C 1399.775 1481.1953 1400.5938 1480.2177 1401.7734 1480.1582 C 1402.508 1480.9181 1401.682 1482.3005 1400.6914 1482.2207 C 1396.1675 1484.4005 1393.2592 1489.7208 1394.2578 1494.7031 C 1395.4307 1497.4805 1399.1047 1498.1899 1401.6559 1497.0032 C 1407.84 1495.2709 1412.5515 1488.8049 1411.6582 1482.334 C 1411.3568 1480.7038 1409.5249 1479.4812 1407.9141 1480.0098 C 1406.703 1479.8498 1406.8985 1477.7642 1408.0723 1477.7168 C 1409.0512 1477.2922 1410.2156 1477.7927 1410.7949 1478.6367 C 1412.0288 1479.159 1413.1752 1477.1986 1412.1406 1476.3652 C 1411.7045 1475.5933 1410.8696 1474.9293 1409.9355 1475.0781 z M 1431.5273 1476.541 C 1433.8503 1477.1488 1434.3148 1480.4109 1432.9023 1482.1094 C 1431.2716 1485.3648 1427.3418 1487.2956 1423.7734 1486.502 C 1422.4888 1485.8348 1423.0883 1484.1237 1423.7656 1483.2266 C 1425.6265 1480.6185 1427.4809 1477.4509 1430.8114 1476.6055 C 1431.0448 1476.5423 1431.2862 1476.5119 1431.5273 1476.541 z M 1418.9766 1479.2871 C 1417.3083 1479.8597 1415.5668 1480.3506 1414.123 1481.4043 C 1414.2401 1482.5862 1416.0041 1482.2332 1416.2656 1483.3262 C 1415.1557 1486.4334 1413.1159 1489.2217 1412.7325 1492.5691 C 1412.6388 1493.6429 1412.1717 1494.8861 1412.5957 1495.8789 C 1413.7044 1497.2135 1416.1169 1497.0625 1417.0059 1495.5547 C 1418.1668 1495.7199 1418.0188 1493.4332 1416.8672 1493.8477 C 1415.6913 1494.3876 1414.4172 1492.8177 1415.0859 1491.75 C 1415.7943 1487.567 1417.9707 1483.8606 1419.6641 1480.0293 C 1419.719 1479.6602 1419.4141 1479.1118 1418.9766 1479.2871 z M 1367.457 1480.916 C 1363.1246 1481.8474 1359.4599 1484.8869 1357.2109 1488.6387 C 1357.9532 1489.4573 1359.5341 1488.8837 1359.623 1487.7969 C 1361.5253 1485.1845 1364.6426 1483.4217 1367.9004 1483.3867 C 1370.7994 1485.1785 1371.4989 1489.0434 1370.733 1492.154 C 1370.1365 1497.4893 1367.6745 1502.5997 1363.8457 1506.3672 C 1362.7376 1506.9363 1361.4967 1505.1914 1362.4355 1504.3496 C 1364.0053 1501.7374 1365.9778 1499.0165 1365.8242 1495.8164 C 1365.1035 1493.1877 1361.2604 1492.4996 1359.4688 1494.4297 C 1354.5053 1497.8184 1351.9379 1504.311 1353.2012 1510.1816 C 1354.5382 1511.8467 1357.3886 1511.0513 1358.1953 1509.2422 C 1359.4373 1507.656 1359.902 1505.4324 1359.207 1503.5176 C 1358.0631 1502.6955 1356.2723 1503.1869 1355.6523 1504.4355 C 1354.5781 1504.2229 1354.3842 1502.5564 1355.3008 1502.0234 C 1356.9451 1499.6411 1359.0911 1497.2718 1362.0371 1496.623 C 1363.7067 1496.733 1364.413 1499.2022 1363.127 1500.2305 C 1361.8421 1502.3649 1360.3017 1504.5854 1360.3223 1507.1816 C 1361.5009 1509.3912 1365.0985 1509.0802 1366.1914 1506.9473 C 1371.4439 1501.1293 1374.1474 1492.829 1372.5455 1485.0767 C 1371.8493 1482.8983 1369.9573 1480.68 1367.457 1480.916 z M 1349.4805 1493.7305 C 1346.2603 1494.9201 1343.9734 1498.0909 1343.6133 1501.4727 C 1345.3638 1501.8326 1347.1456 1500.5305 1348.8457 1501.3574 C 1350.7856 1504.1268 1349.4526 1508.0312 1346.9841 1510.0036 C 1346.032 1510.8437 1344.844 1511.3809 1343.6152 1511.6719 C 1342.6299 1511.3244 1342.3841 1509.9998 1342.8418 1509.1484 C 1342.4893 1508.1182 1340.6137 1508.7705 1341 1509.8027 C 1340.6744 1512.0237 1338.8146 1513.9956 1336.5508 1514.2461 C 1334.4558 1513.5771 1333.8796 1510.739 1335 1509.0117 C 1336.0512 1505.9443 1338.7639 1503.6815 1341.7754 1502.6504 C 1343.7517 1501.4392 1343.7424 1498.0275 1341.625 1496.9668 C 1338.7006 1497.1074 1336.0814 1499.4456 1335.5273 1502.3066 C 1333.8001 1503.7249 1334.595 1506.2245 1333.725 1508.058 C 1332.8084 1510.5912 1331.6873 1513.6012 1333.2113 1516.1328 C 1334.1344 1517.674 1336.2838 1518.183 1337.8011 1517.215 C 1338.8722 1516.7632 1339.5423 1515.7497 1340.2229 1514.9084 C 1341.7016 1514.1828 1343.2644 1515.7947 1344.748 1514.957 C 1345.6309 1514.7017 1346.1735 1513.6521 1347.1738 1513.75 C 1348.3539 1515.0578 1347.0432 1516.7102 1347.0332 1518.1719 C 1347.1434 1519.2162 1346.3793 1520.2432 1345.2719 1520.041 C 1342.0513 1520.4019 1338.7593 1521.1539 1336.0903 1523.0795 C 1335.2609 1523.2763 1333.8114 1524.5061 1333.3155 1523.4938 C 1332.6785 1521.8906 1334.3944 1520.0112 1336.0508 1520.3789 C 1337.1394 1520.1952 1336.8919 1518.1081 1335.7168 1518.4961 C 1332.8347 1519.0392 1330.9454 1522.1409 1331.3066 1524.9648 C 1332.3407 1526.4875 1334.4233 1525.8914 1335.8806 1525.4523 C 1339.6456 1524.2276 1343.3708 1522.8841 1347.1406 1521.6738 C 1348.081 1520.7144 1347.9463 1519.2352 1348.4229 1518.0497 C 1349.6629 1512.9868 1350.6718 1507.8602 1351.5801 1502.7332 C 1351.6007 1500.9378 1350.4584 1498.7855 1348.4609 1498.7324 C 1347.7418 1498.9167 1346.3017 1499.0845 1346.2891 1498.0117 C 1346.4639 1496.4876 1348.9739 1495.5516 1349.6919 1497.1789 C 1350.1418 1498.1174 1351.692 1498.1589 1351.875 1497.0176 C 1352.3541 1495.5307 1351.1227 1493.5995 1349.4805 1493.7305 z M 1341.1914 1499.543 C 1341.87 1500.7737 1339.9342 1502.2233 1338.9512 1501.2109 C 1338.7733 1500.0608 1340.0889 1499.3443 1341.0879 1499.3984 L 1341.1914 1499.543 z M 1306.7168 1501.9297 C 1302.6809 1502.4934 1299.3047 1505.1491 1296.7148 1508.1543 C 1296.5083 1509.415 1298.519 1509.3407 1298.7414 1508.2732 C 1300.2228 1506.2049 1302.7081 1505.025 1305.1468 1504.511 C 1306.2028 1504.4368 1307.5271 1503.8987 1308.3887 1504.7051 C 1311.027 1506.9761 1311.3826 1510.8882 1310.4511 1514.0587 C 1309.3462 1519.6775 1304.8817 1524.8224 1299.1089 1525.8151 C 1296.9978 1526.0357 1294.9256 1523.7982 1295.6982 1521.7103 C 1296.2086 1518.1777 1299.438 1515.7232 1302.6973 1514.8125 C 1303.5035 1514.3467 1304.8561 1514.4702 1305.1445 1513.3887 C 1304.8894 1512.0912 1303.3382 1512.3073 1302.4824 1512.7969 C 1297.0713 1514.3434 1292.9605 1520.0463 1293.8438 1525.7148 C 1295.6889 1529.317 1301.1058 1529.784 1303.909 1527.0636 C 1310.2875 1522.4624 1313.6582 1513.9793 1312.0745 1506.269 C 1311.3505 1503.9702 1309.3012 1501.7643 1306.7168 1501.9297 z M 1357.4141 1505.6484 C 1358.614 1506.8436 1357.1353 1509.1558 1355.5488 1508.6855 C 1354.6713 1507.4458 1355.8006 1505.5437 1357.2695 1505.541 L 1357.4141 1505.6484 z M 1286.5586 1513.459 C 1283.3936 1514.1619 1280.7356 1516.1445 1278.2109 1518.0781 C 1277.3369 1516.1816 1274.4039 1516.2303 1273.326 1517.9105 C 1271.7466 1519.2713 1270.8178 1521.2595 1270.4629 1523.2891 C 1270.8475 1524.5058 1272.9717 1524.1806 1272.9883 1522.9102 C 1273.5659 1521.5188 1273.9444 1519.9816 1274.9961 1518.8496 C 1276.0137 1519.1527 1276.103 1520.8152 1275.125 1521.2285 C 1272.6832 1524.3689 1270.3035 1527.5657 1268.209 1530.9512 C 1268.8616 1531.9874 1270.5856 1531.4947 1271.0723 1532.7031 C 1272.2241 1534.2367 1274.9516 1534.0974 1275.875 1532.3906 C 1277.2029 1531.2703 1278.6715 1533.2412 1280.1074 1532.6099 C 1282.4831 1531.9112 1283.9809 1529.6874 1285.1172 1527.6328 C 1286.3004 1525.0037 1286.1746 1521.3726 1283.7109 1519.5117 C 1283.0041 1518.6503 1281.8065 1519.3375 1281.1328 1518.748 C 1280.6031 1517.4811 1282.1871 1517.2018 1283.0628 1517.0134 C 1285.508 1516.3552 1288.5927 1517.3502 1289.4463 1519.9219 C 1290.8932 1523.3784 1289.3058 1527.6351 1286.2871 1529.7031 C 1285.4946 1530.0788 1284.1647 1529.788 1283.8516 1530.8379 C 1283.9183 1532.2335 1285.9219 1532.251 1286.6718 1531.3929 C 1291.1629 1527.8842 1293.384 1521.2856 1290.9902 1515.9531 C 1290.1384 1514.386 1288.3621 1513.3031 1286.5586 1513.459 z M 1263.7852 1516.4609 C 1261.0107 1517.0464 1258.7158 1519.522 1258.4648 1522.3652 C 1260.255 1523.065 1262.5193 1522.3484 1264.0176 1523.7988 C 1266.3208 1527.1955 1263.0606 1532.4532 1258.998 1531.957 C 1257.8558 1531.8211 1257.4472 1530.4925 1257.5996 1529.5098 C 1257.1018 1528.2626 1255.4711 1529.2091 1255.5876 1530.3176 C 1255.2613 1531.6689 1254.1239 1532.7697 1252.6934 1532.7871 C 1250.7199 1532.9232 1248.7329 1531.059 1249.1817 1529.0264 C 1249.2684 1525.1775 1253.072 1522.0755 1256.832 1522.3398 C 1257.9649 1522.021 1257.3513 1519.9822 1256.2246 1520.3828 C 1252.0127 1520.5433 1248.7312 1524.1579 1247.5977 1528.002 C 1246.8505 1530.5958 1247.1421 1533.9649 1249.5234 1535.6191 C 1251.2287 1536.5622 1253.5823 1536.1208 1254.7949 1534.584 C 1256.2516 1533.7032 1257.5499 1535.55 1259.0417 1535.2542 C 1262.6584 1535.0139 1265.3302 1531.7687 1266.2617 1528.4746 C 1266.9153 1526.1339 1266.735 1523.1138 1264.6665 1521.5321 C 1263.7572 1520.8409 1262.55 1520.8414 1261.5234 1520.5781 C 1260.735 1519.838 1261.5498 1518.4326 1262.5727 1518.6561 C 1263.546 1518.4597 1264.7751 1519.0625 1264.8809 1520.1289 C 1265.3529 1521.1879 1267.2967 1520.4783 1266.916 1519.3594 C 1266.9604 1517.7461 1265.402 1516.2663 1263.7852 1516.4609 z M 1239.5 1518.084 C 1231.9708 1519.0677 1226.245 1526.4694 1226.4334 1533.9293 C 1226.4395 1537.1142 1227.7266 1540.6216 1230.7129 1542.1406 C 1234.7925 1544.0063 1239.7906 1542.0493 1242.3136 1538.535 C 1244.0302 1536.4061 1244.9729 1533.6959 1245.0195 1530.9668 C 1244.5239 1529.9818 1242.7071 1530.8252 1243.2207 1531.8418 C 1243.6744 1537.0191 1237.664 1541.2312 1232.8973 1539.4099 C 1229.0785 1537.4091 1227.8388 1532.1902 1229.5742 1528.4004 C 1231.0556 1523.4465 1236.1558 1519.578 1241.4082 1520.2129 C 1243.6057 1520.5313 1244.3972 1524.0246 1242.3535 1525.0879 C 1241.3153 1525.9279 1239.8228 1526.1227 1238.5918 1525.6191 C 1237.9592 1524.6375 1239.5193 1523.4587 1240.3457 1524.209 C 1241.5046 1524.6164 1241.9749 1522.3249 1240.6953 1522.3262 C 1238.8785 1522.0355 1237.0577 1522.4427 1235.2441 1522.5566 C 1234.2148 1523.2003 1234.9984 1524.6125 1235.8363 1524.9606 C 1236.5589 1526.2341 1237.2861 1528.0361 1239.0326 1527.9943 C 1242.9605 1528.5694 1246.6647 1524.0103 1245.0195 1520.3125 C 1244.0583 1518.2652 1241.4892 1517.9873 1239.5 1518.084 z M 1212.7285 1519.8281 C 1209.595 1520.2573 1206.9552 1522.1855 1204.5547 1524.1152 C 1204.0209 1522.1419 1200.893 1521.8655 1199.9453 1523.6426 C 1198.2586 1525.2317 1197.4727 1527.5182 1197.0586 1529.7441 C 1197.3405 1530.8747 1199.3294 1530.7114 1199.3945 1529.5371 C 1200.0908 1527.8661 1200.4108 1525.9551 1201.7129 1524.6094 C 1202.7268 1526.0259 1201.6216 1527.7539 1200.5977 1528.8125 C 1198.4946 1531.911 1196.6145 1535.159 1194.9512 1538.5137 C 1195.7206 1539.3675 1197.3798 1539.0035 1197.7754 1540.2617 C 1198.8647 1541.8722 1201.7535 1541.6156 1202.4492 1539.7656 C 1203.2362 1538.9698 1204.4622 1539.5205 1205.1953 1540.1094 C 1207.6018 1540.5341 1209.4621 1538.4489 1210.5897 1536.5973 C 1212.5991 1533.5583 1213.0152 1529.0454 1210.4426 1526.2035 C 1209.7328 1525.5515 1208.8065 1524.9671 1207.8008 1525.1094 C 1206.7462 1524.4629 1207.8821 1523.0009 1208.8672 1523.3008 C 1211.8402 1522.4846 1215.4764 1524.2536 1216.0977 1527.4079 C 1217.1768 1531.0757 1215.5797 1535.3351 1212.3809 1537.4199 C 1211.4746 1537.0969 1210.1926 1537.5946 1210.0996 1538.6465 C 1211.4245 1540.1296 1214.0164 1539.2955 1214.7441 1537.6035 C 1218.4763 1533.5152 1219.5739 1527.0152 1216.9267 1522.089 C 1215.9009 1520.8464 1214.4397 1519.6705 1212.7285 1519.8281 z M 1281.248 1521.1035 C 1284.4808 1522.1416 1284.8715 1527.3235 1281.8378 1528.8498 C 1281.0674 1529.3081 1279.6527 1530.1043 1279.0084 1529.1595 C 1278.5424 1528.5 1278.4366 1527.6172 1278.6836 1526.8535 C 1278.2877 1525.8352 1276.4121 1526.559 1276.8789 1527.584 C 1276.5983 1529.7067 1273.997 1531.0618 1272.0801 1530.1445 C 1271.0645 1528.7297 1272.2487 1527.0471 1273.2917 1526.0435 C 1275.1502 1523.4963 1277.811 1520.7897 1281.248 1521.1035 z M 1222.7227 1521.3125 C 1221.1558 1521.8425 1219.6613 1522.9477 1219.1211 1524.5664 C 1219.6851 1525.5515 1221.3065 1524.8943 1221.2988 1523.8496 C 1222.1893 1523.0447 1223.7529 1524.2867 1223.1973 1525.3398 C 1222.8783 1529.0176 1222.0151 1532.6426 1220.6719 1536.0801 C 1219.6414 1536.3009 1218.7886 1535.5506 1217.8906 1535.1914 C 1216.2585 1536.2799 1217.8851 1539.1983 1219.6719 1538.5195 C 1222.2073 1538.1717 1223.5053 1535.6009 1224.207 1533.4121 C 1225.564 1529.9068 1226.1945 1525.898 1224.8613 1522.2871 C 1224.4131 1521.5925 1223.5589 1521.1088 1222.7227 1521.3125 z M 1207.2754 1527.3262 C 1210.6646 1528.3553 1211.499 1533.6076 1208.5957 1535.6367 C 1207.8462 1536.7561 1205.7017 1537.1802 1205.0957 1535.709 C 1204.812 1534.8895 1205.476 1533.4062 1204.3672 1533.0918 C 1203.1374 1533.2011 1203.27 1534.7291 1203.0117 1535.6016 C 1202.3545 1537.2264 1199.9914 1538.2957 1198.5723 1536.9727 C 1197.6384 1535.602 1198.7415 1534.008 1199.6767 1532.9801 C 1201.1121 1530.7706 1202.7841 1528.511 1205.2637 1527.4121 C 1205.9334 1527.3666 1206.6032 1527.2969 1207.2754 1527.3262 z "
     id="flowRoot2987"
     inkscape:connector-curvature="0" />
  <path
     style="font-style:normal;font-variant:normal;font-weight:normal;font-stretch:normal;font-size:12px;line-height:125%;font-family:Arial;-inkscape-font-specification:Arial;letter-spacing:0px;word-spacing:0px;fill:#413727;fill-opacity:1;stroke:#483c2b;stroke-width:0.86060631;stroke-miterlimit:4;stroke-dasharray:none;stroke-opacity:1;filter:url(#filter3980)"
     d="M 971.29102 1485.8828 C 969.75386 1486.3482 968.54319 1487.6866 968.18555 1489.2461 C 967.1076 1489.1338 966.38346 1490.4077 966.6543 1491.3594 C 965.42639 1494.9017 962.81093 1498.1935 963.25781 1502.1328 C 963.31303 1504.3988 965.52124 1506.6952 967.87695 1506.0859 C 968.6208 1505.649 969.81217 1504.8036 970.48828 1505.791 C 971.65457 1507.0588 973.57512 1508.1521 975.26336 1507.2064 C 980.4596 1505.3508 982.95892 1498.5624 980.47461 1493.6992 C 980.14961 1492.2828 978.08617 1492.3053 977.81445 1490.8555 C 978.08341 1489.6148 979.8526 1489.7108 980.55273 1490.5059 C 981.48454 1490.9926 980.59147 1492.6376 981.7793 1492.877 C 983.06539 1493.0786 983.36749 1491.3596 982.97286 1490.4454 C 982.33536 1488.1369 978.89951 1486.9346 977.25343 1488.9162 C 976.2954 1489.8117 975.63783 1491 975.30078 1492.2617 C 976.4886 1493.9674 979.17827 1494.2612 979.73633 1496.4609 C 980.68611 1499.9465 977.82887 1503.9192 974.19141 1504.0098 C 972.68207 1503.6108 972.01123 1501.5206 972.98633 1500.3086 C 973.12404 1499.1913 971.01604 1499.1464 971.13477 1500.2832 C 970.81446 1502.8528 966.50398 1503.3247 965.70703 1500.8281 C 964.26625 1496.7956 968.18927 1491.983 972.43945 1492.6758 C 975.19289 1492.6998 976.50295 1488.492 974.25586 1486.9238 C 973.4941 1486.1486 972.37977 1485.699 971.29102 1485.8828 z M 972.76172 1488.5176 C 973.91129 1488.6801 973.5924 1490.749 972.44141 1490.5547 C 971.18643 1490.8787 970.95358 1488.4135 972.26758 1488.5547 C 972.42913 1488.5322 972.59781 1488.4601 972.76172 1488.5176 z M 1011.6094 1491.8711 C 1010.0139 1492.1971 1008.4664 1492.8509 1007.2129 1493.9043 C 1007.2969 1494.9729 1008.9551 1495.3886 1009.5273 1494.4785 C 1013.6562 1492.5738 1019.0278 1496.3 1018.7422 1500.8242 C 1019.1586 1506.2346 1016.6665 1512.0351 1011.8418 1514.7695 C 1008.162 1516.1509 1003.3584 1513.2794 1003.3984 1509.207 C 1003.5907 1505.335 1008.5504 1502.5546 1011.875 1504.6953 C 1012.9406 1505.082 1013.8293 1503.1814 1012.668 1502.7656 C 1009.1832 1500.5917 1004.3376 1502.5953 1002.5933 1506.1044 C 1000.367 1509.951 1001.6805 1515.6651 1005.8351 1517.6136 C 1008.469 1518.9515 1011.8415 1518.3999 1013.9822 1516.3852 C 1017.6485 1513.4675 1019.3995 1508.8027 1020.1367 1504.3066 C 1020.5766 1500.4507 1019.8269 1496.0924 1016.8928 1493.3368 C 1015.4468 1492.1606 1013.4681 1491.4669 1011.6094 1491.8711 z M 988.79492 1491.8477 C 986.19019 1492.7957 984.32389 1495.2868 983.86133 1497.9844 C 984.20194 1499.0957 986.12972 1498.9287 986.26953 1497.7734 C 987.00139 1496.5249 987.70426 1495.2239 988.77344 1494.2246 C 989.56607 1495.1553 989.16479 1496.7836 988.04102 1497.2539 C 985.42146 1499.9485 982.83923 1502.6807 980.36914 1505.5137 C 981.65546 1506.6226 983.54552 1507.2805 984.02693 1509.0793 C 986.22085 1512.4439 991.99351 1512.0189 993.78514 1508.459 C 996.0195 1505.5855 996.38641 1501.4026 994.69141 1498.1816 C 993.41784 1498.3848 993.3203 1495.9204 994.64258 1496.1406 C 998.2645 1496.3174 1000.7351 1500.4549 999.71484 1503.8086 C 999.32178 1506.8414 997.62861 1509.6619 995.18359 1511.4883 C 992.76079 1510.6365 990.19107 1512.8479 990.01562 1515.2598 C 989.27042 1517.4757 990.38432 1520.5659 992.91602 1520.9277 C 995.26819 1521.2084 997.60932 1519.3018 997.85742 1516.9551 C 998.67145 1516.0956 996.88105 1514.6219 996.34375 1515.8086 C 995.98242 1517.0419 994.65753 1518.4262 993.29577 1517.6776 C 991.76917 1517.1194 991.39653 1514.3847 993.16602 1513.8984 C 995.31921 1513.2025 997.78135 1512.37 998.81323 1510.1604 C 1001.8505 1505.9899 1002.7595 1500.0771 1000.3027 1495.418 C 998.63177 1493.1638 995.09763 1492.5114 992.8125 1494.2031 C 991.29349 1494.5486 990.70271 1492.7451 989.68555 1492.0215 C 989.41665 1491.869 989.10059 1491.8146 988.79492 1491.8477 z M 991.66211 1498.9062 C 995.00492 1500.2012 995.18806 1505.7189 991.93866 1507.247 C 989.29259 1508.6765 985.61064 1507.4895 984.30469 1504.7793 C 984.7524 1501.9056 987.44615 1500.1605 989.87608 1499.0189 C 990.44305 1498.8307 991.0851 1498.6656 991.66211 1498.9062 z M 1049.502 1501.6465 C 1046.1508 1501.6029 1043.0377 1504.3052 1042.5469 1507.6094 C 1041.7351 1509.0161 1040.0615 1509.9679 1039.9102 1511.709 C 1040.4814 1512.7828 1042.3544 1512.4823 1042.6016 1511.3066 C 1043.2153 1510.4264 1044.8858 1511.7208 1043.9766 1512.459 C 1041.3001 1513.1778 1038.3 1514.2533 1037.0347 1516.9438 C 1034.9932 1520.1123 1035.6506 1525.1316 1039.1588 1526.9818 C 1043.9799 1529.3694 1050.4285 1526.0608 1051.5084 1520.8361 C 1052.223 1518.4713 1051.9152 1515.5052 1049.8149 1513.9266 C 1049.188 1513.434 1048.3703 1512.1815 1049.4941 1511.7754 C 1050.323 1511.4407 1051.559 1512.0032 1051.4688 1512.998 C 1051.7824 1514.0844 1053.7676 1513.5664 1053.4395 1512.4512 C 1053.3127 1509.7165 1055.6221 1507.1801 1054.5215 1504.4414 C 1053.6223 1502.6062 1051.5355 1501.4439 1049.502 1501.6465 z M 1072.6641 1504.2988 C 1068.6694 1508.5677 1063.8978 1512.1119 1058.6175 1514.6259 C 1054.9876 1516.8592 1052.1349 1520.9627 1052.5566 1525.3672 C 1053.2006 1528.7123 1057.2724 1530.5674 1060.3296 1529.2937 C 1065.9515 1527.6668 1069.2844 1521.0667 1067.7773 1515.5176 C 1067.5719 1514.6256 1066.6623 1514.2014 1066.332 1513.4102 C 1066.0975 1512.1279 1067.5062 1511.6194 1068.2684 1510.9236 C 1070.2941 1509.2873 1072.3289 1507.537 1073.6113 1505.2305 C 1073.7254 1504.7141 1073.1982 1504.1224 1072.6641 1504.2988 z M 1046.9238 1504.8281 C 1049.0713 1504.9943 1051.268 1505.4449 1053.0879 1506.6543 C 1053.2454 1508.226 1051.8269 1509.6968 1050.2695 1509.7051 C 1048.2268 1510.6047 1047.0375 1512.6574 1046.2168 1514.6328 C 1047.7048 1515.6559 1049.9605 1516.2158 1050.3398 1518.2539 C 1050.6296 1522.6967 1045.3803 1526.2702 1041.3281 1524.5176 C 1037.9157 1523.5997 1036.6271 1518.3554 1039.5684 1516.1934 C 1041.2084 1514.656 1043.8578 1515.5152 1045.5078 1514.0527 C 1046.8737 1512.5526 1046.6996 1509.8748 1045.0195 1508.6758 C 1043.8499 1507.2804 1044.9816 1504.5685 1046.9238 1504.8281 z M 1101.498 1508.5391 C 1097.3583 1510.5079 1093.1868 1512.4085 1089.0215 1514.3223 C 1084.9717 1511.9302 1079.2278 1514.5486 1077.9375 1518.959 C 1077.285 1520.6864 1076.1002 1522.2104 1074.5119 1523.1571 C 1073.9379 1523.8344 1072.7525 1524.0774 1072.5254 1524.9863 C 1074.0749 1525.8778 1075.163 1527.4609 1075.7126 1529.1644 C 1077.2823 1531.7258 1081.0872 1531.9512 1083.4375 1530.3633 C 1084.5523 1529.8027 1085.4846 1528.9495 1086.3242 1528.0391 C 1087.9356 1528.1538 1089.2929 1530.016 1090.9707 1529.1719 C 1092.9369 1528.3205 1093.8271 1525.6134 1092.6602 1523.793 C 1091.2511 1523.9084 1090.0618 1521.8633 1091.2812 1520.8848 C 1091.7843 1520.1119 1093.2989 1519.1722 1093.8179 1520.396 C 1094.0274 1521.2079 1095.1079 1522.2571 1095.7779 1521.272 C 1096.3234 1520.6552 1096.6791 1519.5359 1097.6816 1519.5996 C 1099.0082 1520.4835 1098.3563 1522.2905 1097.7623 1523.422 C 1096.8993 1525.8759 1095.7817 1528.2368 1094.4707 1530.4824 C 1093.41 1530.6931 1092.8442 1529.3151 1091.791 1529.4824 C 1090.5624 1530.777 1091.6426 1533.2194 1093.3906 1533.2969 C 1095.1828 1535.1795 1093.2391 1538.9315 1090.6365 1538.3425 C 1088.6425 1537.9622 1086.7768 1536.9786 1084.7053 1537.001 C 1082.2764 1536.8122 1079.8396 1537.045 1077.4082 1536.9355 C 1076.1362 1536.4712 1076.5666 1534.518 1077.7578 1534.2383 C 1078.5903 1533.9983 1079.873 1534.7495 1080.293 1533.6523 C 1080.682 1532.5135 1079.1968 1531.906 1078.3047 1532.3086 C 1075.875 1532.7587 1074.1524 1535.7343 1075.3223 1538.002 C 1079.3221 1540.161 1084.0238 1539.5898 1088.3434 1540.4972 C 1089.7068 1540.6629 1091.0702 1540.8285 1092.4336 1540.9941 C 1095.2609 1538.7375 1095.4831 1534.8615 1097.0386 1531.8264 C 1098.7305 1527.6222 1100.4927 1523.3621 1101.0137 1518.8223 C 1100.681 1517.0615 1098.153 1516.2995 1096.9004 1517.5781 C 1095.7247 1518.0044 1094.4618 1517.6758 1093.3145 1517.3203 C 1092.4781 1517.749 1091.5164 1518.2577 1090.5566 1517.9199 C 1090.0345 1516.1538 1091.7114 1514.4789 1093.416 1514.4248 C 1096.5614 1513.1682 1099.8909 1512.01 1102.3789 1509.6113 C 1102.5981 1509.0719 1102.0599 1508.4466 1101.498 1508.5391 z M 1142.6719 1513.4785 C 1138.7404 1514.127 1135.174 1516.7238 1133.4062 1520.3027 C 1131.4806 1520.2969 1129.2407 1519.3743 1127.582 1520.7852 C 1125.897 1521.9343 1124.7199 1523.8148 1124.498 1525.8496 C 1125.1341 1527.0025 1127.2169 1526.6528 1127.3828 1525.3262 C 1127.9281 1524.2232 1128.5151 1523.134 1129.2676 1522.1562 C 1130.3203 1521.9915 1130.9693 1523.7081 1129.9941 1524.2207 C 1128.2194 1526.7129 1126.4447 1529.2051 1124.6699 1531.6973 C 1123.7057 1531.7759 1122.6368 1531.9415 1121.957 1532.7031 C 1124.8455 1538.1465 1133.411 1539.2543 1137.4844 1534.5697 C 1139.8685 1532.1668 1140.5883 1527.8156 1138.1847 1525.186 C 1137.2619 1524.3302 1136.0799 1523.7689 1134.8398 1523.5645 C 1136.4174 1521.4025 1139.7136 1521.7979 1141.608 1523.3071 C 1145.0673 1525.733 1145.5277 1531.4762 1142.2772 1534.2719 C 1141.0579 1535.6433 1139.2373 1536.4931 1137.3926 1536.4414 C 1136.3692 1536.8883 1137.1847 1538.6168 1138.1816 1538.3164 C 1140.5789 1538.8615 1142.5602 1536.9067 1143.8933 1535.1739 C 1146.2155 1532.2789 1147.058 1528.3521 1146.4355 1524.7227 C 1147.3692 1522.4813 1149.4562 1520.4114 1148.9413 1517.8041 C 1148.1646 1515.1618 1145.4011 1513.3117 1142.6719 1513.4785 z M 1158.5762 1514.2227 C 1155.9676 1514.5371 1153.4328 1515.8273 1151.8223 1517.9316 C 1152.4521 1518.7692 1153.9616 1518.7395 1154.4844 1517.8008 C 1158.5689 1514.5825 1165.4825 1517.1172 1166.6602 1522.1426 C 1168.9849 1528.4601 1164.276 1536.3154 1157.5243 1537.0044 C 1154.4935 1537.2963 1151.3898 1535.0463 1150.8691 1532.0176 C 1151.6127 1528.5789 1155.5402 1526.4305 1158.877 1527.3047 C 1161.2141 1527.4389 1162.4409 1523.9446 1160.6211 1522.5273 C 1158.7619 1520.2797 1154.592 1520.6797 1153.373 1523.3945 C 1153.2903 1524.8022 1155.5324 1525.4906 1156.2266 1524.248 C 1156.9288 1523.5117 1158.1775 1523.2807 1159.0254 1523.9023 C 1158.8773 1525.1265 1157.3506 1525.4157 1156.3555 1525.1348 C 1151.3382 1525.1311 1147.29 1530.9686 1149.3086 1535.6309 C 1151.8726 1540.3278 1158.7633 1541.4973 1162.9666 1538.3514 C 1166.1939 1536.2601 1167.7055 1532.5416 1169.0285 1529.1012 C 1169.5562 1528.1625 1170.3706 1527.3726 1171.3594 1526.9336 C 1173.0989 1527.7235 1172.9191 1529.9652 1172.5267 1531.512 C 1172.106 1534.0428 1171.3585 1536.5111 1170.4062 1538.8906 C 1169.3522 1539.0923 1168.404 1538.4506 1167.5625 1537.9102 C 1166.2102 1538.0865 1166.1928 1540.3384 1167.4727 1540.6484 C 1169.547 1542.0947 1172.8549 1540.7436 1173.3008 1538.248 C 1175.1361 1534.5476 1175.4889 1530.1865 1174.4727 1526.1992 C 1173.6731 1525.2511 1172.4724 1524.6373 1171.2246 1524.623 C 1170.5054 1525.6874 1168.5756 1524.7287 1168.9023 1523.5195 C 1168.2588 1518.549 1163.7727 1513.9633 1158.5762 1514.2227 z M 1063.0664 1514.5332 C 1066.801 1515.5377 1067.8606 1521.1877 1064.8477 1523.5547 C 1062.7652 1525.9988 1059.2357 1527.0675 1056.1426 1526.2207 C 1053.4787 1524.4339 1053.7109 1519.9689 1056.3613 1518.2793 C 1058.1528 1516.5453 1060.3722 1515.3256 1062.6719 1514.4023 C 1062.8034 1514.446 1062.9349 1514.4896 1063.0664 1514.5332 z M 1085.7988 1515.1465 C 1084.5007 1517.3743 1081.8169 1518.0221 1079.918 1519.5742 C 1078.987 1518.7516 1080.0302 1517.495 1080.8699 1517.085 C 1082.282 1516.0118 1083.942 1515.2211 1085.7129 1514.9961 L 1085.7988 1515.1465 z M 1144.5176 1516.3555 C 1146.3948 1517.0709 1147.3942 1519.6785 1146.1504 1521.3535 C 1143.2578 1521.2947 1140.6902 1518.7626 1137.7324 1519.7734 C 1136.5992 1519.9238 1136.5129 1517.9188 1137.6152 1517.8691 C 1139.4911 1516.4172 1142.0214 1516.1407 1144.3077 1516.2915 L 1144.4826 1516.3448 L 1144.5176 1516.3555 z M 1185.084 1516.6758 C 1182.9025 1517.3057 1180.5831 1518.2782 1179.373 1520.3203 C 1179.6821 1521.39 1181.4869 1521.1819 1181.6367 1520.1152 C 1185.2131 1517.1643 1191.4502 1519.5887 1192.2344 1524.1191 C 1193.6932 1529.2428 1192.9835 1535.0463 1189.9395 1539.4707 C 1188.2909 1540.7714 1185.5629 1538.7159 1186.3379 1536.7676 C 1186.5923 1535.5904 1184.2695 1535.4424 1184.4863 1536.6855 C 1184.3674 1539.2472 1180.2958 1540.0523 1179.1562 1537.7832 C 1176.899 1534.6159 1179.6874 1529.5185 1183.5753 1529.7166 C 1185.1095 1529.6669 1187.212 1530.0372 1188.0761 1528.4091 C 1189.1539 1526.0236 1186.6649 1523.2466 1184.1832 1523.6187 C 1182.8044 1523.7487 1181.4664 1524.7607 1181.2168 1526.166 C 1180.5222 1527.2992 1178.3945 1526.8249 1178.2383 1528.3965 C 1177.9247 1531.6775 1176.1405 1534.8288 1176.8582 1538.1738 C 1177.2278 1540.4213 1179.0816 1542.8287 1181.582 1542.5219 C 1182.7105 1542.4943 1183.6734 1541.4449 1184.8281 1541.9766 C 1186.1008 1542.3909 1187.0969 1543.7023 1188.5625 1543.3555 C 1189.2606 1543.0432 1190.1965 1542.8843 1190.6001 1543.7291 C 1191.2123 1544.6478 1190.4225 1545.5824 1190.3258 1546.5127 C 1189.9052 1547.4174 1190.2775 1549.0391 1189.0083 1549.2304 C 1187.3367 1549.5097 1185.9136 1548.2143 1184.2581 1548.1798 C 1181.8004 1547.8324 1179.3171 1548.1392 1176.8477 1548.084 C 1175.2365 1547.4653 1176.1925 1544.5224 1177.8691 1545.0742 C 1178.7531 1545.4779 1180.1877 1544.5844 1179.6406 1543.5645 C 1178.2104 1542.1181 1175.8782 1543.2602 1174.9238 1544.709 C 1174.0324 1545.9811 1173.8318 1547.7536 1174.5586 1549.1484 C 1179.1262 1551.3146 1184.3167 1550.8992 1189.1602 1551.9336 C 1190.8624 1551.4789 1190.8797 1549.427 1191.3329 1548.0447 C 1193.0235 1540.8978 1194.5854 1533.5885 1194.2316 1526.2032 C 1193.8238 1522.4802 1191.9178 1518.4275 1188.1641 1517.1113 C 1187.1767 1516.7731 1186.1259 1516.6325 1185.084 1516.6758 z M 1088.0898 1516.9102 C 1089.5377 1519.9363 1088.0621 1523.5215 1085.8635 1525.7685 C 1084.0406 1527.5706 1081.2235 1528.9068 1078.6758 1527.9941 C 1077.7355 1527.5177 1077.0153 1526.7018 1076.4766 1525.8105 C 1077.8474 1526.0843 1078.8704 1527.7676 1080.3945 1527.2227 C 1083.3231 1526.9716 1085.6916 1523.875 1085.0098 1520.9824 C 1083.9537 1519.3037 1081.109 1519.9771 1080.5781 1521.7734 C 1079.862 1522.4529 1080.3856 1524.0858 1079.2705 1524.3424 C 1078.2796 1524.216 1078.016 1522.5795 1078.9746 1522.2051 C 1081.4437 1519.8044 1084.8736 1518.8687 1087.6719 1516.9531 C 1087.8023 1516.9107 1087.9529 1516.8425 1088.0898 1516.9102 z M 1071.252 1518.3789 C 1070.2917 1518.2737 1069.4078 1519.7378 1070.5234 1520.1934 C 1071.4378 1520.8549 1071.3199 1522.1633 1070.4615 1522.7953 C 1068.4073 1525.5331 1066.3142 1528.5761 1066.207 1532.123 C 1066.4643 1533.5447 1068.2635 1534.3105 1069.5137 1533.6621 C 1070.673 1533.9441 1070.9865 1531.7441 1069.7715 1531.7266 C 1068.4254 1531.4813 1068.0152 1529.5368 1068.9629 1528.6387 C 1070.355 1525.475 1072.3687 1522.6453 1074.3828 1519.8555 C 1074.4892 1518.572 1072.8771 1518.2888 1071.9062 1518.3926 C 1071.688 1518.3846 1071.4703 1518.3516 1071.252 1518.3789 z M 1083.2109 1521.9199 C 1084.0774 1522.8747 1083.0076 1524.6294 1081.7656 1524.332 C 1081.034 1523.3792 1081.8704 1521.7857 1083.0625 1521.8184 L 1083.2109 1521.9199 z M 1091.2012 1525.3418 C 1092.0176 1526.2443 1091.0197 1527.8938 1089.8457 1527.6387 C 1089.058 1526.7503 1089.8953 1525.1275 1091.0684 1525.2207 L 1091.2012 1525.3418 z M 1134.4844 1525.6641 C 1137.3818 1526.0447 1138.5036 1530.6304 1135.9062 1532.1367 C 1133.0341 1534.5158 1128.9196 1535.0483 1125.4219 1533.9082 C 1127.3482 1531.0204 1129.1217 1527.8363 1132.0996 1525.8887 C 1132.8905 1525.7738 1133.6814 1525.6267 1134.4844 1525.6641 z M 1185.7344 1526.0215 C 1186.7823 1526.3111 1186.2601 1528.2385 1185.1973 1527.8867 C 1184.0481 1528.1302 1183.8975 1525.866 1185.1055 1526.0508 C 1185.3138 1526.0317 1185.525 1525.9754 1185.7344 1526.0215 z "
     id="flowRoot2995"
     inkscape:connector-curvature="0" />
</svg>
