<?xml version="1.0" encoding="UTF-8" standalone="no"?>
<!-- Created with Inkscape (http://www.inkscape.org/) -->

<svg
   xmlns:dc="http://purl.org/dc/elements/1.1/"
   xmlns:cc="http://creativecommons.org/ns#"
   xmlns:rdf="http://www.w3.org/1999/02/22-rdf-syntax-ns#"
   xmlns:svg="http://www.w3.org/2000/svg"
   xmlns="http://www.w3.org/2000/svg"
   xmlns:xlink="http://www.w3.org/1999/xlink"
   xmlns:sodipodi="http://sodipodi.sourceforge.net/DTD/sodipodi-0.dtd"
   xmlns:inkscape="http://www.inkscape.org/namespaces/inkscape"
   id="svg2"
   version="1.1"
   inkscape:version="0.91 r"
   width="2481"
   height="3503"
   sodipodi:docname="Pepper-and-Carrot_by-David-Revoy_E05P04.svg">
  <metadata
     id="metadata8">
    <rdf:RDF>
      <cc:Work
         rdf:about="">
        <dc:format>image/svg+xml</dc:format>
        <dc:type
           rdf:resource="http://purl.org/dc/dcmitype/StillImage" />
        <dc:title />
      </cc:Work>
    </rdf:RDF>
  </metadata>
  <defs
     id="defs6">
    <filter
       id="filter3980"
       style="color-interpolation-filters:sRGB;"
       inkscape:label="Drop Shadow">
      <feFlood
         id="feFlood3982"
         flood-opacity="0.228"
         flood-color="rgb(255,255,255)"
         result="flood" />
      <feComposite
         id="feComposite3984"
         in2="SourceGraphic"
         in="flood"
         operator="in"
         result="composite1" />
      <feGaussianBlur
         id="feGaussianBlur3986"
         in="composite"
         stdDeviation="0.2"
         result="blur" />
      <feOffset
         id="feOffset3988"
         dx="1.2"
         dy="-3.3"
         result="offset" />
      <feComposite
         id="feComposite3990"
         in2="offset"
         in="SourceGraphic"
         operator="over"
         result="composite2" />
    </filter>
  </defs>
  <sodipodi:namedview
     pagecolor="#ffffff"
     bordercolor="#666666"
     borderopacity="1"
     objecttolerance="10"
     gridtolerance="10"
     guidetolerance="10"
     inkscape:pageopacity="0"
     inkscape:pageshadow="2"
     inkscape:window-width="1366"
     inkscape:window-height="705"
     id="namedview4"
     showgrid="false"
     inkscape:zoom="0.25606623"
     inkscape:cx="1240.5"
     inkscape:cy="1751.5"
     inkscape:window-x="-8"
     inkscape:window-y="-8"
     inkscape:window-maximized="1"
     inkscape:current-layer="svg2" />
  <image
     sodipodi:absref="/home/deevad/peppercarrot/webcomics/ep05_Special-holiday-episode/lang/si/../gfx_Pepper-and-Carrot_by-David-Revoy_E05P04.png"
     xlink:href="../gfx_Pepper-and-Carrot_by-David-Revoy_E05P04.png"
     width="2481"
     height="3503"
     id="image10"
     x="0"
     y="0" />
  <path
     style="font-style:normal;font-variant:normal;font-weight:normal;font-stretch:normal;font-size:12px;line-height:125%;font-family:Arial;-inkscape-font-specification:Arial;letter-spacing:0px;word-spacing:0px;fill:#483c2b;fill-opacity:1;stroke:#413727;stroke-width:0.97865105;stroke-miterlimit:4;stroke-dasharray:none;stroke-opacity:1;filter:url(#filter3980)"
     d="m 1409.4166,3017.3283 c -2.8624,1.4452 -3.8723,4.8431 -4.068,7.8236 -0.6895,5.2216 -1.5481,10.4184 -2.3734,15.6197 -0.8684,0.9558 1.2282,2.2065 1.5878,0.9089 1.5477,-3.2783 1.5852,-6.9951 2.6582,-10.4208 1.0137,-4.5585 2.0274,-9.117 3.0411,-13.6756 -0.2335,-0.1934 -0.5432,-0.2949 -0.8457,-0.2558 z m -13.7656,5.2754 c -4.4746,0.284 -8.7151,3.0098 -10.7969,6.9863 -0.1459,1.1438 -0.2991,2.2947 -0.666,3.3926 0.402,0.9932 2.0389,0.9964 2.4687,0.025 2.5016,-1.8406 5.9266,-2.4634 8.8653,-1.375 2.5774,2.8882 2.2486,7.3021 0.5629,10.5509 -1.66,4.065 -5.0492,7.411 -9.1801,8.9276 -3.4071,0.1702 -5.916,-3.9791 -4.4766,-6.9863 0.5179,-2.0353 1.6252,-3.8724 2.9707,-5.4668 1.0504,0.2687 1.2657,1.9097 0.3516,2.4687 -0.938,1.6865 -0.5115,4.0594 1.084,5.1973 3.8761,0.325 7.1677,-3.0972 7.7602,-6.7469 0.3127,-1.3067 0.2539,-2.6676 0.062,-3.9875 -1.9884,-1.8573 -5.6126,-0.2788 -5.9414,2.3242 -0.4391,1.2214 -0.4055,2.5925 0.055,3.8027 1.312,0.7132 3.1298,0.033 3.7012,-1.3339 -0.1849,2.0645 -2.5832,3.5219 -4.5117,2.8086 -1.3179,-1.366 -0.2782,-3.3008 0.1679,-4.8106 0.3018,-1.0312 -0.6006,-2.4341 -1.7652,-1.9485 -2.1168,0.4623 -3.0366,2.6827 -4.1186,4.3154 -1.9178,3.4484 -2.5653,7.885 -0.6963,11.4925 2.0721,2.7563 6.4766,2.7175 8.9009,0.4558 4.9588,-3.5424 7.7648,-9.4719 8.5816,-15.3972 0.268,-2.5488 0.2027,-5.645 -1.9649,-7.3985 -2.2172,-1.7433 -5.4473,-1.6839 -7.8306,-0.3109 -0.7418,0.2863 -1.7054,1.1245 -2.4194,0.3363 -0.5116,-1.2286 0.8904,-2.0657 1.8495,-2.4402 2.7053,-1.5214 6.0116,-2.324 9.049,-1.3859 0.7411,0.5534 0.2605,2.1726 1.4707,2.1796 2.0138,-1.4002 0.9683,-4.8129 -1.2516,-5.3768 -0.7216,-0.2856 -1.5136,-0.3379 -2.2816,-0.2989 z m -3.9551,14.5097 c 0.8038,0.9733 -0.052,2.6917 -1.3145,2.6328 -0.8812,-0.938 -0.1107,-2.7403 1.1758,-2.7519 l 0.1387,0.1191 0,0 z m -17.5781,0.9942 c -3.2279,0.6228 -5.5433,3.1586 -7.7774,5.3672 -0.1962,-1.6649 -2.7951,-2.1556 -3.623,-0.7188 -2.1517,1.7995 -3.2745,4.529 -3.7324,7.2383 0.5243,1.0646 2.3694,0.4922 2.3183,-0.6504 0.6624,-1.7068 1.1992,-3.5009 2.293,-4.9961 1.1205,0.9166 0.4078,2.5773 -0.4531,3.4063 -2.2322,3.6048 -4.4188,7.2389 -6.4649,10.9531 1.2925,0.6752 2.9499,-0.84 4.0545,0.4396 2.3601,1.8447 5.8657,0.7466 7.6541,-1.3878 3.269,-2.8836 5.0037,-7.6055 3.8559,-11.8799 -0.5214,-1.0159 -1.659,-1.773 -2.8262,-1.5899 -0.935,-0.6921 0.01,-2.0289 0.9004,-2.2246 2.4288,-1.4266 6.2629,0.091 6.4332,3.0792 0.6188,3.7213 -0.898,7.5925 -3.5309,10.2235 -1.407,0.6071 -2.9219,1.3475 -3.4902,2.8848 -0.7707,1.6542 -1.2803,3.7334 -0.4414,5.4453 1.1035,1.6677 3.5172,1.5225 4.9982,0.4687 2.0745,-1.3701 3.0534,-3.9275 3.2225,-6.3222 -0.09,-1.0187 -1.7334,-1.0851 -1.8477,-0.039 -0.1026,1.0732 -0.1456,2.2807 -1.1198,2.9721 -0.9642,0.9142 -2.9615,1.1745 -3.6204,-0.2123 -0.4176,-1.3617 0.9242,-2.356 1.9276,-2.9785 4.6192,-3.5757 6.5629,-9.8424 5.8458,-15.5098 -0.4515,-2.0948 -2.2383,-4.2423 -4.5761,-3.9687 z m 29.6875,6.2715 c -2.1711,1.1321 -3.5056,3.6201 -3.3418,6.0507 1.1068,1.2056 3.3464,0.2925 3.5312,-1.2617 0.7397,-1.3922 1.0677,-2.9955 0.9356,-4.5664 -0.351,-0.1632 -0.7373,-0.2496 -1.125,-0.2226 z m -56.3536,0.6054 c -2.9269,1.013 -5.0336,3.8107 -5.5078,6.8321 0.5846,0.8264 1.8669,0.7865 2.5879,0.164 2.544,-0.2052 4.2806,3.2116 2.7637,5.207 -1.8788,4.4045 -6.7729,7.1402 -11.4768,6.9272 -2.0923,-0.4563 -3.165,-3.1149 -2.1243,-4.9483 0.8122,-2.9201 3.4301,-5.1138 6.3277,-5.8109 2.1812,-1.0406 2.2899,-4.6911 0.074,-5.7539 -2.7033,-0.3224 -5.3491,1.7425 -5.9297,4.3574 0.2483,1.1615 2.1755,1.1387 2.4805,0.025 0.6441,-0.8828 1.4629,-1.8604 2.6425,-1.9199 0.7346,0.7599 -0.091,2.1423 -1.082,2.0625 -4.5239,2.1798 -7.4322,7.5001 -6.4336,12.4824 1.1729,2.7774 4.8469,3.4868 7.3981,2.3001 6.1841,-1.7323 10.8956,-8.1983 10.0023,-14.6692 -0.3014,-1.6302 -2.1333,-2.8528 -3.7441,-2.3242 -1.2111,-0.16 -1.0156,-2.2456 0.1582,-2.293 0.9789,-0.4246 2.1433,0.076 2.7226,0.9199 1.2339,0.5223 2.3803,-1.4381 1.3457,-2.2715 -0.4361,-0.7719 -1.271,-1.4359 -2.2051,-1.2871 z m 21.5918,1.4629 c 2.323,0.6078 2.7875,3.8699 1.375,5.5684 -1.6307,3.2554 -5.5605,5.1862 -9.1289,4.3926 -1.2846,-0.6672 -0.6851,-2.3783 -0.01,-3.2754 1.8609,-2.6081 3.7153,-5.7757 7.0458,-6.6211 0.2334,-0.063 0.4748,-0.094 0.7159,-0.064 z m -12.5507,2.7461 c -1.6683,0.5726 -3.4098,1.0635 -4.8536,2.1172 0.1171,1.1819 1.8811,0.8289 2.1426,1.9219 -1.1099,3.1072 -3.1497,5.8955 -3.5331,9.2429 -0.094,1.0738 -0.5608,2.317 -0.1368,3.3098 1.1087,1.3346 3.5212,1.1836 4.4102,-0.3242 1.1609,0.1652 1.0129,-2.1215 -0.1387,-1.707 -1.1759,0.5399 -2.45,-1.03 -1.7813,-2.0977 0.7084,-4.183 2.8848,-7.8894 4.5782,-11.7207 0.055,-0.3691 -0.25,-0.9175 -0.6875,-0.7422 z m -51.5196,1.6289 c -4.3324,0.9314 -7.9971,3.9709 -10.2461,7.7227 0.7423,0.8186 2.3232,0.245 2.4121,-0.8418 1.9023,-2.6124 5.0196,-4.3752 8.2774,-4.4102 2.899,1.7918 3.5985,5.6567 2.8326,8.7673 -0.5965,5.3353 -3.0585,10.4457 -6.8873,14.2132 -1.1081,0.5691 -2.349,-1.1758 -1.4102,-2.0176 1.5698,-2.6122 3.5423,-5.3331 3.3887,-8.5332 -0.7207,-2.6287 -4.5638,-3.3168 -6.3554,-1.3867 -4.9635,3.3887 -7.5309,9.8813 -6.2676,15.7519 1.337,1.6651 4.1874,0.8697 4.9941,-0.9394 1.242,-1.5862 1.7067,-3.8098 1.0117,-5.7246 -1.1439,-0.8221 -2.9347,-0.3307 -3.5547,0.9179 -1.0742,-0.2126 -1.2681,-1.8791 -0.3515,-2.4121 1.6443,-2.3823 3.7903,-4.7516 6.7363,-5.4004 1.6696,0.11 2.3759,2.5792 1.0899,3.6075 -1.2849,2.1344 -2.8253,4.3549 -2.8047,6.9511 1.1786,2.2096 4.7762,1.8986 5.8691,-0.2343 5.2525,-5.818 7.956,-14.1183 6.3541,-21.8706 -0.6962,-2.1784 -2.5882,-4.3967 -5.0885,-4.1607 z m -17.9765,12.8145 c -3.2202,1.1896 -5.5071,4.3604 -5.8672,7.7422 1.7505,0.3599 3.5323,-0.9422 5.2324,-0.1153 1.9399,2.7694 0.6069,6.6738 -1.8616,8.6462 -0.9521,0.8401 -2.1401,1.3773 -3.3689,1.6683 -0.9853,-0.3475 -1.2311,-1.6721 -0.7734,-2.5235 -0.3525,-1.0302 -2.2281,-0.3779 -1.8418,0.6543 -0.3256,2.221 -2.1854,4.1929 -4.4492,4.4434 -2.095,-0.669 -2.6712,-3.5071 -1.5508,-5.2344 1.0512,-3.0674 3.7639,-5.3302 6.7754,-6.3613 1.9763,-1.2112 1.967,-4.6229 -0.1504,-5.6836 -2.9244,0.1406 -5.5436,2.4788 -6.0977,5.3398 -1.7272,1.4183 -0.9323,3.9179 -1.8023,5.7514 -0.9166,2.5332 -2.0377,5.5432 -0.5137,8.0748 0.9231,1.5412 3.0725,2.0502 4.5898,1.0822 1.0711,-0.4518 1.7412,-1.4653 2.4218,-2.3066 1.4787,-0.7256 3.0415,0.8863 4.5251,0.049 0.8829,-0.2553 1.4255,-1.3049 2.4258,-1.207 1.1801,1.3078 -0.1306,2.9602 -0.1406,4.4219 0.1102,1.0443 -0.6539,2.0713 -1.7613,1.8691 -3.2206,0.3609 -6.5126,1.1129 -9.1816,3.0385 -0.8294,0.1968 -2.2789,1.4266 -2.7748,0.4143 -0.637,-1.6032 1.0789,-3.4826 2.7353,-3.1149 1.0886,-0.1837 0.8411,-2.2708 -0.334,-1.8828 -2.8821,0.5431 -4.7714,3.6448 -4.4102,6.4687 1.0341,1.5227 3.1167,0.9266 4.574,0.4875 3.765,-1.2247 7.4902,-2.5682 11.26,-3.7785 0.9404,-0.9594 0.8057,-2.4386 1.2823,-3.6241 1.24,-5.0629 2.2489,-10.1895 3.1572,-15.3165 0.021,-1.7954 -1.1217,-3.9477 -3.1192,-4.0008 -0.7191,0.1843 -2.1592,0.3521 -2.1718,-0.7207 0.1748,-1.5241 2.6848,-2.4601 3.4028,-0.8328 0.4499,0.9385 2.0001,0.98 2.1831,-0.1613 0.4791,-1.4869 -0.7523,-3.4181 -2.3945,-3.2871 z m -8.2891,5.8125 c 0.6786,1.2307 -1.2572,2.6803 -2.2402,1.6679 -0.1779,-1.1501 1.1377,-1.8666 2.1367,-1.8125 l 0.1035,0.1446 z m -34.4746,2.3867 c -4.0359,0.5637 -7.4121,3.2194 -10.002,6.2246 -0.2065,1.2607 1.8042,1.1864 2.0266,0.1189 1.4814,-2.0683 3.9667,-3.2482 6.4054,-3.7622 1.056,-0.074 2.3803,-0.6123 3.2419,0.1941 2.6383,2.271 2.9939,6.1831 2.0624,9.3536 -1.1049,5.6188 -5.5694,10.7637 -11.3422,11.7564 -2.1111,0.2206 -4.1833,-2.0169 -3.4107,-4.1048 0.5104,-3.5326 3.7398,-5.9871 6.9991,-6.8978 0.8062,-0.4658 2.1588,-0.3423 2.4472,-1.4238 -0.2551,-1.2975 -1.8063,-1.0814 -2.6621,-0.5918 -5.4111,1.5465 -9.5219,7.2494 -8.6386,12.9179 1.8451,3.6022 7.262,4.0692 10.0652,1.3488 6.3785,-4.6012 9.7492,-13.0843 8.1655,-20.7946 -0.724,-2.2988 -2.7733,-4.5047 -5.3577,-4.3393 z m 50.6973,3.7187 c 1.1999,1.1952 -0.2788,3.5074 -1.8653,3.0371 -0.8775,-1.2397 0.2518,-3.1418 1.7207,-3.1445 l 0.1446,0.1074 z m -70.8555,7.8106 c -3.165,0.7029 -5.823,2.6855 -8.3477,4.6191 -0.874,-1.8965 -3.807,-1.8478 -4.8849,-0.1676 -1.5794,1.3608 -2.5082,3.349 -2.8631,5.3786 0.3846,1.2167 2.5088,0.8915 2.5254,-0.3789 0.5776,-1.3914 0.9561,-2.9286 2.0078,-4.0606 1.0176,0.3031 1.1069,1.9656 0.1289,2.3789 -2.4418,3.1404 -4.8215,6.3372 -6.916,9.7227 0.6526,1.0362 2.3766,0.5435 2.8633,1.7519 1.1518,1.5336 3.8793,1.3943 4.8027,-0.3125 1.3279,-1.1203 2.7965,0.8506 4.2324,0.2193 2.3757,-0.6987 3.8735,-2.9225 5.0098,-4.9771 1.1832,-2.6291 1.0574,-6.2602 -1.4063,-8.1211 -0.7068,-0.8614 -1.9044,-0.1742 -2.5781,-0.7637 -0.5297,-1.2669 1.0543,-1.5462 1.93,-1.7346 2.4452,-0.6582 5.5299,0.3368 6.3835,2.9085 1.4469,3.4565 -0.1405,7.7132 -3.1592,9.7812 -0.7925,0.3757 -2.1224,0.085 -2.4355,1.1348 0.067,1.3956 2.0703,1.4131 2.8202,0.555 4.4911,-3.5087 6.7122,-10.1073 4.3184,-15.4398 -0.8518,-1.5671 -2.6281,-2.65 -4.4316,-2.4941 z m -22.7734,3.0019 c -2.7745,0.5855 -5.0694,3.0611 -5.3204,5.9043 1.7902,0.6998 4.0545,-0.017 5.5528,1.4336 2.3032,3.3967 -0.957,8.6544 -5.0196,8.1582 -1.1422,-0.1359 -1.5508,-1.4645 -1.3984,-2.4472 -0.4978,-1.2472 -2.1285,-0.3007 -2.012,0.8078 -0.3263,1.3513 -1.4637,2.4521 -2.8942,2.4695 -1.9735,0.1361 -3.9605,-1.7281 -3.5117,-3.7607 0.087,-3.8489 3.8903,-6.9509 7.6503,-6.6866 1.1329,-0.3188 0.5193,-2.3576 -0.6074,-1.957 -4.2119,0.1605 -7.4934,3.7751 -8.6269,7.6192 -0.7472,2.5938 -0.4556,5.9629 1.9257,7.6171 1.7053,0.9431 4.0589,0.5017 5.2715,-1.0351 1.4567,-0.8808 2.755,0.966 4.2468,0.6702 3.6167,-0.2403 6.2885,-3.4855 7.22,-6.7796 0.6536,-2.3407 0.4733,-5.3608 -1.5952,-6.9425 -0.9093,-0.6912 -2.1165,-0.6907 -3.1431,-0.954 -0.7884,-0.7401 0.026,-2.1455 1.0493,-1.922 0.9733,-0.1964 2.2024,0.4064 2.3082,1.4728 0.472,1.059 2.4158,0.3494 2.0351,-0.7695 0.044,-1.6133 -1.514,-3.0931 -3.1308,-2.8985 z m -24.2852,1.6231 c -7.5292,0.9837 -13.255,8.3854 -13.0666,15.8453 0.01,3.1849 1.2932,6.6923 4.2795,8.2113 4.0796,1.8657 9.0777,-0.091 11.6007,-3.6056 1.7166,-2.1289 2.6593,-4.8391 2.7059,-7.5682 -0.4956,-0.985 -2.3124,-0.1416 -1.7988,0.875 0.4537,5.1773 -5.5567,9.3894 -10.3234,7.5681 -3.8188,-2.0008 -5.0585,-7.2197 -3.3231,-11.0095 1.4814,-4.9539 6.5816,-8.8224 11.834,-8.1875 2.1975,0.3184 2.989,3.8117 0.9453,4.875 -1.0382,0.84 -2.5307,1.0348 -3.7617,0.5312 -0.6326,-0.9816 0.9275,-2.1604 1.7539,-1.4101 1.1589,0.4074 1.6292,-1.8841 0.3496,-1.8828 -1.8168,-0.2907 -3.6376,0.1165 -5.4512,0.2304 -1.0293,0.6437 -0.2457,2.0559 0.5922,2.404 0.7226,1.2735 1.4498,3.0755 3.1963,3.0337 3.9279,0.5751 7.6321,-3.984 5.9869,-7.6818 -0.9612,-2.0473 -3.5303,-2.3252 -5.5195,-2.2285 z m -26.7715,1.7441 c -3.1335,0.4292 -5.7733,2.3574 -8.1738,4.2871 -0.5338,-1.9733 -3.6617,-2.2497 -4.6094,-0.4726 -1.6867,1.5891 -2.4726,3.8756 -2.8867,6.1015 0.2819,1.1306 2.2708,0.9673 2.3359,-0.207 0.6963,-1.671 1.0163,-3.582 2.3184,-4.9277 1.0139,1.4165 -0.091,3.1445 -1.1152,4.2031 -2.1031,3.0985 -3.9832,6.3465 -5.6465,9.7012 0.7694,0.8538 2.4286,0.4898 2.8242,1.748 1.0893,1.6105 3.9781,1.3539 4.6738,-0.4961 0.787,-0.7958 2.013,-0.2451 2.7461,0.3438 2.4065,0.4247 4.2668,-1.6605 5.3944,-3.5121 2.0094,-3.039 2.4255,-7.5519 -0.1471,-10.3938 -0.7098,-0.652 -1.6361,-1.2364 -2.6418,-1.0941 -1.0546,-0.6465 0.081,-2.1085 1.0664,-1.8086 2.973,-0.8162 6.6092,0.9528 7.2305,4.1071 1.0791,3.6678 -0.518,7.9272 -3.7168,10.012 -0.9063,-0.323 -2.1883,0.1747 -2.2813,1.2266 1.3249,1.4831 3.9168,0.649 4.6445,-1.043 3.7322,-4.0883 4.8298,-10.5883 2.1826,-15.5145 -1.0258,-1.2426 -2.487,-2.4185 -4.1982,-2.2609 z m 68.5195,1.2754 c 3.2328,1.0381 3.6235,6.22 0.5898,7.7463 -0.7704,0.4583 -2.1851,1.2545 -2.8294,0.3097 -0.466,-0.6595 -0.5718,-1.5423 -0.3248,-2.306 -0.3959,-1.0183 -2.2715,-0.2945 -1.8047,0.7305 -0.2806,2.1227 -2.8819,3.4778 -4.7988,2.5605 -1.0156,-1.4148 0.1686,-3.0974 1.2116,-4.101 1.8585,-2.5472 4.5193,-5.2538 7.9563,-4.94 z m -58.5253,0.209 c -1.5669,0.53 -3.0614,1.6352 -3.6016,3.2539 0.564,0.9851 2.1854,0.3279 2.1777,-0.7168 0.8905,-0.8049 2.4541,0.4371 1.8985,1.4902 -0.319,3.6778 -1.1822,7.3028 -2.5254,10.7403 -1.0305,0.2208 -1.8833,-0.5295 -2.7813,-0.8887 -1.6321,1.0885 -0.01,4.0069 1.7813,3.3281 2.5354,-0.3478 3.8334,-2.9186 4.5351,-5.1074 1.357,-3.5053 1.9875,-7.5141 0.6543,-11.125 -0.4482,-0.6946 -1.3024,-1.1783 -2.1386,-0.9746 z m -15.4473,6.0137 c 3.3892,1.0291 4.2236,6.2814 1.3203,8.3105 -0.7495,1.1194 -2.894,1.5435 -3.5,0.072 -0.2837,-0.8195 0.3803,-2.3028 -0.7285,-2.6172 -1.2298,0.1093 -1.0972,1.6373 -1.3555,2.5098 -0.6572,1.6248 -3.0203,2.6941 -4.4394,1.3711 -0.9339,-1.3707 0.1692,-2.9647 1.1044,-3.9926 1.4354,-2.2095 3.1074,-4.4691 5.587,-5.568 0.6697,-0.045 1.3395,-0.1152 2.0117,-0.086 z"
     id="flowRoot2987"
     inkscape:connector-curvature="0"
     transform="matrix(0.99765713,0.06841231,-0.06841231,0.99765713,224.42769,-73.709902)" />
  <path
     style="font-style:normal;font-variant:normal;font-weight:normal;font-stretch:normal;font-size:12px;line-height:125%;font-family:Arial;-inkscape-font-specification:Arial;letter-spacing:0px;word-spacing:0px;fill:#413727;fill-opacity:1;stroke:#483c2b;stroke-width:0.86060631;stroke-miterlimit:4;stroke-dasharray:none;stroke-opacity:1;filter:url(#filter3980)"
     d="m 908.80718,3055.7892 c -1.53716,0.4654 -2.74783,1.8038 -3.10547,3.3633 -1.07795,-0.1123 -1.80209,1.1616 -1.53125,2.1133 -1.22791,3.5423 -3.84337,6.8341 -3.39649,10.7734 0.0552,2.266 2.26343,4.5624 4.61914,3.9531 0.74385,-0.4369 1.93522,-1.2823 2.61133,-0.2949 1.16629,1.2678 3.08684,2.3611 4.77508,1.4154 5.19624,-1.8556 7.69556,-8.644 5.21125,-13.5072 -0.325,-1.4164 -2.38844,-1.3939 -2.66016,-2.8437 0.26896,-1.2407 2.03815,-1.1447 2.73828,-0.3496 0.93181,0.4867 0.0387,2.1317 1.22657,2.3711 1.28609,0.2016 1.58819,-1.5174 1.19356,-2.4316 -0.6375,-2.3085 -4.07335,-3.5108 -5.71943,-1.5292 -0.95803,0.8955 -1.6156,2.0838 -1.95265,3.3455 1.18782,1.7057 3.87749,1.9995 4.43555,4.1992 0.94978,3.4856 -1.90746,7.4583 -5.54492,7.5489 -1.50934,-0.399 -2.18018,-2.4892 -1.20508,-3.7012 0.13771,-1.1173 -1.97029,-1.1622 -1.85156,-0.025 -0.32031,2.5696 -4.63079,3.0415 -5.42774,0.5449 -1.44078,-4.0325 2.48224,-8.8451 6.73242,-8.1523 2.75344,0.024 4.0635,-4.1838 1.81641,-5.752 -0.76176,-0.7752 -1.87609,-1.2248 -2.96484,-1.041 z m 1.4707,2.6348 c 1.14957,0.1625 0.83068,2.2314 -0.32031,2.0371 -1.25498,0.324 -1.48783,-2.1412 -0.17383,-2 0.16155,-0.023 0.33023,-0.095 0.49414,-0.037 z m 38.84768,3.3535 c -1.5955,0.326 -3.143,0.9798 -4.3965,2.0332 0.084,1.0686 1.7422,1.4843 2.3144,0.5742 4.1289,-1.9047 9.5005,1.8215 9.2149,6.3457 0.4164,5.4104 -2.0757,11.2109 -6.9004,13.9453 -3.6798,1.3814 -8.4834,-1.4901 -8.4434,-5.5625 0.1923,-3.872 5.152,-6.6524 8.4766,-4.5117 1.0656,0.3867 1.9543,-1.5139 0.793,-1.9297 -3.4848,-2.1739 -8.3304,-0.1703 -10.0747,3.3388 -2.2263,3.8466 -0.9128,9.5607 3.2418,11.5092 2.6339,1.3379 6.0064,0.7863 8.1471,-1.2284 3.6663,-2.9177 5.4173,-7.5825 6.1545,-12.0786 0.4399,-3.8559 -0.3098,-8.2142 -3.2439,-10.9698 -1.446,-1.1762 -3.4247,-1.8699 -5.2834,-1.4657 z m -22.81448,-0.023 c -2.60473,0.948 -4.47103,3.4391 -4.93359,6.1367 0.34061,1.1113 2.26839,0.9443 2.4082,-0.211 0.73186,-1.2485 1.43473,-2.5495 2.50391,-3.5488 0.79263,0.9307 0.39135,2.559 -0.73242,3.0293 -2.61956,2.6946 -5.20179,5.4268 -7.67188,8.2598 1.28632,1.1089 3.17638,1.7668 3.65779,3.5656 2.19392,3.3646 7.96658,2.9396 9.75821,-0.6203 2.23436,-2.8735 2.60127,-7.0564 0.90627,-10.2774 -1.27357,0.2032 -1.37111,-2.2612 -0.0488,-2.041 3.62192,0.1768 6.09252,4.3143 5.07226,7.668 -0.39306,3.0328 -2.08623,5.8533 -4.53125,7.6797 -2.4228,-0.8518 -4.99252,1.3596 -5.16797,3.7715 -0.7452,2.2159 0.3687,5.3061 2.9004,5.6679 2.35217,0.2807 4.6933,-1.6259 4.9414,-3.9726 0.81403,-0.8595 -0.97637,-2.3332 -1.51367,-1.1465 -0.36133,1.2333 -1.68622,2.6176 -3.04798,1.869 -1.5266,-0.5582 -1.89924,-3.2929 -0.12975,-3.7792 2.15319,-0.6959 4.61533,-1.5284 5.64721,-3.738 3.03727,-4.1705 3.94627,-10.0833 1.48947,-14.7424 -1.67093,-2.2542 -5.20507,-2.9066 -7.4902,-1.2149 -1.51901,0.3455 -2.10979,-1.458 -3.12695,-2.1816 -0.2689,-0.1525 -0.58496,-0.2069 -0.89063,-0.1738 z m 2.86719,7.0585 c 3.34281,1.295 3.52595,6.8127 0.27655,8.3408 -2.64607,1.4295 -6.32802,0.2425 -7.63397,-2.4677 0.44771,-2.8737 3.14146,-4.6188 5.57139,-5.7604 0.56697,-0.1882 1.20902,-0.3533 1.78603,-0.1127 z m 57.83989,2.7403 c -3.3512,-0.044 -6.4643,2.6587 -6.9551,5.9629 -0.8118,1.4067 -2.4854,2.3585 -2.6367,4.0996 0.5712,1.0738 2.4442,0.7733 2.6914,-0.4024 0.6137,-0.8802 2.2842,0.4142 1.375,1.1524 -2.6765,0.7188 -5.6766,1.7943 -6.9419,4.4848 -2.0415,3.1685 -1.3841,8.1878 2.1241,10.038 4.8211,2.3876 11.2697,-0.921 12.3496,-6.1457 0.7146,-2.3648 0.4068,-5.3309 -1.6935,-6.9095 -0.6269,-0.4926 -1.4446,-1.7451 -0.3208,-2.1512 0.8289,-0.3347 2.0649,0.2278 1.9747,1.2226 0.3136,1.0864 2.2988,0.5684 1.9707,-0.5468 -0.1268,-2.7347 2.1826,-5.2711 1.082,-8.0098 -0.8992,-1.8352 -2.986,-2.9975 -5.0195,-2.7949 z m 23.16214,2.6523 c -3.9947,4.2689 -8.7663,7.8131 -14.04664,10.3271 -3.6299,2.2333 -6.4826,6.3368 -6.0609,10.7413 0.644,3.3451 4.7158,5.2002 7.773,3.9265 5.62194,-1.6269 8.95484,-8.227 7.44774,-13.7761 -0.2054,-0.892 -1.115,-1.3162 -1.4453,-2.1074 -0.2345,-1.2823 1.1742,-1.7908 1.9364,-2.4866 2.0257,-1.6363 4.0605,-3.3866 5.3429,-5.6931 0.1141,-0.5164 -0.4131,-1.1081 -0.9472,-0.9317 z m -25.74034,0.5293 c 2.1475,0.1662 4.3442,0.6168 6.1641,1.8262 0.1575,1.5717 -1.261,3.0425 -2.8184,3.0508 -2.0427,0.8996 -3.232,2.9523 -4.0527,4.9277 1.488,1.0231 3.7437,1.583 4.123,3.6211 0.2898,4.4428 -4.9595,8.0163 -9.0117,6.2637 -3.4124,-0.9179 -4.701,-6.1622 -1.7597,-8.3242 1.64,-1.5374 4.2894,-0.6782 5.9394,-2.1407 1.3659,-1.5001 1.1918,-4.1779 -0.4883,-5.3769 -1.1696,-1.3954 -0.0379,-4.1073 1.9043,-3.8477 z m 54.57424,3.711 c -4.1397,1.9688 -8.3112,3.8694 -12.4765,5.7832 -4.0498,-2.3921 -9.7937,0.2263 -11.084,4.6367 -0.6525,1.7274 -1.8373,3.2514 -3.4256,4.1981 -0.574,0.6773 -1.7594,0.9203 -1.9865,1.8292 1.5495,0.8915 2.6376,2.4746 3.1872,4.1781 1.5697,2.5614 5.3746,2.7868 7.7249,1.1989 1.1148,-0.5606 2.0471,-1.4138 2.8867,-2.3242 1.6114,0.1147 2.9687,1.9769 4.6465,1.1328 1.9662,-0.8514 2.8564,-3.5585 1.6895,-5.3789 -1.4091,0.1154 -2.5984,-1.9297 -1.379,-2.9082 0.5031,-0.7729 2.0177,-1.7126 2.5367,-0.4888 0.2095,0.8119 1.29,1.8611 1.96,0.876 0.5455,-0.6168 0.9012,-1.7361 1.9037,-1.6724 1.3266,0.8839 0.6747,2.6909 0.081,3.8224 -0.863,2.4539 -1.9806,4.8148 -3.2916,7.0604 -1.0607,0.2107 -1.6265,-1.1673 -2.6797,-1 -1.2286,1.2946 -0.1484,3.737 1.5996,3.8145 1.7922,1.8826 -0.1515,5.6346 -2.7541,5.0456 -1.994,-0.3803 -3.8597,-1.3639 -5.9312,-1.3415 -2.4289,-0.1888 -4.8657,0.044 -7.2971,-0.066 -1.272,-0.4643 -0.8416,-2.4175 0.3496,-2.6972 0.8325,-0.24 2.1152,0.5112 2.5352,-0.586 0.389,-1.1388 -1.0962,-1.7463 -1.9883,-1.3437 -2.4297,0.4501 -4.1523,3.4257 -2.9824,5.6934 3.9998,2.159 8.7015,1.5878 13.0211,2.4952 1.3634,0.1657 2.7268,0.3313 4.0902,0.4969 2.8273,-2.2566 3.0495,-6.1326 4.605,-9.1677 1.6919,-4.2042 3.4541,-8.4643 3.9751,-13.0041 -0.3327,-1.7608 -2.8607,-2.5228 -4.1133,-1.2442 -1.1757,0.4263 -2.4386,0.098 -3.5859,-0.2578 -0.8364,0.4287 -1.7981,0.9374 -2.7579,0.5996 -0.5221,-1.7661 1.1548,-3.441 2.8594,-3.4951 3.1454,-1.2566 6.4749,-2.4148 8.9629,-4.8135 0.2192,-0.5394 -0.319,-1.1647 -0.8809,-1.0722 z m 41.1739,4.9394 c -3.9315,0.6485 -7.4979,3.2453 -9.2657,6.8242 -1.9256,-0.01 -4.1655,-0.9284 -5.8242,0.4825 -1.685,1.1491 -2.8621,3.0296 -3.084,5.0644 0.6361,1.1529 2.7189,0.8032 2.8848,-0.5234 0.5453,-1.103 1.1323,-2.1922 1.8848,-3.17 1.0527,-0.1647 1.7017,1.5519 0.7265,2.0645 -1.7747,2.4922 -3.5494,4.9844 -5.3242,7.4766 -0.9642,0.079 -2.0331,0.2442 -2.7129,1.0058 2.8885,5.4434 11.454,6.5512 15.5274,1.8666 2.3841,-2.4029 3.1039,-6.7541 0.7003,-9.3837 -0.9228,-0.8558 -2.1048,-1.4171 -3.3449,-1.6215 1.5776,-2.162 4.8738,-1.7666 6.7682,-0.2574 3.4593,2.4259 3.9197,8.1691 0.6692,10.9648 -1.2193,1.3714 -3.0399,2.2212 -4.8846,2.1695 -1.0234,0.4469 -0.2079,2.1754 0.789,1.875 2.3973,0.5451 4.3786,-1.4097 5.7117,-3.1425 2.3222,-2.895 3.1647,-6.8218 2.5422,-10.4512 0.9337,-2.2414 3.0207,-4.3113 2.5058,-6.9186 -0.7767,-2.6423 -3.5402,-4.4924 -6.2694,-4.3256 z m 15.9043,0.7442 c -2.6086,0.3144 -5.1434,1.6046 -6.7539,3.7089 0.6298,0.8376 2.1393,0.8079 2.6621,-0.1308 4.0845,-3.2183 10.9981,-0.6836 12.1758,4.3418 2.3247,6.3175 -2.3842,14.1728 -9.1359,14.8618 -3.0308,0.2919 -6.1345,-1.9581 -6.6552,-4.9868 0.7436,-3.4387 4.6711,-5.5871 8.0079,-4.7129 2.3371,0.1342 3.5639,-3.3601 1.7441,-4.7774 -1.8592,-2.2476 -6.0291,-1.8476 -7.2481,0.8672 -0.083,1.4077 2.1594,2.0961 2.8536,0.8535 0.7022,-0.7363 1.9509,-0.9673 2.7988,-0.3457 -0.1481,1.2242 -1.6748,1.5134 -2.6699,1.2325 -5.0173,0 -9.0655,5.8338 -7.0469,10.4961 2.564,4.6969 9.4547,5.8664 13.658,2.7205 3.2273,-2.0913 4.7389,-5.8098 6.0619,-9.2502 0.5277,-0.9387 1.3421,-1.7286 2.3309,-2.1676 1.7395,0.7899 1.5597,3.0316 1.1673,4.5784 -0.4207,2.5308 -1.1682,4.9991 -2.1205,7.3786 -1.054,0.2017 -2.0022,-0.44 -2.8437,-0.9804 -1.3523,0.1763 -1.3697,2.4282 -0.09,2.7382 2.0743,1.4463 5.3822,0.095 5.8281,-2.4004 1.8353,-3.7004 2.1881,-8.0615 1.1719,-12.0488 -0.7996,-0.9481 -2.0003,-1.5619 -3.2481,-1.5762 -0.7192,1.0644 -2.649,0.1057 -2.3223,-1.1035 -0.6435,-4.9705 -5.1296,-9.5562 -10.3261,-9.2968 z m -95.5098,0.3105 c 3.7346,1.0045 4.7942,6.6545 1.7813,9.0215 -2.0825,2.4441 -5.61204,3.5128 -8.70514,2.666 -2.6639,-1.7868 -2.4317,-6.2518 0.2187,-7.9414 1.7915,-1.734 4.0109,-2.9537 6.31064,-3.877 0.1315,0.044 0.263,0.087 0.3945,0.1309 z m 22.7324,0.6133 c -1.2981,2.2278 -3.9819,2.8756 -5.8808,4.4277 -0.931,-0.8226 0.1122,-2.0792 0.9519,-2.4892 1.4121,-1.0732 3.0721,-1.8639 4.843,-2.0889 l 0.086,0.1504 z m 58.7188,1.209 c 1.8772,0.7154 2.8766,3.323 1.6328,4.998 -2.8926,-0.059 -5.4602,-2.5909 -8.418,-1.5801 -1.1332,0.1504 -1.2195,-1.8546 -0.1172,-1.9043 1.8759,-1.4519 4.4062,-1.7284 6.6925,-1.5776 l 0.1749,0.053 0.035,0.011 z m 40.5664,0.3203 c -2.1815,0.6299 -4.5009,1.6024 -5.711,3.6445 0.3091,1.0697 2.1139,0.8616 2.2637,-0.2051 3.5764,-2.9509 9.8135,-0.5265 10.5977,4.0039 1.4588,5.1237 0.7491,10.9272 -2.2949,15.3516 -1.6486,1.3007 -4.3766,-0.7548 -3.6016,-2.7031 0.2544,-1.1772 -2.0684,-1.3252 -1.8516,-0.082 -0.1189,2.5617 -4.1905,3.3668 -5.3301,1.0977 -2.2572,-3.1673 0.5312,-8.2647 4.4191,-8.0666 1.5342,-0.05 3.6367,0.3206 4.5008,-1.3075 1.0778,-2.3855 -1.4112,-5.1625 -3.8929,-4.7904 -1.3788,0.13 -2.7168,1.142 -2.9664,2.5473 -0.6946,1.1332 -2.8223,0.6589 -2.9785,2.2305 -0.3136,3.281 -2.0978,6.4323 -1.3801,9.7773 0.3696,2.2475 2.2234,4.6549 4.7238,4.3481 1.1285,-0.028 2.0914,-1.077 3.2461,-0.5453 1.2727,0.4143 2.2688,1.7257 3.7344,1.3789 0.6981,-0.3123 1.634,-0.4712 2.0376,0.3736 0.6122,0.9187 -0.1776,1.8533 -0.2743,2.7836 -0.4206,0.9047 -0.048,2.5264 -1.3175,2.7177 -1.6716,0.2793 -3.0947,-1.0161 -4.7502,-1.0506 -2.4577,-0.3474 -4.941,-0.041 -7.4104,-0.096 -1.6112,-0.6187 -0.6552,-3.5616 1.0214,-3.0098 0.884,0.4037 2.3186,-0.4898 1.7715,-1.5097 -1.4302,-1.4464 -3.7624,-0.3043 -4.7168,1.1445 -0.8914,1.2721 -1.092,3.0446 -0.3652,4.4394 4.5676,2.1662 9.7581,1.7508 14.6016,2.7852 1.7022,-0.4547 1.7195,-2.5066 2.1727,-3.8889 1.6906,-7.1469 3.2525,-14.4562 2.8987,-21.8415 -0.4078,-3.723 -2.3138,-7.7757 -6.0675,-9.0919 -0.9874,-0.3382 -2.0382,-0.4788 -3.0801,-0.4355 z m -96.9942,0.2344 c 1.4479,3.0261 -0.028,6.6113 -2.2263,8.8583 -1.8229,1.8021 -4.64,3.1383 -7.1877,2.2256 -0.9403,-0.4764 -1.6605,-1.2923 -2.1992,-2.1836 1.3708,0.2738 2.3938,1.9571 3.9179,1.4122 2.9286,-0.2511 5.2971,-3.3477 4.6153,-6.2403 -1.0561,-1.6787 -3.9008,-1.0053 -4.4317,0.791 -0.7161,0.6795 -0.1925,2.3124 -1.3076,2.569 -0.9909,-0.1264 -1.2545,-1.7629 -0.2959,-2.1373 2.4691,-2.4007 5.899,-3.3364 8.6973,-5.252 0.1304,-0.042 0.281,-0.1106 0.4179,-0.043 z m -16.8378,1.4687 c -0.9603,-0.1052 -1.8442,1.3589 -0.7286,1.8145 0.9144,0.6615 0.7965,1.9699 -0.062,2.6019 -2.0542,2.7378 -4.1473,5.7808 -4.2545,9.3277 0.2573,1.4217 2.0565,2.1875 3.3067,1.5391 1.1593,0.282 1.4728,-1.918 0.2578,-1.9355 -1.3461,-0.2453 -1.7563,-2.1898 -0.8086,-3.0879 1.3921,-3.1637 3.4058,-5.9934 5.4199,-8.7832 0.1064,-1.2835 -1.5057,-1.5667 -2.4766,-1.4629 -0.2182,-0.01 -0.4359,-0.041 -0.6542,-0.014 z m 11.9589,3.541 c 0.8665,0.9548 -0.2033,2.7095 -1.4453,2.4121 -0.7316,-0.9528 0.1048,-2.5463 1.2969,-2.5136 l 0.1484,0.1015 z m 7.9903,3.4219 c 0.8164,0.9025 -0.1815,2.552 -1.3555,2.2969 -0.7877,-0.8884 0.05,-2.5112 1.2227,-2.418 l 0.1328,0.1211 z m 43.2832,0.3223 c 2.8974,0.3806 4.0192,4.9663 1.4218,6.4726 -2.8721,2.3791 -6.9866,2.9116 -10.4843,1.7715 1.9263,-2.8878 3.6998,-6.0719 6.6777,-8.0195 0.7909,-0.1149 1.5818,-0.262 2.3848,-0.2246 z m 51.25,0.3574 c 1.0479,0.2896 0.5257,2.217 -0.5371,1.8652 -1.1492,0.2435 -1.2998,-2.0207 -0.092,-1.8359 0.2083,-0.019 0.4195,-0.075 0.6289,-0.029 z"
     id="flowRoot2995"
     inkscape:connector-curvature="0"
     transform="matrix(0.99765713,0.06841231,-0.06841231,0.99765713,224.42769,-73.709902)" />
</svg>
