<?xml version="1.0" encoding="UTF-8" standalone="no"?>
<!-- Created with Inkscape (http://www.inkscape.org/) -->

<svg
   xmlns:dc="http://purl.org/dc/elements/1.1/"
   xmlns:cc="http://creativecommons.org/ns#"
   xmlns:rdf="http://www.w3.org/1999/02/22-rdf-syntax-ns#"
   xmlns:svg="http://www.w3.org/2000/svg"
   xmlns="http://www.w3.org/2000/svg"
   xmlns:xlink="http://www.w3.org/1999/xlink"
   xmlns:sodipodi="http://sodipodi.sourceforge.net/DTD/sodipodi-0.dtd"
   xmlns:inkscape="http://www.inkscape.org/namespaces/inkscape"
   id="svg2"
   version="1.1"
   inkscape:version="0.91 r"
   width="2481"
   height="3503"
   sodipodi:docname="Pepper-and-Carrot_by-David-Revoy_E05P04.svg">
  <metadata
     id="metadata8">
    <rdf:RDF>
      <cc:Work
         rdf:about="">
        <dc:format>image/svg+xml</dc:format>
        <dc:type
           rdf:resource="http://purl.org/dc/dcmitype/StillImage" />
        <dc:title />
      </cc:Work>
    </rdf:RDF>
  </metadata>
  <defs
     id="defs6">
    <filter
       id="filter3980"
       style="color-interpolation-filters:sRGB;"
       inkscape:label="Drop Shadow">
      <feFlood
         id="feFlood3982"
         flood-opacity="0.228"
         flood-color="rgb(255,255,255)"
         result="flood" />
      <feComposite
         id="feComposite3984"
         in2="SourceGraphic"
         in="flood"
         operator="in"
         result="composite1" />
      <feGaussianBlur
         id="feGaussianBlur3986"
         in="composite"
         stdDeviation="0.2"
         result="blur" />
      <feOffset
         id="feOffset3988"
         dx="1.2"
         dy="-3.3"
         result="offset" />
      <feComposite
         id="feComposite3990"
         in2="offset"
         in="SourceGraphic"
         operator="over"
         result="composite2" />
    </filter>
  </defs>
  <sodipodi:namedview
     pagecolor="#ffffff"
     bordercolor="#666666"
     borderopacity="1"
     objecttolerance="10"
     gridtolerance="10"
     guidetolerance="10"
     inkscape:pageopacity="0"
     inkscape:pageshadow="2"
     inkscape:window-width="1600"
     inkscape:window-height="876"
     id="namedview4"
     showgrid="false"
     inkscape:zoom="0.28284271"
     inkscape:cx="910.53371"
     inkscape:cy="1559.1664"
     inkscape:window-x="1276"
     inkscape:window-y="121"
     inkscape:window-maximized="1"
     inkscape:current-layer="svg2" />
  <image
     sodipodi:absref="/home/deevad/peppercarrot/webcomics/ep05_Special-holiday-episode/lang/nl/../gfx_Pepper-and-Carrot_by-David-Revoy_E05P04.png"
     xlink:href="../gfx_Pepper-and-Carrot_by-David-Revoy_E05P04.png"
     width="2481"
     height="3503"
     id="image10"
     x="0"
     y="0" />
  <g
     transform="matrix(0.95112257,-0.14803231,-0.24361406,0.77336902,717.56127,1945.5625)"
     style="font-style:normal;font-variant:normal;font-weight:normal;font-stretch:normal;font-size:12px;line-height:125%;font-family:Arial;-inkscape-font-specification:Arial;letter-spacing:0px;word-spacing:0px;fill:#483c2b;fill-opacity:1;stroke:#413727;stroke-width:1.37842441;stroke-miterlimit:4;stroke-dasharray:none;stroke-opacity:1;filter:url(#filter3980)"
     id="flowRoot2987">
    <path
       d="m 1025.457,1634.5996 c -9.4363,0.6143 -18.2357,4.8391 -25.8652,10.2168 -9.94084,6.794 -19.86575,13.6152 -29.97852,20.1524 -0.96178,1.8219 -4.19786,0.4059 -3.61523,-1.5293 -0.0224,-3.6262 2.61687,-6.3968 4.39062,-9.3145 3.01757,-4.925 5.71741,-10.0597 7.80469,-15.4512 -0.80153,-1.6836 -3.25227,-1.9759 -4.62695,-0.8418 -6.78617,2.247 -13.83984,4.633 -19.17774,9.5977 -1.12949,1.4487 -1.87273,3.3249 -1.54492,5.1797 1.58511,1.119 3.56691,1.3701 5.45117,1.5176 -0.19645,-1.8703 -3.00225,-1.6827 -3.21484,-3.543 -0.29502,-2.108 1.61622,-3.5748 3.1875,-4.584 4.12635,-3.0264 8.9564,-4.8408 13.64258,-6.7949 0.91726,-1.2897 3.12271,0.597 2.01757,1.7129 -3.1486,5.9046 -6.58075,11.6516 -10.03515,17.3808 -4.37995,-1.9448 -10.16043,1.5342 -10.34961,6.3594 -0.0177,1.6106 0.74121,3.0783 1.45312,4.4766 -6.47136,6.3382 -14.27434,11.6393 -23.1582,13.8359 -6.14592,0.4519 -12.2541,-4.8555 -12.1875,-11.1152 0.23535,-8.0779 8.41228,-14.9248 16.41112,-13.626 2.06229,0.3101 3.91594,1.4484 5.37794,2.9014 -0.38278,1.2989 2.2754,1.3308 1.91407,0.039 -1.8053,-3.7131 -6.26197,-5.3484 -10.18903,-4.9332 -5.1749,0.3648 -10.37056,2.5988 -13.60145,6.764 -2.56644,3.1772 -3.77199,7.595 -2.48004,11.5527 1.50587,5.2648 6.39462,9.5757 11.95866,9.8028 8.12376,1.0125 16.28653,-2.2918 22.40112,-7.5233 3.08936,-2.5438 6.14569,-5.4598 10.12949,-6.4891 1.66311,-1.1957 4.36862,-0.1976 4.8164,1.8124 3.43808,6.5656 7.32889,13.0421 12.80115,18.1313 3.09862,2.9444 6.63815,5.612 10.73088,6.9671 3.12643,0.5547 6.43068,-0.3445 8.95625,-2.239 0.7835,-1.5706 0.95484,-3.5478 0.0469,-5.1054 -1.21277,0.1376 -1.96005,1.5968 -1.52344,2.6972 -0.96959,2.5296 -4.58618,3.23 -6.60547,1.5488 -7.40907,-3.299 -12.92314,-9.6294 -17.2675,-16.3001 -1.85037,-2.8127 -3.59958,-5.6899 -5.37898,-8.5475 0.19566,-1.9617 2.26563,-2.7746 3.79883,-3.5332 13.57411,-8.0356 26.13994,-17.8854 40.70113,-24.168 5.3751,-2.4902 11.2703,-3.5859 17.1289,-4.1777 0.5875,1.4247 3.1168,0.3272 2.4981,-1.0723 -1.5767,-2.094 -4.5071,-1.8251 -6.8184,-1.7578 z m -64.79294,26.2539 c 0.62897,1.4649 -0.54973,2.9228 -1.66211,3.7617 0.15578,1.2496 -2.24337,1.6686 -2.24414,0.2754 -0.20784,-2.1144 1.6031,-4.2832 3.77735,-4.2148 l 0.12832,0.1769 5.8e-4,8e-4 z m 2.99024,4.6465 c 1.38502,0.9279 -0.0435,3.4907 -1.5586,2.7559 -0.70974,-1.0895 0.20069,-2.5877 1.36914,-2.8594 l 0.18946,0.1035 z"
       style="font-style:normal;font-variant:normal;font-weight:bold;font-stretch:normal;font-size:72px;font-family:'Alex Brush';-inkscape-font-specification:'Alex Brush Bold';fill:#483c2b;fill-opacity:1;stroke:#413727;stroke-width:1.37842441;stroke-miterlimit:4;stroke-dasharray:none;stroke-opacity:1"
       id="path5655"
       inkscape:connector-curvature="0" />
    <path
       d="m 1000.2715,1665.6426 c -8.05472,1.6744 -15.11272,7.4944 -18.26369,15.0976 -0.97389,3.6483 2.05177,7.7325 5.84561,7.7962 3.82352,0.5579 7.36448,-1.5561 10.30939,-3.7466 3.46669,-2.3688 6.45319,-5.3589 9.22199,-8.4968 -1.2094,-0.8642 -2.826,0.1648 -3.2989,1.3828 -3.9198,4.7169 -9.27841,8.3091 -15.26168,9.7754 -3.26969,-0.3663 -4.92798,-5.0349 -2.55664,-7.3457 4.66632,-1.1265 9.75735,-1.918 13.45898,-5.2442 1.92614,-1.6743 3.94804,-3.7753 4.01564,-6.4883 -0.4811,-1.4651 -1.828,-2.8441 -3.4707,-2.7304 z m 0.8203,2.1582 c 1.2911,1.6503 0.15,4.1016 -1.57227,4.9297 -2.98135,2.8803 -6.87955,4.7465 -10.95508,5.4375 -0.5009,-1.9974 1.21524,-3.5887 2.65039,-4.6758 2.86979,-2.4105 5.9406,-4.853 9.66406,-5.7363 l 0.2129,0.045 z"
       style="font-style:normal;font-variant:normal;font-weight:bold;font-stretch:normal;font-size:72px;font-family:'Alex Brush';-inkscape-font-specification:'Alex Brush Bold';fill:#483c2b;fill-opacity:1;stroke:#413727;stroke-width:1.37842441;stroke-miterlimit:4;stroke-dasharray:none;stroke-opacity:1"
       id="path5657"
       inkscape:connector-curvature="0" />
    <path
       d="m 1017.8398,1659.4941 c -3.2246,2.0928 -4.1001,6.0757 -6.0644,9.1426 -2.7527,3.7145 -5.6965,7.2808 -8.6524,10.834 1.7682,0.4164 3.0452,-1.2483 3.9258,-2.5254 2.4302,-2.9921 4.928,-5.9284 7.4082,-8.8789 0.8316,1.3881 2.3054,2.6041 4.0039,2.5098 -3.2699,4.3529 -5.4789,9.7353 -5.1699,15.2519 1.6643,3.4537 6.5302,4.6636 9.7031,2.5938 5.0935,-2.0129 9.0897,-5.9222 12.7969,-9.8262 -0.9009,-0.9022 -2.5215,-0.1907 -2.8691,0.9219 -3.5054,4.4549 -8.81,7.4541 -14.4453,8.1094 -2.5005,-0.5526 -3.5955,-3.9962 -2.0293,-5.9668 2.1882,-4.9012 6.1771,-8.6333 9.1347,-13.0391 0.3385,-1.53 -1.9189,-2.6942 -2.998,-1.5879 -1.6983,0.8387 -3.672,1.9007 -5.5918,1.1309 -0.9233,-1.3209 0.1494,-2.9161 1.1289,-3.8555 1.0422,-1.1022 1.696,-2.7621 1.1426,-4.2481 -0.4302,-0.2651 -0.8715,-0.7043 -1.4239,-0.5664 z"
       style="font-style:normal;font-variant:normal;font-weight:bold;font-stretch:normal;font-size:72px;font-family:'Alex Brush';-inkscape-font-specification:'Alex Brush Bold';fill:#483c2b;fill-opacity:1;stroke:#413727;stroke-width:1.37842441;stroke-miterlimit:4;stroke-dasharray:none;stroke-opacity:1"
       id="path5659"
       inkscape:connector-curvature="0" />
    <path
       d="m 1053.6113,1660.3242 c -6.3834,4.809 -11.5493,10.9688 -17.3757,16.3948 -1.5037,1.5396 -3.0073,3.0793 -4.511,4.6189 1.2849,0.4245 2.9866,1.1074 3.0723,2.6816 1.2687,4.5393 7.2154,7.0345 11.3047,4.6289 5.4891,-2.1198 11.3136,-4.3053 15.2734,-8.875 0.7146,-0.6847 2.109,-1.6016 1.3914,-2.7424 -1.207,-0.6057 -1.7966,1.0326 -2.3269,1.8206 -2.059,2.3957 -4.6501,4.3853 -7.6407,5.4589 -0.753,1.2077 -3.0357,0.066 -2.4414,-1.2597 1.4885,-6.7093 1.9753,-13.8679 5.5937,-19.8882 0.7159,-1.0893 0.9098,-3.0282 -0.4472,-3.7017 -0.7779,-0.3102 -1.2753,0.5464 -1.8926,0.8633 z m -3.3633,7.2891 c -0.8243,5.7444 -1.4086,11.6791 -4.0097,16.957 -2.9219,2.5731 -8.0919,0.6625 -9.0606,-2.9883 -0.3298,-2.1432 1.0395,-4.0702 2.239,-5.7069 2.381,-2.9091 5.3123,-5.2983 7.9831,-7.9291 1.0353,-0.9657 2.0707,-1.9315 3.1061,-2.8972 -0.086,0.8548 -0.1719,1.7097 -0.2579,2.5645 z"
       style="font-style:normal;font-variant:normal;font-weight:bold;font-stretch:normal;font-size:72px;font-family:'Alex Brush';-inkscape-font-specification:'Alex Brush Bold';fill:#483c2b;fill-opacity:1;stroke:#413727;stroke-width:1.37842441;stroke-miterlimit:4;stroke-dasharray:none;stroke-opacity:1"
       id="path5661"
       inkscape:connector-curvature="0" />
    <path
       d="m 1074.9414,1657.4277 c -1.7567,0.799 -2.9114,2.495 -4.1603,3.9097 -1.2595,1.491 -2.7318,3.1015 -4.785,3.3286 -1.2874,0.3315 -2.5707,0.7921 -3.6328,1.6133 -0.2228,1.1835 1.055,2.353 2.2148,2.0195 1.0466,2.1302 -0.4312,4.3057 -1.3217,6.1965 -1.6556,3.7107 -3.0467,7.6008 -3.4439,11.6688 1.6734,3.2183 6.1992,4.3562 9.2656,2.4902 5.7848,-2.2481 10.8171,-6.2546 14.5215,-11.2129 -0.2512,-1.2871 -2.5215,-0.9824 -2.4531,0.3203 -3.4246,5.3931 -9.3911,8.7578 -15.5664,9.9571 -2.5173,0.1083 -4.076,-3.1943 -2.7344,-5.2071 2.2577,-4.4299 4.5864,-8.8244 7.0449,-13.1465 4.7824,-2.3761 10.0527,-3.4407 15.1739,-4.8203 1.2719,0.5585 1.3118,-2.0336 0.068,-1.7519 -2.9121,0.9357 -6.043,0.7585 -9.0058,1.4336 -1.5098,-0.1645 -1.2756,-2.2253 -0.2684,-2.9235 0.9679,-0.8164 1.0478,-2.2549 0.2723,-3.2269 -0.2857,-0.3609 -0.6917,-0.7204 -1.1895,-0.6485 z"
       style="font-style:normal;font-variant:normal;font-weight:bold;font-stretch:normal;font-size:72px;font-family:'Alex Brush';-inkscape-font-specification:'Alex Brush Bold';fill:#483c2b;fill-opacity:1;stroke:#413727;stroke-width:1.37842441;stroke-miterlimit:4;stroke-dasharray:none;stroke-opacity:1"
       id="path5663"
       inkscape:connector-curvature="0" />
    <path
       d="m 1106.8086,1643.8516 c -3.2473,0.3072 -5.6054,2.9136 -7.45,5.3659 -2.6656,3.8132 -4.0648,8.306 -6.216,12.3977 -1.5396,1.6676 -4.0005,1.2716 -6.0258,1.6733 -1.0101,0.1093 -2.5915,0.1842 -2.7691,1.4595 0.053,1.3585 1.6931,1.7553 2.7963,1.5392 1.124,-0.012 2.2588,-0.2401 3.3755,-0.016 1.1855,0.9184 -0.1681,2.2771 -0.4473,3.3155 -3.6609,9.532 -7.1506,19.2616 -12.8144,27.8329 -1.727,1.8098 -3.9768,3.0848 -6.3022,3.9563 -1.1201,0.2875 -2.5173,0.9887 -3.4302,-0.077 -0.9416,-0.5217 -1.5455,-2.2939 -2.2291,-2.4569 -1.3061,1.687 0.2006,4.3103 2.2153,4.4707 4.0106,1.3391 8.4678,-0.8951 10.6707,-4.3138 6.6078,-8.3224 10.3522,-18.379 14.8294,-27.9011 0.9506,-2.2344 1.7289,-5.0027 4.1754,-6.0404 2.8125,-1.3631 5.8736,-2.1042 8.7297,-3.367 0.6386,-0.2227 3.0123,-1.004 1.1644,-0.8186 -2.7949,0.1093 -5.5547,0.5999 -8.3156,1.015 -1.3366,-0.3034 -1.343,-2.1709 -0.5547,-3.0273 2.1634,-3.4015 3.702,-7.271 6.6211,-10.1367 1.1748,-0.64 2.5972,-0.3527 3.7539,0.1796 1.4932,0.1709 2.1884,-1.7991 1.5664,-2.9394 -0.4543,-1.3781 -1.9098,-2.2747 -3.3437,-2.1113 z"
       style="font-style:normal;font-variant:normal;font-weight:bold;font-stretch:normal;font-size:72px;font-family:'Alex Brush';-inkscape-font-specification:'Alex Brush Bold';fill:#483c2b;fill-opacity:1;stroke:#413727;stroke-width:1.37842441;stroke-miterlimit:4;stroke-dasharray:none;stroke-opacity:1"
       id="path5665"
       inkscape:connector-curvature="0" />
    <path
       d="m 1115.4492,1659.7695 c -8.29,3.6794 -14.9294,10.9819 -17.6616,19.6429 -0.58,2.1731 -0.3628,4.9899 1.7173,6.3044 2.8751,2.0498 7.0723,1.3869 9.5189,-1.0377 5.0564,-3.6104 8.7951,-8.6598 12.5387,-13.5365 0.2255,-1.4679 -2.1709,-0.8694 -2.2558,0.2611 -3.2608,6.0177 -8.5723,10.7177 -14.4493,14.108 -3.1254,0.3254 -5.6092,-3.9486 -3.5039,-6.3965 2.9529,-2.5778 6.8222,-3.7463 9.9644,-6.0555 2.5049,-1.7482 4.2139,-4.37 5.7915,-6.9308 0.4704,-1.1062 1.5655,-2.1413 1.2606,-3.4117 -0.2063,-1.454 -1.2575,-3.1045 -2.9208,-2.9477 z m 0.3965,2.3555 c 0.8745,2.6699 -0.7734,5.3946 -2.75,7.0918 -2.7579,2.6024 -5.9063,4.7764 -9.2812,6.5 0.2849,-3.5963 3.0619,-6.219 5.3808,-8.7031 1.9709,-1.9269 4.1627,-3.6245 6.5137,-5.0625 l 0.1351,0.1718 0,0 z"
       style="font-style:normal;font-variant:normal;font-weight:bold;font-stretch:normal;font-size:72px;font-family:'Alex Brush';-inkscape-font-specification:'Alex Brush Bold';fill:#483c2b;fill-opacity:1;stroke:#413727;stroke-width:1.37842441;stroke-miterlimit:4;stroke-dasharray:none;stroke-opacity:1"
       id="path5667"
       inkscape:connector-curvature="0" />
    <path
       d="m 1133.7695,1656.0293 c -7.8923,3.9888 -13.6799,11.4666 -16.5332,19.7461 -0.5522,1.9231 -0.8026,3.9388 -0.6621,5.9375 2.7845,3.3771 8.6036,3.4983 11.45,0.1335 4.8286,-4.2604 8.7305,-9.4374 12.3586,-14.7253 -0.7353,-1.0941 -2.5108,-0.172 -2.539,0.9863 -1.6104,3.4904 -4.2773,6.3406 -6.8731,9.1192 -2.0616,2.0208 -4.3343,3.8206 -6.748,5.4023 -2.723,0.8452 -5.8192,-2.3786 -4.4922,-5.0234 1.3335,-2.9667 4.6298,-4.0455 7.1855,-5.6758 4.7701,-2.8602 8.3907,-7.4633 10.3203,-12.6563 -0.4501,-1.3923 -1.0228,-3.3722 -2.7785,-3.4725 -0.2417,-0.034 -0.4589,0.1743 -0.6883,0.2284 z m 1.0176,2.1133 c 0.3716,3.7739 -2.1159,7.069 -4.7824,9.4507 -2.1955,2.0142 -4.6877,3.6789 -7.2762,5.143 1.0086,-4.6923 4.5128,-8.2178 7.6231,-11.6484 1.3686,-1.1043 2.831,-2.0826 4.2734,-3.0859 l 0.1621,0.1406 z"
       style="font-style:normal;font-variant:normal;font-weight:bold;font-stretch:normal;font-size:72px;font-family:'Alex Brush';-inkscape-font-specification:'Alex Brush Bold';fill:#483c2b;fill-opacity:1;stroke:#413727;stroke-width:1.37842441;stroke-miterlimit:4;stroke-dasharray:none;stroke-opacity:1"
       id="path5669"
       inkscape:connector-curvature="0" />
    <path
       d="m 1156.791,1643.7422 c -6.6211,6.2671 -10.8877,14.4377 -16.1749,21.7588 -1.4996,2.1566 -2.9993,4.3131 -4.4989,6.4697 1.7695,0.8285 3.0182,2.5057 3.6172,4.334 2.4464,3.1735 7.704,3.5356 10.5147,0.6501 5.1365,-3.8335 10.3439,-7.8551 13.8837,-13.2927 -0.1654,-1.3739 -2.2076,-0.4627 -2.0762,0.6172 -0.5461,1.3244 -1.6791,2.2919 -2.5421,3.4082 -1.19,1.3463 -2.5207,2.5711 -3.9833,3.6172 -1.238,0.305 -2.4977,-1.2314 -1.8457,-2.3652 1.1714,-7.9532 2.1036,-15.9825 4.3282,-23.7305 0.03,-0.6754 -0.4201,-1.6006 -1.2227,-1.4668 z m -4.1035,6.6836 c -0.1859,7.5032 -1.1012,15.004 -2.9961,22.2734 -1.3119,2.1004 -4.3347,2.0231 -6.3056,0.9802 -0.9079,-0.4765 -1.6917,-1.2136 -2.1553,-2.1345 0.2166,-5.1593 3.2762,-9.5565 6.1015,-13.6621 1.7617,-2.4922 3.5235,-4.9844 5.2852,-7.4766 l 0.07,0.02 z"
       style="font-style:normal;font-variant:normal;font-weight:bold;font-stretch:normal;font-size:72px;font-family:'Alex Brush';-inkscape-font-specification:'Alex Brush Bold';fill:#483c2b;fill-opacity:1;stroke:#413727;stroke-width:1.37842441;stroke-miterlimit:4;stroke-dasharray:none;stroke-opacity:1"
       id="path5671"
       inkscape:connector-curvature="0" />
    <path
       d="m 1174.0918,1639.1602 c -1.9633,2.1037 -2.935,4.8833 -4.6328,7.1757 -1.8806,1.0341 -4.3475,1.2002 -5.6856,3.0606 -0.4258,1.2778 1.1225,2.0142 2.1602,2.1621 1.1091,0.962 0.243,2.5132 -0.023,3.6658 -1.5451,5.4088 -3.4087,10.8773 -3.2449,16.5764 0.6276,2.8168 4.442,3.8295 6.6795,2.2579 5.0986,-2.7814 9.4288,-6.8695 12.6133,-11.7173 0.7691,-1.1117 1.4345,-2.289 2.1232,-3.4508 -1.138,-0.7946 -2.3337,0.5362 -2.701,1.555 -2.6155,5.1572 -7.2234,9.0034 -12.1622,11.8435 -1.2738,0.6634 -3.0966,0.5227 -3.834,-0.8575 -0.7139,-1.0971 -0.5594,-2.5008 -0.036,-3.6355 1.3565,-5.5498 3.36,-10.9316 5.852,-16.0695 2.9594,-3.1012 7.4087,-3.6396 11.2155,-5.1598 1.3995,-0.5021 2.799,-1.0042 4.1985,-1.5063 -1.4825,-1.0677 -3.2809,0.03 -4.8972,0.036 -1.9702,0.3225 -3.937,0.6652 -5.9016,1.0206 -1.3211,-0.5473 -1.2081,-2.6289 -0.047,-3.2891 1.0696,-1.0398 0.8568,-3.4033 -0.8382,-3.6322 -0.2749,-0.063 -0.5604,-0.028 -0.8395,-0.036 z"
       style="font-style:normal;font-variant:normal;font-weight:bold;font-stretch:normal;font-size:72px;font-family:'Alex Brush';-inkscape-font-specification:'Alex Brush Bold';fill:#483c2b;fill-opacity:1;stroke:#413727;stroke-width:1.37842441;stroke-miterlimit:4;stroke-dasharray:none;stroke-opacity:1"
       id="path5673"
       inkscape:connector-curvature="0" />
  </g>
  <g
     transform="matrix(0.9760603,0.07264224,-0.49451295,0.68842862,878.12814,1852.7213)"
     style="font-style:normal;font-variant:normal;font-weight:normal;font-stretch:normal;font-size:12px;line-height:125%;font-family:Arial;-inkscape-font-specification:Arial;letter-spacing:0px;word-spacing:0px;fill:#413727;fill-opacity:1;stroke:#483c2b;stroke-width:1.22155571;stroke-miterlimit:4;stroke-dasharray:none;stroke-opacity:1;filter:url(#filter3980)"
     id="flowRoot2995">
    <path
       d="m 953.21289,1634.8242 c -11.86622,1.0164 -23.6778,5.5624 -32.34138,13.8804 -5.15573,5.3389 -8.25945,13.0565 -6.96519,20.4951 1.21218,3.9103 4.6197,6.6919 8.10345,8.5659 3.9964,2.0062 8.58164,2.245 12.95861,1.8323 8.66275,-0.4754 17.06061,-3.1534 24.8949,-6.7737 0.85619,-1.1012 2.47043,1.0509 1.1875,1.5899 -2.80996,4.3961 -5.23771,9.0201 -7.5918,13.6718 -1.21601,0.7953 0.4919,2.9374 1.50977,1.8536 6.64169,-9.2428 13.04016,-18.7126 20.70508,-27.1583 3.87304,0.4629 7.74609,0.9258 11.61914,1.3887 -4.4068,-3.2648 -10.10847,-3.3199 -15.19374,-4.8013 -8.56512,-1.7279 -17.29863,-2.9143 -26.05431,-2.6069 -1.14995,0.3893 -2.38116,0.6896 -3.33398,1.4844 1.3619,2.1951 4.26065,1.988 6.50586,1.998 7.21701,0.5693 14.43316,1.1494 21.64843,1.7403 -10.82744,10.0702 -25.57379,16.3008 -40.47461,15.5527 -4.73734,-0.5062 -9.77878,-2.9898 -11.56934,-7.668 -2.19303,-5.3431 -0.46776,-11.7084 3.43741,-15.8021 10.765,-14.2966 31.35731,-20.3217 48.04014,-13.6666 2.65347,0.8484 5.05887,3.1425 5.25,6.0371 -1.21311,3.3619 -4.91265,4.761 -8.10489,5.5369 -3.36366,0.6135 -6.99087,-0.1742 -9.72714,-2.2459 -1.25899,-1.9293 -0.88458,-4.3293 -1.24805,-6.4961 -0.90033,-1.158 -2.91608,0.3589 -2.21289,1.5742 0.0453,5.7381 6.33048,10.461 11.84766,8.7852 4.20794,-0.4272 8.18904,-2.41 11.2246,-5.3301 1.10971,-4.6658 -2.29729,-9.6973 -6.91015,-10.7344 -5.37223,-2.4431 -11.39361,-2.7533 -17.20508,-2.7031 z"
       style="font-style:normal;font-variant:normal;font-weight:bold;font-stretch:normal;font-size:72px;font-family:'Alex Brush';-inkscape-font-specification:'Alex Brush Bold';fill:#413727;fill-opacity:1;stroke:#483c2b;stroke-width:1.22155571;stroke-miterlimit:4;stroke-dasharray:none;stroke-opacity:1"
       id="path5676"
       inkscape:connector-curvature="0" />
    <path
       d="m 992.93359,1664.1738 c -6.92711,0.9553 -13.12416,5.5283 -16.43945,11.6348 -1.09734,5.1525 4.37152,10.5384 9.50586,8.9648 5.97368,-0.8676 11.11495,-4.3023 15.9922,-7.6347 0.8048,-1.2594 -1.8398,-2.1544 -2.05079,-0.7012 -4.66048,3.8764 -10.43974,7.1206 -16.68946,6.7734 -3.07396,-0.4685 -4.49448,-4.7298 -2.50586,-7.0468 2.70674,-0.6966 5.55597,-0.4369 8.26066,-1.1735 3.43162,-0.6994 7.07834,-1.8967 9.3854,-4.6738 1.41398,-2.3455 -0.1751,-6.0431 -3.06738,-6.1066 -0.78883,-0.1375 -1.59709,-0.1093 -2.39118,-0.036 z m 3.3086,2.2657 c 1.55202,1.1943 0.68296,4.0314 -1.20508,4.3105 -3.55252,1.9295 -7.4487,3.651 -11.57813,3.4922 -0.60588,-1.9931 1.2471,-3.725 2.99805,-4.2695 2.96343,-1.7112 6.10752,-3.4205 9.59375,-3.6368 l 0.19112,0.1034 2.9e-4,2e-4 z"
       style="font-style:normal;font-variant:normal;font-weight:bold;font-stretch:normal;font-size:72px;font-family:'Alex Brush';-inkscape-font-specification:'Alex Brush Bold';fill:#413727;fill-opacity:1;stroke:#483c2b;stroke-width:1.22155571;stroke-miterlimit:4;stroke-dasharray:none;stroke-opacity:1"
       id="path5678"
       inkscape:connector-curvature="0" />
    <path
       d="m 1020.1582,1656.832 c -5.7325,1.9028 -9.532,6.9 -13.2285,11.375 -3.2986,4.1666 -6.4212,8.5821 -8.29493,13.5938 0.23837,5.3061 6.92513,8.9308 11.50783,6.2578 2.9964,-1.1693 5.628,-3.0583 8.2187,-4.9277 1.384,0.1658 0.6429,-2.4613 -0.4375,-1.6524 -3.6397,3.5353 -8.7785,5.9722 -13.9394,5.2559 -2.4819,-1.1394 -2.4545,-4.8511 -0.586,-6.541 5.6683,-7.2507 12.1122,-13.837 18.3985,-20.543 0.7563,-1.1357 -0.2433,-2.9674 -1.6387,-2.8184 z"
       style="font-style:normal;font-variant:normal;font-weight:bold;font-stretch:normal;font-size:72px;font-family:'Alex Brush';-inkscape-font-specification:'Alex Brush Bold';fill:#413727;fill-opacity:1;stroke:#483c2b;stroke-width:1.22155571;stroke-miterlimit:4;stroke-dasharray:none;stroke-opacity:1"
       id="path5680"
       inkscape:connector-curvature="0" />
    <path
       d="m 1030.6816,1672.0371 c -5.2114,2.6608 -9.2119,7.0319 -13.6816,10.7031 0.8349,0.4182 2.5747,1.0007 1.8879,2.2376 -1.7433,2.6115 -0.706,7.0558 2.6274,7.7359 3.185,0.8295 6.0549,-1.3124 8.5507,-2.9844 1.1773,-0.446 1.8749,-1.553 2.7953,-2.2273 1.1081,-0.3179 1.7997,1.2527 1.0469,2.0039 -0.8346,3.4079 2.817,7.2504 6.2598,5.9394 4.5841,-1.8419 7.9196,-5.6308 11.7343,-8.6152 0.6453,-1.3352 -2.0178,-1.894 -2.1484,-0.4922 -2.6355,3.6818 -6.6893,6.0808 -10.9121,7.5254 -2.0797,-0.9458 -1.8347,-4.1555 -0.07,-5.2988 3.1747,-4.079 6.4685,-8.0627 9.7344,-12.0684 0.5393,-2.3157 -3.2008,-3.8079 -4.4004,-1.75 -6.2291,5.698 -11.9708,12.1962 -19.5743,16.123 -1.0646,0.3478 -2.4194,0.4134 -3.246,-0.4765 0.1681,-4.2972 3.4658,-7.46 6.2363,-10.3809 1.9883,-2.11 3.9765,-4.22 5.9648,-6.3301 0.1104,-1.4518 -1.7066,-1.8298 -2.8047,-1.6445 z"
       style="font-style:normal;font-variant:normal;font-weight:bold;font-stretch:normal;font-size:72px;font-family:'Alex Brush';-inkscape-font-specification:'Alex Brush Bold';fill:#413727;fill-opacity:1;stroke:#483c2b;stroke-width:1.22155571;stroke-miterlimit:4;stroke-dasharray:none;stroke-opacity:1"
       id="path5682"
       inkscape:connector-curvature="0" />
    <path
       d="m 1070.1074,1660.0664 c -5.7187,4.1056 -8.4658,10.8216 -12.335,16.4594 -3.3569,5.512 -6.6068,11.0878 -9.8759,16.6519 0.047,1.4634 0.7133,2.9508 1.9531,3.7793 1.6202,-1.9827 2.8068,-4.2634 4.0723,-6.4765 1.3705,-0.572 2.4826,0.942 2.6331,2.1508 2.3384,5.2595 10.0838,7.1714 14.4262,3.2498 3.2942,-2.4765 5.8348,-5.7616 8.4504,-8.9065 -0.3203,-1.3343 -2.609,-0.6157 -2.3105,0.6465 -2.6652,3.9064 -6.4085,7.4372 -11.1484,8.498 -3.3567,-0.2549 -5.5499,-3.4004 -6.4512,-6.373 -0.8227,-1.158 0.3683,-3.2281 1.8262,-2.6348 6.1704,0.7164 13.0124,-2.425 15.4941,-8.3222 1.2661,-3.6142 -2.6581,-7.7961 -6.3435,-6.5385 -2.0333,0.46 -3.7611,1.7101 -5.7229,2.3685 -1.2636,-0.065 -1.0356,-1.7166 -0.4428,-2.4143 2.6853,-3.3925 5.0765,-7.0432 7.3334,-10.736 0.3156,-0.896 -0.7927,-1.5366 -1.5586,-1.4024 z m 2.8184,13.8496 c 1.6953,2.0706 0.5877,5.4862 -1.7832,6.5137 -3.6322,2.9914 -8.3024,4.754 -13.0235,4.7051 -1.2606,-1.2565 -0.3249,-3.3487 1.0758,-4.048 3.6387,-3.7127 8.396,-6.3981 13.5473,-7.2587 l 0.1836,0.088 z"
       style="font-style:normal;font-variant:normal;font-weight:bold;font-stretch:normal;font-size:72px;font-family:'Alex Brush';-inkscape-font-specification:'Alex Brush Bold';fill:#413727;fill-opacity:1;stroke:#483c2b;stroke-width:1.22155571;stroke-miterlimit:4;stroke-dasharray:none;stroke-opacity:1"
       id="path5684"
       inkscape:connector-curvature="0" />
    <path
       d="m 1097.5957,1658.3242 c -5.5041,3.7784 -8.1971,10.1155 -11.4893,15.671 -3.5817,6.4687 -6.8395,13.1092 -10.081,19.7528 -0.082,1.4725 0.4806,3.0198 1.666,3.9395 1.5307,-1.9474 2.5267,-4.2326 3.6426,-6.4258 -0.4386,-1.3128 2.1654,-1.8685 2.1816,-0.4219 1.6851,2.763 3.8765,5.5847 7.125,6.5157 6.5529,-1.374 11.757,-6.265 15.2578,-11.7657 0.9951,0.025 1.4273,-2.4847 0.1422,-1.5894 -2.8034,2.0495 -4.2311,5.4751 -7.161,7.3941 -1.6789,1.4402 -3.5702,2.6086 -5.5202,3.6426 -3.2221,-0.4264 -5.8165,-3.2643 -6.2754,-6.4316 -1.2317,-0.9638 0.046,-3.2888 1.5215,-2.7715 6.5028,0.2118 13.0681,-3.5763 15.8047,-9.5391 0.8472,-4.152 -4.6055,-7.7333 -8.0968,-5.3347 -1.9826,0.9181 -3.9155,1.9378 -5.8603,2.9324 2.0613,-4.659 5.2844,-8.6654 7.9492,-12.9691 0.8407,-0.7178 1.0255,-2.5894 -0.4316,-2.6227 l -0.2169,0.014 -0.1581,0.01 z m 2.3945,13.584 c 1.847,1.7237 1.1104,5.1071 -1.1035,6.1602 -3.655,3.3266 -8.3057,5.559 -13.2031,6.2578 -1.3094,-1.2888 -0.469,-3.5212 0.9414,-4.3672 3.3472,-4.0396 8.0494,-6.9239 13.1621,-8.0938 l 0.2031,0.043 z"
       style="font-style:normal;font-variant:normal;font-weight:bold;font-stretch:normal;font-size:72px;font-family:'Alex Brush';-inkscape-font-specification:'Alex Brush Bold';fill:#413727;fill-opacity:1;stroke:#483c2b;stroke-width:1.22155571;stroke-miterlimit:4;stroke-dasharray:none;stroke-opacity:1"
       id="path5686"
       inkscape:connector-curvature="0" />
    <path
       d="m 1118.8672,1663.4121 c -2.4341,0.3397 -2.1519,4.292 0.064,4.7871 2.1819,0.5804 4.0106,-2.4932 2.4825,-4.125 -0.6755,-0.6272 -1.6658,-0.7435 -2.5469,-0.6621 z m -4.4902,8.6348 c -4.1655,2.0711 -5.8931,6.6785 -7.8658,10.5824 -1.6368,3.4725 -2.9689,7.3625 -2.2436,11.2437 1.1865,2.4756 4.7692,2.5495 6.6584,0.8672 4.6368,-2.6074 7.8964,-6.9339 11.2205,-10.9629 1.5555,-0.5152 -1.0494,-2.3835 -1.1207,-0.7785 -3.1453,4.6863 -7.4363,8.6693 -12.4281,11.3469 -1.9353,-0.096 -2.8348,-2.7972 -1.5977,-4.1797 2.0577,-5.3281 5.489,-9.9451 8.459,-14.7773 1.5664,-0.75 0.7858,-3.9071 -1.082,-3.3418 z"
       style="font-style:normal;font-variant:normal;font-weight:bold;font-stretch:normal;font-size:72px;font-family:'Alex Brush';-inkscape-font-specification:'Alex Brush Bold';fill:#413727;fill-opacity:1;stroke:#483c2b;stroke-width:1.22155571;stroke-miterlimit:4;stroke-dasharray:none;stroke-opacity:1"
       id="path5688"
       inkscape:connector-curvature="0" />
    <path
       d="m 1140.3184,1666.3672 c -5.7073,0.6453 -10.1428,4.8342 -13.6166,9.0896 -3.3256,3.9464 -6.5976,8.6278 -6.4538,14.0178 0.4166,3.5264 5.4808,5.1356 7.8691,2.5037 3.4062,-3.1558 6.3056,-6.8055 9.3106,-10.3338 -3.5979,8.143 -7.0269,16.7421 -13.5879,23.0196 -1.6624,1.361 -3.8845,2.5959 -6.0859,1.8886 -1.0845,-0.8334 -1.7279,-2.1219 -1.9922,-3.4433 -1.614,1.1551 -0.596,3.5282 0.7188,4.4841 2.6054,2.3392 6.8239,1.31 8.9701,-1.1593 5.957,-4.6108 9.0586,-11.6969 12.4676,-18.1914 2.826,-5.7142 5.5669,-11.4698 8.3279,-17.2155 0.3623,-1.2204 -1.064,-2.5006 -2.2383,-2.0117 -1.4302,-0.6068 -1.8603,-2.9237 -3.6894,-2.6484 z m 1.373,2.7832 c 1.2014,0.7539 0.4919,2.4558 -0.3035,3.2469 -4.5911,6.524 -8.1394,14.1242 -14.7902,18.8879 -1.0889,0.7705 -3.2202,0.5243 -3.2388,-1.1148 -0.6585,-3.6998 1.857,-6.8876 3.904,-9.6839 3.4474,-4.6888 7.5742,-9.3086 13.1863,-11.3498 0.3997,-0.058 0.8674,-0.2025 1.2422,0.014 z"
       style="font-style:normal;font-variant:normal;font-weight:bold;font-stretch:normal;font-size:72px;font-family:'Alex Brush';-inkscape-font-specification:'Alex Brush Bold';fill:#413727;fill-opacity:1;stroke:#483c2b;stroke-width:1.22155571;stroke-miterlimit:4;stroke-dasharray:none;stroke-opacity:1"
       id="path5690"
       inkscape:connector-curvature="0" />
  </g>
</svg>
