<?xml version="1.0" encoding="UTF-8" standalone="no"?>
<!-- Created with Inkscape (http://www.inkscape.org/) -->

<svg
   xmlns:dc="http://purl.org/dc/elements/1.1/"
   xmlns:cc="http://creativecommons.org/ns#"
   xmlns:rdf="http://www.w3.org/1999/02/22-rdf-syntax-ns#"
   xmlns:svg="http://www.w3.org/2000/svg"
   xmlns="http://www.w3.org/2000/svg"
   xmlns:xlink="http://www.w3.org/1999/xlink"
   xmlns:sodipodi="http://sodipodi.sourceforge.net/DTD/sodipodi-0.dtd"
   xmlns:inkscape="http://www.inkscape.org/namespaces/inkscape"
   id="svg2"
   version="1.1"
   inkscape:version="0.91 r13725"
   width="2481"
   height="1906"
   sodipodi:docname="Pepper-and-Carrot_by-David-Revoy_E05P04.svg">
  <metadata
     id="metadata8">
    <rdf:RDF>
      <cc:Work
         rdf:about="">
        <dc:format>image/svg+xml</dc:format>
        <dc:type
           rdf:resource="http://purl.org/dc/dcmitype/StillImage" />
        <dc:title />
      </cc:Work>
    </rdf:RDF>
  </metadata>
  <defs
     id="defs6">
    <filter
       id="filter3980"
       style="color-interpolation-filters:sRGB;"
       inkscape:label="Drop Shadow">
      <feFlood
         id="feFlood3982"
         flood-opacity="0.228"
         flood-color="rgb(255,255,255)"
         result="flood" />
      <feComposite
         id="feComposite3984"
         in2="SourceGraphic"
         in="flood"
         operator="in"
         result="composite1" />
      <feGaussianBlur
         id="feGaussianBlur3986"
         in="composite"
         stdDeviation="0.2"
         result="blur" />
      <feOffset
         id="feOffset3988"
         dx="1.2"
         dy="-3.3"
         result="offset" />
      <feComposite
         id="feComposite3990"
         in2="offset"
         in="SourceGraphic"
         operator="over"
         result="composite2" />
    </filter>
  </defs>
  <sodipodi:namedview
     pagecolor="#ffffff"
     bordercolor="#666666"
     borderopacity="1"
     objecttolerance="10"
     gridtolerance="10"
     guidetolerance="10"
     inkscape:pageopacity="0"
     inkscape:pageshadow="2"
     inkscape:window-width="1600"
     inkscape:window-height="876"
     id="namedview4"
     showgrid="false"
     inkscape:zoom="0.43016841"
     inkscape:cx="1154.6408"
     inkscape:cy="734.99762"
     inkscape:window-x="1276"
     inkscape:window-y="121"
     inkscape:window-maximized="1"
     inkscape:current-layer="svg2" />
  <image
     sodipodi:absref="/home/willem/Git/peppercarrot_ep05_translation/nl/../gfx_Pepper-and-Carrot_by-David-Revoy_E05P04.png"
     xlink:href="../gfx_Pepper-and-Carrot_by-David-Revoy_E05P04.png"
     y="0"
     x="0"
     id="image10"
     height="1906"
     width="2481" />
  <g
     transform="matrix(0.95112257,-0.14803231,-0.24361406,0.77336902,706.95467,379.32098)"
     style="font-style:normal;font-variant:normal;font-weight:normal;font-stretch:normal;font-size:12px;line-height:125%;font-family:Arial;-inkscape-font-specification:Arial;letter-spacing:0px;word-spacing:0px;fill:#483c2b;fill-opacity:1;stroke:#413727;stroke-width:1.37842441;stroke-miterlimit:4;stroke-dasharray:none;stroke-opacity:1;filter:url(#filter3980)"
     id="flowRoot2987">
    <path
       d="M 1025.457 1634.5996 C 1016.0207 1635.2139 1007.2213 1639.4387 999.5918 1644.8164 C 989.65096 1651.6104 979.72605 1658.4316 969.61328 1664.9688 C 968.6515 1666.7907 965.41542 1665.3747 965.99805 1663.4395 C 965.97563 1659.8133 968.61492 1657.0427 970.38867 1654.125 C 973.40624 1649.2 976.10608 1644.0653 978.19336 1638.6738 C 977.39183 1636.9902 974.94109 1636.6979 973.56641 1637.832 C 966.78024 1640.079 959.72657 1642.465 954.38867 1647.4297 C 953.25918 1648.8784 952.51594 1650.7546 952.84375 1652.6094 C 954.42886 1653.7284 956.41066 1653.9795 958.29492 1654.127 C 958.09847 1652.2567 955.29267 1652.4443 955.08008 1650.584 C 954.78506 1648.476 956.6963 1647.0092 958.26758 1646 C 962.39393 1642.9736 967.22398 1641.1592 971.91016 1639.2051 C 972.82742 1637.9154 975.03287 1639.8021 973.92773 1640.918 C 970.77913 1646.8226 967.34698 1652.5696 963.89258 1658.2988 C 959.51263 1656.354 953.73215 1659.833 953.54297 1664.6582 C 953.52531 1666.2688 954.28418 1667.7365 954.99609 1669.1348 C 948.52473 1675.473 940.72175 1680.7741 931.83789 1682.9707 C 925.69197 1683.4226 919.58379 1678.1152 919.65039 1671.8555 C 919.88574 1663.7776 928.06267 1656.9307 936.06151 1658.2295 C 938.1238 1658.5396 939.97745 1659.6779 941.43945 1661.1309 C 941.05667 1662.4298 943.71485 1662.4617 943.35352 1661.1699 C 941.54822 1657.4568 937.09155 1655.8215 933.16449 1656.2367 C 927.98959 1656.6015 922.79393 1658.8355 919.56304 1663.0007 C 916.9966 1666.1779 915.79105 1670.5957 917.083 1674.5534 C 918.58887 1679.8182 923.47762 1684.1291 929.04166 1684.3562 C 937.16542 1685.3687 945.32819 1682.0644 951.44278 1676.8329 C 954.53214 1674.2891 957.58847 1671.3731 961.57227 1670.3438 C 963.23538 1669.1481 965.94089 1670.1462 966.38867 1672.1562 C 969.82675 1678.7218 973.71756 1685.1983 979.18982 1690.2875 C 982.28844 1693.2319 985.82797 1695.8995 989.9207 1697.2546 C 993.04713 1697.8093 996.35138 1696.9101 998.87695 1695.0156 C 999.66045 1693.445 999.83179 1691.4678 998.92383 1689.9102 C 997.71106 1690.0478 996.96378 1691.507 997.40039 1692.6074 C 996.4308 1695.137 992.81421 1695.8374 990.79492 1694.1562 C 983.38585 1690.8572 977.87178 1684.5268 973.52742 1677.8561 C 971.67705 1675.0434 969.92784 1672.1662 968.14844 1669.3086 C 968.3441 1667.3469 970.41407 1666.534 971.94727 1665.7754 C 985.52138 1657.7398 998.08721 1647.89 1012.6484 1641.6074 C 1018.0235 1639.1172 1023.9187 1638.0215 1029.7773 1637.4297 C 1030.3648 1638.8544 1032.8941 1637.7569 1032.2754 1636.3574 C 1030.6987 1634.2634 1027.7683 1634.5323 1025.457 1634.5996 z M 960.66406 1660.8535 C 961.29303 1662.3184 960.11433 1663.7763 959.00195 1664.6152 C 959.15773 1665.8648 956.75858 1666.2838 956.75781 1664.8906 C 956.54997 1662.7762 958.36091 1660.6074 960.53516 1660.6758 L 960.66348 1660.8527 L 960.66406 1660.8535 z M 963.6543 1665.5 C 965.03932 1666.4279 963.61085 1668.9907 962.0957 1668.2559 C 961.38596 1667.1664 962.29639 1665.6682 963.46484 1665.3965 L 963.6543 1665.5 z "
       style="font-style:normal;font-variant:normal;font-weight:bold;font-stretch:normal;font-size:72px;font-family:'Alex Brush';-inkscape-font-specification:'Alex Brush Bold';fill:#483c2b;fill-opacity:1;stroke:#413727;stroke-width:1.37842441;stroke-miterlimit:4;stroke-dasharray:none;stroke-opacity:1"
       id="path5655" />
    <path
       d="M 1000.2715 1665.6426 C 992.21678 1667.317 985.15878 1673.137 982.00781 1680.7402 C 981.03392 1684.3885 984.05958 1688.4727 987.85342 1688.5364 C 991.67694 1689.0943 995.2179 1686.9803 998.16281 1684.7898 C 1001.6295 1682.421 1004.616 1679.4309 1007.3848 1676.293 C 1006.1754 1675.4288 1004.5588 1676.4578 1004.0859 1677.6758 C 1000.1661 1682.3927 994.80749 1685.9849 988.82422 1687.4512 C 985.55453 1687.0849 983.89624 1682.4163 986.26758 1680.1055 C 990.9339 1678.979 996.02493 1678.1875 999.72656 1674.8613 C 1001.6527 1673.187 1003.6746 1671.086 1003.7422 1668.373 C 1003.2611 1666.9079 1001.9142 1665.5289 1000.2715 1665.6426 z M 1001.0918 1667.8008 C 1002.3829 1669.4511 1001.2418 1671.9024 999.51953 1672.7305 C 996.53818 1675.6108 992.63998 1677.477 988.56445 1678.168 C 988.06355 1676.1706 989.77969 1674.5793 991.21484 1673.4922 C 994.08463 1671.0817 997.15544 1668.6392 1000.8789 1667.7559 L 1001.0918 1667.8008 z "
       style="font-style:normal;font-variant:normal;font-weight:bold;font-stretch:normal;font-size:72px;font-family:'Alex Brush';-inkscape-font-specification:'Alex Brush Bold';fill:#483c2b;fill-opacity:1;stroke:#413727;stroke-width:1.37842441;stroke-miterlimit:4;stroke-dasharray:none;stroke-opacity:1"
       id="path5657" />
    <path
       d="M 1017.8398 1659.4941 C 1014.6152 1661.5869 1013.7397 1665.5698 1011.7754 1668.6367 C 1009.0227 1672.3512 1006.0789 1675.9175 1003.123 1679.4707 C 1004.8912 1679.8871 1006.1682 1678.2224 1007.0488 1676.9453 C 1009.479 1673.9532 1011.9768 1671.0169 1014.457 1668.0664 C 1015.2886 1669.4545 1016.7624 1670.6705 1018.4609 1670.5762 C 1015.191 1674.9291 1012.982 1680.3115 1013.291 1685.8281 C 1014.9553 1689.2818 1019.8212 1690.4917 1022.9941 1688.4219 C 1028.0876 1686.409 1032.0838 1682.4997 1035.791 1678.5957 C 1034.8901 1677.6935 1033.2695 1678.405 1032.9219 1679.5176 C 1029.4165 1683.9725 1024.1119 1686.9717 1018.4766 1687.627 C 1015.9761 1687.0744 1014.8811 1683.6308 1016.4473 1681.6602 C 1018.6355 1676.759 1022.6244 1673.0269 1025.582 1668.6211 C 1025.9205 1667.0911 1023.6631 1665.9269 1022.584 1667.0332 C 1020.8857 1667.8719 1018.912 1668.9339 1016.9922 1668.1641 C 1016.0689 1666.8432 1017.1416 1665.248 1018.1211 1664.3086 C 1019.1633 1663.2064 1019.8171 1661.5465 1019.2637 1660.0605 C 1018.8335 1659.7954 1018.3922 1659.3562 1017.8398 1659.4941 z "
       style="font-style:normal;font-variant:normal;font-weight:bold;font-stretch:normal;font-size:72px;font-family:'Alex Brush';-inkscape-font-specification:'Alex Brush Bold';fill:#483c2b;fill-opacity:1;stroke:#413727;stroke-width:1.37842441;stroke-miterlimit:4;stroke-dasharray:none;stroke-opacity:1"
       id="path5659" />
    <path
       d="M 1053.6113 1660.3242 C 1047.2279 1665.1332 1042.062 1671.293 1036.2356 1676.719 C 1034.7319 1678.2586 1033.2283 1679.7983 1031.7246 1681.3379 C 1033.0095 1681.7624 1034.7112 1682.4453 1034.7969 1684.0195 C 1036.0656 1688.5588 1042.0123 1691.054 1046.1016 1688.6484 C 1051.5907 1686.5286 1057.4152 1684.3431 1061.375 1679.7734 C 1062.0896 1679.0887 1063.484 1678.1718 1062.7664 1677.031 C 1061.5594 1676.4253 1060.9698 1678.0636 1060.4395 1678.8516 C 1058.3805 1681.2473 1055.7894 1683.2369 1052.7988 1684.3105 C 1052.0458 1685.5182 1049.7631 1684.3761 1050.3574 1683.0508 C 1051.8459 1676.3415 1052.3327 1669.1829 1055.9511 1663.1626 C 1056.667 1662.0733 1056.8609 1660.1344 1055.5039 1659.4609 C 1054.726 1659.1507 1054.2286 1660.0073 1053.6113 1660.3242 z M 1050.248 1667.6133 C 1049.4237 1673.3577 1048.8394 1679.2924 1046.2383 1684.5703 C 1043.3164 1687.1434 1038.1464 1685.2328 1037.1777 1681.582 C 1036.8479 1679.4388 1038.2172 1677.5118 1039.4167 1675.8751 C 1041.7977 1672.966 1044.729 1670.5768 1047.3998 1667.946 C 1048.4351 1666.9803 1049.4705 1666.0145 1050.5059 1665.0488 C 1050.4199 1665.9036 1050.334 1666.7585 1050.248 1667.6133 z "
       style="font-style:normal;font-variant:normal;font-weight:bold;font-stretch:normal;font-size:72px;font-family:'Alex Brush';-inkscape-font-specification:'Alex Brush Bold';fill:#483c2b;fill-opacity:1;stroke:#413727;stroke-width:1.37842441;stroke-miterlimit:4;stroke-dasharray:none;stroke-opacity:1"
       id="path5661" />
    <path
       d="M 1074.9414 1657.4277 C 1073.1847 1658.2267 1072.03 1659.9227 1070.7811 1661.3374 C 1069.5216 1662.8284 1068.0493 1664.4389 1065.9961 1664.666 C 1064.7087 1664.9975 1063.4254 1665.4581 1062.3633 1666.2793 C 1062.1405 1667.4628 1063.4183 1668.6323 1064.5781 1668.2988 C 1065.6247 1670.429 1064.1469 1672.6045 1063.2564 1674.4953 C 1061.6008 1678.206 1060.2097 1682.0961 1059.8125 1686.1641 C 1061.4859 1689.3824 1066.0117 1690.5203 1069.0781 1688.6543 C 1074.8629 1686.4062 1079.8952 1682.3997 1083.5996 1677.4414 C 1083.3484 1676.1543 1081.0781 1676.459 1081.1465 1677.7617 C 1077.7219 1683.1548 1071.7554 1686.5195 1065.5801 1687.7188 C 1063.0628 1687.8271 1061.5041 1684.5245 1062.8457 1682.5117 C 1065.1034 1678.0818 1067.4321 1673.6873 1069.8906 1669.3652 C 1074.673 1666.9891 1079.9433 1665.9245 1085.0645 1664.5449 C 1086.3364 1665.1034 1086.3763 1662.5113 1085.1328 1662.793 C 1082.2207 1663.7287 1079.0898 1663.5515 1076.127 1664.2266 C 1074.6172 1664.0621 1074.8514 1662.0013 1075.8586 1661.3031 C 1076.8265 1660.4867 1076.9064 1659.0482 1076.1309 1658.0762 C 1075.8452 1657.7153 1075.4392 1657.3558 1074.9414 1657.4277 z "
       style="font-style:normal;font-variant:normal;font-weight:bold;font-stretch:normal;font-size:72px;font-family:'Alex Brush';-inkscape-font-specification:'Alex Brush Bold';fill:#483c2b;fill-opacity:1;stroke:#413727;stroke-width:1.37842441;stroke-miterlimit:4;stroke-dasharray:none;stroke-opacity:1"
       id="path5663" />
    <path
       d="M 1106.8086 1643.8516 C 1103.5613 1644.1588 1101.2032 1646.7652 1099.3586 1649.2175 C 1096.693 1653.0307 1095.2938 1657.5235 1093.1426 1661.6152 C 1091.603 1663.2828 1089.1421 1662.8868 1087.1168 1663.2885 C 1086.1067 1663.3978 1084.5253 1663.4727 1084.3477 1664.748 C 1084.4004 1666.1065 1086.0408 1666.5033 1087.144 1666.2872 C 1088.268 1666.2754 1089.4028 1666.0471 1090.5195 1666.2715 C 1091.705 1667.1899 1090.3514 1668.5486 1090.0722 1669.587 C 1086.4113 1679.119 1082.9216 1688.8486 1077.2578 1697.4199 C 1075.5308 1699.2297 1073.281 1700.5047 1070.9556 1701.3762 C 1069.8355 1701.6637 1068.4383 1702.3649 1067.5254 1701.2988 C 1066.5838 1700.7771 1065.9799 1699.0049 1065.2963 1698.8419 C 1063.9902 1700.5289 1065.4969 1703.1522 1067.5116 1703.3126 C 1071.5222 1704.6517 1075.9794 1702.4175 1078.1823 1698.9988 C 1084.7901 1690.6764 1088.5345 1680.6198 1093.0117 1671.0977 C 1093.9623 1668.8633 1094.7406 1666.095 1097.1871 1665.0573 C 1099.9996 1663.6942 1103.0607 1662.9531 1105.9168 1661.6903 C 1106.5554 1661.4676 1108.9291 1660.6863 1107.0812 1660.8717 C 1104.2863 1660.981 1101.5265 1661.4716 1098.7656 1661.8867 C 1097.429 1661.5833 1097.4226 1659.7158 1098.2109 1658.8594 C 1100.3743 1655.4579 1101.9129 1651.5884 1104.832 1648.7227 C 1106.0068 1648.0827 1107.4292 1648.37 1108.5859 1648.9023 C 1110.0791 1649.0732 1110.7743 1647.1032 1110.1523 1645.9629 C 1109.698 1644.5848 1108.2425 1643.6882 1106.8086 1643.8516 z "
       style="font-style:normal;font-variant:normal;font-weight:bold;font-stretch:normal;font-size:72px;font-family:'Alex Brush';-inkscape-font-specification:'Alex Brush Bold';fill:#483c2b;fill-opacity:1;stroke:#413727;stroke-width:1.37842441;stroke-miterlimit:4;stroke-dasharray:none;stroke-opacity:1"
       id="path5665" />
    <path
       d="M 1115.4492 1659.7695 C 1107.1592 1663.4489 1100.5198 1670.7514 1097.7876 1679.4124 C 1097.2076 1681.5855 1097.4248 1684.4023 1099.5049 1685.7168 C 1102.38 1687.7666 1106.5772 1687.1037 1109.0238 1684.6791 C 1114.0802 1681.0687 1117.8189 1676.0193 1121.5625 1671.1426 C 1121.788 1669.6747 1119.3916 1670.2732 1119.3067 1671.4037 C 1116.0459 1677.4214 1110.7344 1682.1214 1104.8574 1685.5117 C 1101.732 1685.8371 1099.2482 1681.5631 1101.3535 1679.1152 C 1104.3064 1676.5374 1108.1757 1675.3689 1111.3179 1673.0597 C 1113.8228 1671.3115 1115.5318 1668.6897 1117.1094 1666.1289 C 1117.5798 1665.0227 1118.6749 1663.9876 1118.37 1662.7172 C 1118.1637 1661.2632 1117.1125 1659.6127 1115.4492 1659.7695 z M 1115.8457 1662.125 C 1116.7202 1664.7949 1115.0723 1667.5196 1113.0957 1669.2168 C 1110.3378 1671.8192 1107.1894 1673.9932 1103.8145 1675.7168 C 1104.0994 1672.1205 1106.8764 1669.4978 1109.1953 1667.0137 C 1111.1662 1665.0868 1113.358 1663.3892 1115.709 1661.9512 L 1115.8441 1662.123 L 1115.8457 1662.125 z "
       style="font-style:normal;font-variant:normal;font-weight:bold;font-stretch:normal;font-size:72px;font-family:'Alex Brush';-inkscape-font-specification:'Alex Brush Bold';fill:#483c2b;fill-opacity:1;stroke:#413727;stroke-width:1.37842441;stroke-miterlimit:4;stroke-dasharray:none;stroke-opacity:1"
       id="path5667" />
    <path
       d="M 1133.7695 1656.0293 C 1125.8772 1660.0181 1120.0896 1667.4959 1117.2363 1675.7754 C 1116.6841 1677.6985 1116.4337 1679.7142 1116.5742 1681.7129 C 1119.3587 1685.09 1125.1778 1685.2112 1128.0242 1681.8464 C 1132.8528 1677.586 1136.7547 1672.409 1140.3828 1667.1211 C 1139.6475 1666.027 1137.872 1666.9491 1137.8438 1668.1074 C 1136.2334 1671.5978 1133.5665 1674.448 1130.9707 1677.2266 C 1128.9091 1679.2474 1126.6364 1681.0472 1124.2227 1682.6289 C 1121.4997 1683.4741 1118.4035 1680.2503 1119.7305 1677.6055 C 1121.064 1674.6388 1124.3603 1673.56 1126.916 1671.9297 C 1131.6861 1669.0695 1135.3067 1664.4664 1137.2363 1659.2734 C 1136.7862 1657.8811 1136.2135 1655.9012 1134.4578 1655.8009 C 1134.2161 1655.7673 1133.9989 1655.9752 1133.7695 1656.0293 z M 1134.7871 1658.1426 C 1135.1587 1661.9165 1132.6712 1665.2116 1130.0047 1667.5933 C 1127.8092 1669.6075 1125.317 1671.2722 1122.7285 1672.7363 C 1123.7371 1668.044 1127.2413 1664.5185 1130.3516 1661.0879 C 1131.7202 1659.9836 1133.1826 1659.0053 1134.625 1658.002 L 1134.7871 1658.1426 z "
       style="font-style:normal;font-variant:normal;font-weight:bold;font-stretch:normal;font-size:72px;font-family:'Alex Brush';-inkscape-font-specification:'Alex Brush Bold';fill:#483c2b;fill-opacity:1;stroke:#413727;stroke-width:1.37842441;stroke-miterlimit:4;stroke-dasharray:none;stroke-opacity:1"
       id="path5669" />
    <path
       d="M 1156.791 1643.7422 C 1150.1699 1650.0093 1145.9033 1658.1799 1140.6161 1665.501 C 1139.1165 1667.6576 1137.6168 1669.8141 1136.1172 1671.9707 C 1137.8867 1672.7992 1139.1354 1674.4764 1139.7344 1676.3047 C 1142.1808 1679.4782 1147.4384 1679.8403 1150.2491 1676.9548 C 1155.3856 1673.1213 1160.593 1669.0997 1164.1328 1663.6621 C 1163.9674 1662.2882 1161.9252 1663.1994 1162.0566 1664.2793 C 1161.5105 1665.6037 1160.3775 1666.5712 1159.5145 1667.6875 C 1158.3245 1669.0338 1156.9938 1670.2586 1155.5312 1671.3047 C 1154.2932 1671.6097 1153.0335 1670.0733 1153.6855 1668.9395 C 1154.8569 1660.9863 1155.7891 1652.957 1158.0137 1645.209 C 1158.0434 1644.5336 1157.5936 1643.6084 1156.791 1643.7422 z M 1152.6875 1650.4258 C 1152.5016 1657.929 1151.5863 1665.4298 1149.6914 1672.6992 C 1148.3795 1674.7996 1145.3567 1674.7223 1143.3858 1673.6794 C 1142.4779 1673.2029 1141.6941 1672.4658 1141.2305 1671.5449 C 1141.4471 1666.3856 1144.5067 1661.9884 1147.332 1657.8828 C 1149.0937 1655.3906 1150.8555 1652.8984 1152.6172 1650.4062 L 1152.6875 1650.4258 z "
       style="font-style:normal;font-variant:normal;font-weight:bold;font-stretch:normal;font-size:72px;font-family:'Alex Brush';-inkscape-font-specification:'Alex Brush Bold';fill:#483c2b;fill-opacity:1;stroke:#413727;stroke-width:1.37842441;stroke-miterlimit:4;stroke-dasharray:none;stroke-opacity:1"
       id="path5671" />
    <path
       d="M 1174.0918 1639.1602 C 1172.1285 1641.2639 1171.1568 1644.0435 1169.459 1646.3359 C 1167.5784 1647.37 1165.1115 1647.5361 1163.7734 1649.3965 C 1163.3476 1650.6743 1164.8959 1651.4107 1165.9336 1651.5586 C 1167.0427 1652.5206 1166.1766 1654.0718 1165.9109 1655.2244 C 1164.3658 1660.6332 1162.5022 1666.1017 1162.666 1671.8008 C 1163.2936 1674.6176 1167.108 1675.6303 1169.3455 1674.0587 C 1174.4441 1671.2773 1178.7743 1667.1892 1181.9588 1662.3414 C 1182.7279 1661.2297 1183.3933 1660.0524 1184.082 1658.8906 C 1182.944 1658.096 1181.7483 1659.4268 1181.381 1660.4456 C 1178.7655 1665.6028 1174.1576 1669.449 1169.2188 1672.2891 C 1167.945 1672.9525 1166.1222 1672.8118 1165.3848 1671.4316 C 1164.6709 1670.3345 1164.8254 1668.9308 1165.3492 1667.7961 C 1166.7057 1662.2463 1168.7092 1656.8645 1171.2012 1651.7266 C 1174.1606 1648.6254 1178.6099 1648.087 1182.4167 1646.5668 C 1183.8162 1646.0647 1185.2157 1645.5626 1186.6152 1645.0605 C 1185.1327 1643.9928 1183.3343 1645.0909 1181.718 1645.0966 C 1179.7478 1645.4191 1177.781 1645.7618 1175.8164 1646.1172 C 1174.4953 1645.5699 1174.6083 1643.4883 1175.7695 1642.8281 C 1176.8391 1641.7883 1176.6263 1639.4248 1174.9313 1639.1959 C 1174.6564 1639.1331 1174.3709 1639.1676 1174.0918 1639.1602 z "
       style="font-style:normal;font-variant:normal;font-weight:bold;font-stretch:normal;font-size:72px;font-family:'Alex Brush';-inkscape-font-specification:'Alex Brush Bold';fill:#483c2b;fill-opacity:1;stroke:#413727;stroke-width:1.37842441;stroke-miterlimit:4;stroke-dasharray:none;stroke-opacity:1"
       id="path5673" />
  </g>
  <g
     transform="matrix(0.9760603,0.07264224,-0.49451295,0.68842862,867.52154,286.47978)"
     style="font-style:normal;font-variant:normal;font-weight:normal;font-stretch:normal;font-size:12px;line-height:125%;font-family:Arial;-inkscape-font-specification:Arial;letter-spacing:0px;word-spacing:0px;fill:#413727;fill-opacity:1;stroke:#483c2b;stroke-width:1.22155571;stroke-miterlimit:4;stroke-dasharray:none;stroke-opacity:1;filter:url(#filter3980)"
     id="flowRoot2995">
    <path
       d="M 953.21289 1634.8242 C 941.34667 1635.8406 929.53509 1640.3866 920.87151 1648.7046 C 915.71578 1654.0435 912.61206 1661.7611 913.90632 1669.1997 C 915.1185 1673.11 918.52602 1675.8916 922.00977 1677.7656 C 926.00617 1679.7718 930.59141 1680.0106 934.96838 1679.5979 C 943.63113 1679.1225 952.02899 1676.4445 959.86328 1672.8242 C 960.71947 1671.723 962.33371 1673.8751 961.05078 1674.4141 C 958.24082 1678.8102 955.81307 1683.4342 953.45898 1688.0859 C 952.24297 1688.8812 953.95088 1691.0233 954.96875 1689.9395 C 961.61044 1680.6967 968.00891 1671.2269 975.67383 1662.7812 C 979.54687 1663.2441 983.41992 1663.707 987.29297 1664.1699 C 982.88617 1660.9051 977.1845 1660.85 972.09923 1659.3686 C 963.53411 1657.6407 954.8006 1656.4543 946.04492 1656.7617 C 944.89497 1657.151 943.66376 1657.4513 942.71094 1658.2461 C 944.07284 1660.4412 946.97159 1660.2341 949.2168 1660.2441 C 956.43381 1660.8134 963.64996 1661.3935 970.86523 1661.9844 C 960.03779 1672.0546 945.29144 1678.2852 930.39062 1677.5371 C 925.65328 1677.0309 920.61184 1674.5473 918.82128 1669.8691 C 916.62825 1664.526 918.35352 1658.1607 922.25869 1654.067 C 933.02369 1639.7704 953.616 1633.7453 970.29883 1640.4004 C 972.9523 1641.2488 975.3577 1643.5429 975.54883 1646.4375 C 974.33572 1649.7994 970.63618 1651.1985 967.44394 1651.9744 C 964.08028 1652.5879 960.45307 1651.8002 957.7168 1649.7285 C 956.45781 1647.7992 956.83222 1645.3992 956.46875 1643.2324 C 955.56842 1642.0744 953.55267 1643.5913 954.25586 1644.8066 C 954.30116 1650.5447 960.58634 1655.2676 966.10352 1653.5918 C 970.31146 1653.1646 974.29256 1651.1818 977.32812 1648.2617 C 978.43783 1643.5959 975.03083 1638.5644 970.41797 1637.5273 C 965.04574 1635.0842 959.02436 1634.774 953.21289 1634.8242 z "
       style="font-style:normal;font-variant:normal;font-weight:bold;font-stretch:normal;font-size:72px;font-family:'Alex Brush';-inkscape-font-specification:'Alex Brush Bold';fill:#413727;fill-opacity:1;stroke:#483c2b;stroke-width:1.22155571;stroke-miterlimit:4;stroke-dasharray:none;stroke-opacity:1"
       id="path5676" />
    <path
       d="M 992.93359 1664.1738 C 986.00648 1665.1291 979.80943 1669.7021 976.49414 1675.8086 C 975.3968 1680.9611 980.86566 1686.347 986 1684.7734 C 991.97368 1683.9058 997.11495 1680.4711 1001.9922 1677.1387 C 1002.797 1675.8793 1000.1524 1674.9843 999.94141 1676.4375 C 995.28093 1680.3139 989.50167 1683.5581 983.25195 1683.2109 C 980.17799 1682.7424 978.75747 1678.4811 980.74609 1676.1641 C 983.45283 1675.4675 986.30206 1675.7272 989.00675 1674.9906 C 992.43837 1674.2912 996.08509 1673.0939 998.39215 1670.3168 C 999.80613 1667.9713 998.21705 1664.2737 995.32477 1664.2102 C 994.53594 1664.0727 993.72768 1664.1009 992.93359 1664.1738 z M 996.24219 1666.4395 C 997.79421 1667.6338 996.92515 1670.4709 995.03711 1670.75 C 991.48459 1672.6795 987.58841 1674.401 983.45898 1674.2422 C 982.8531 1672.2491 984.70608 1670.5172 986.45703 1669.9727 C 989.42046 1668.2615 992.56455 1666.5522 996.05078 1666.3359 L 996.2419 1666.4393 L 996.24219 1666.4395 z "
       style="font-style:normal;font-variant:normal;font-weight:bold;font-stretch:normal;font-size:72px;font-family:'Alex Brush';-inkscape-font-specification:'Alex Brush Bold';fill:#413727;fill-opacity:1;stroke:#483c2b;stroke-width:1.22155571;stroke-miterlimit:4;stroke-dasharray:none;stroke-opacity:1"
       id="path5678" />
    <path
       d="M 1020.1582 1656.832 C 1014.4257 1658.7348 1010.6262 1663.732 1006.9297 1668.207 C 1003.6311 1672.3736 1000.5085 1676.7891 998.63477 1681.8008 C 998.87314 1687.1069 1005.5599 1690.7316 1010.1426 1688.0586 C 1013.139 1686.8893 1015.7706 1685.0003 1018.3613 1683.1309 C 1019.7453 1683.2967 1019.0042 1680.6696 1017.9238 1681.4785 C 1014.2841 1685.0138 1009.1453 1687.4507 1003.9844 1686.7344 C 1001.5025 1685.595 1001.5299 1681.8833 1003.3984 1680.1934 C 1009.0667 1672.9427 1015.5106 1666.3564 1021.7969 1659.6504 C 1022.5532 1658.5147 1021.5536 1656.683 1020.1582 1656.832 z "
       style="font-style:normal;font-variant:normal;font-weight:bold;font-stretch:normal;font-size:72px;font-family:'Alex Brush';-inkscape-font-specification:'Alex Brush Bold';fill:#413727;fill-opacity:1;stroke:#483c2b;stroke-width:1.22155571;stroke-miterlimit:4;stroke-dasharray:none;stroke-opacity:1"
       id="path5680" />
    <path
       d="M 1030.6816 1672.0371 C 1025.4702 1674.6979 1021.4697 1679.069 1017 1682.7402 C 1017.8349 1683.1584 1019.5747 1683.7409 1018.8879 1684.9778 C 1017.1446 1687.5893 1018.1819 1692.0336 1021.5153 1692.7137 C 1024.7003 1693.5432 1027.5702 1691.4013 1030.066 1689.7293 C 1031.2433 1689.2833 1031.9409 1688.1763 1032.8613 1687.502 C 1033.9694 1687.1841 1034.661 1688.7547 1033.9082 1689.5059 C 1033.0736 1692.9138 1036.7252 1696.7563 1040.168 1695.4453 C 1044.7521 1693.6034 1048.0876 1689.8145 1051.9023 1686.8301 C 1052.5476 1685.4949 1049.8845 1684.9361 1049.7539 1686.3379 C 1047.1184 1690.0197 1043.0646 1692.4187 1038.8418 1693.8633 C 1036.7621 1692.9175 1037.0071 1689.7078 1038.7715 1688.5645 C 1041.9462 1684.4855 1045.24 1680.5018 1048.5059 1676.4961 C 1049.0452 1674.1804 1045.3051 1672.6882 1044.1055 1674.7461 C 1037.8764 1680.4441 1032.1347 1686.9423 1024.5312 1690.8691 C 1023.4666 1691.2169 1022.1118 1691.2825 1021.2852 1690.3926 C 1021.4533 1686.0954 1024.751 1682.9326 1027.5215 1680.0117 C 1029.5098 1677.9017 1031.498 1675.7917 1033.4863 1673.6816 C 1033.5967 1672.2298 1031.7797 1671.8518 1030.6816 1672.0371 z "
       style="font-style:normal;font-variant:normal;font-weight:bold;font-stretch:normal;font-size:72px;font-family:'Alex Brush';-inkscape-font-specification:'Alex Brush Bold';fill:#413727;fill-opacity:1;stroke:#483c2b;stroke-width:1.22155571;stroke-miterlimit:4;stroke-dasharray:none;stroke-opacity:1"
       id="path5682" />
    <path
       d="M 1070.1074 1660.0664 C 1064.3887 1664.172 1061.6416 1670.888 1057.7724 1676.5258 C 1054.4155 1682.0378 1051.1656 1687.6136 1047.8965 1693.1777 C 1047.9431 1694.6411 1048.6098 1696.1285 1049.8496 1696.957 C 1051.4698 1694.9743 1052.6564 1692.6936 1053.9219 1690.4805 C 1055.2924 1689.9085 1056.4045 1691.4225 1056.555 1692.6313 C 1058.8934 1697.8908 1066.6388 1699.8027 1070.9812 1695.8811 C 1074.2754 1693.4046 1076.816 1690.1195 1079.4316 1686.9746 C 1079.1113 1685.6403 1076.8226 1686.3589 1077.1211 1687.6211 C 1074.4559 1691.5275 1070.7126 1695.0583 1065.9727 1696.1191 C 1062.616 1695.8642 1060.4228 1692.7187 1059.5215 1689.7461 C 1058.6988 1688.5881 1059.8898 1686.518 1061.3477 1687.1113 C 1067.5181 1687.8277 1074.3601 1684.6863 1076.8418 1678.7891 C 1078.1079 1675.1749 1074.1837 1670.993 1070.4983 1672.2506 C 1068.465 1672.7106 1066.7372 1673.9607 1064.7754 1674.6191 C 1063.5118 1674.5541 1063.7398 1672.9025 1064.3326 1672.2048 C 1067.0179 1668.8123 1069.4091 1665.1616 1071.666 1661.4688 C 1071.9816 1660.5728 1070.8733 1659.9322 1070.1074 1660.0664 z M 1072.9258 1673.916 C 1074.6211 1675.9866 1073.5135 1679.4022 1071.1426 1680.4297 C 1067.5104 1683.4211 1062.8402 1685.1837 1058.1191 1685.1348 C 1056.8585 1683.8783 1057.7942 1681.7861 1059.1949 1681.0868 C 1062.8336 1677.3741 1067.5909 1674.6887 1072.7422 1673.8281 L 1072.9258 1673.916 z "
       style="font-style:normal;font-variant:normal;font-weight:bold;font-stretch:normal;font-size:72px;font-family:'Alex Brush';-inkscape-font-specification:'Alex Brush Bold';fill:#413727;fill-opacity:1;stroke:#483c2b;stroke-width:1.22155571;stroke-miterlimit:4;stroke-dasharray:none;stroke-opacity:1"
       id="path5684" />
    <path
       d="M 1097.5957 1658.3242 C 1092.0916 1662.1026 1089.3986 1668.4397 1086.1064 1673.9952 C 1082.5247 1680.4639 1079.2669 1687.1044 1076.0254 1693.748 C 1075.9437 1695.2205 1076.506 1696.7678 1077.6914 1697.6875 C 1079.2221 1695.7401 1080.2181 1693.4549 1081.334 1691.2617 C 1080.8954 1689.9489 1083.4994 1689.3932 1083.5156 1690.8398 C 1085.2007 1693.6028 1087.3921 1696.4245 1090.6406 1697.3555 C 1097.1935 1695.9815 1102.3976 1691.0905 1105.8984 1685.5898 C 1106.8935 1685.6145 1107.3257 1683.1051 1106.0406 1684.0004 C 1103.2372 1686.0499 1101.8095 1689.4755 1098.8796 1691.3945 C 1097.2007 1692.8347 1095.3094 1694.0031 1093.3594 1695.0371 C 1090.1373 1694.6107 1087.5429 1691.7728 1087.084 1688.6055 C 1085.8523 1687.6417 1087.1305 1685.3167 1088.6055 1685.834 C 1095.1083 1686.0458 1101.6736 1682.2577 1104.4102 1676.2949 C 1105.2574 1672.1429 1099.8047 1668.5616 1096.3134 1670.9602 C 1094.3308 1671.8783 1092.3979 1672.898 1090.4531 1673.8926 C 1092.5144 1669.2336 1095.7375 1665.2272 1098.4023 1660.9235 C 1099.243 1660.2057 1099.4278 1658.3341 1097.9707 1658.3008 L 1097.7538 1658.3143 L 1097.5957 1658.3242 z M 1099.9902 1671.9082 C 1101.8372 1673.6319 1101.1006 1677.0153 1098.8867 1678.0684 C 1095.2317 1681.395 1090.581 1683.6274 1085.6836 1684.3262 C 1084.3742 1683.0374 1085.2146 1680.805 1086.625 1679.959 C 1089.9722 1675.9194 1094.6744 1673.0351 1099.7871 1671.8652 L 1099.9902 1671.9082 z "
       style="font-style:normal;font-variant:normal;font-weight:bold;font-stretch:normal;font-size:72px;font-family:'Alex Brush';-inkscape-font-specification:'Alex Brush Bold';fill:#413727;fill-opacity:1;stroke:#483c2b;stroke-width:1.22155571;stroke-miterlimit:4;stroke-dasharray:none;stroke-opacity:1"
       id="path5686" />
    <path
       d="M 1118.8672 1663.4121 C 1116.4331 1663.7518 1116.7153 1667.7041 1118.9316 1668.1992 C 1121.1135 1668.7796 1122.9422 1665.706 1121.4141 1664.0742 C 1120.7386 1663.447 1119.7483 1663.3307 1118.8672 1663.4121 z M 1114.377 1672.0469 C 1110.2115 1674.118 1108.4839 1678.7254 1106.5112 1682.6293 C 1104.8744 1686.1018 1103.5423 1689.9918 1104.2676 1693.873 C 1105.4541 1696.3486 1109.0368 1696.4225 1110.926 1694.7402 C 1115.5628 1692.1328 1118.8224 1687.8063 1122.1465 1683.7773 C 1123.702 1683.2621 1121.0971 1681.3938 1121.0258 1682.9988 C 1117.8805 1687.6851 1113.5895 1691.6681 1108.5977 1694.3457 C 1106.6624 1694.2494 1105.7629 1691.5485 1107 1690.166 C 1109.0577 1684.8379 1112.489 1680.2209 1115.459 1675.3887 C 1117.0254 1674.6387 1116.2448 1671.4816 1114.377 1672.0469 z "
       style="font-style:normal;font-variant:normal;font-weight:bold;font-stretch:normal;font-size:72px;font-family:'Alex Brush';-inkscape-font-specification:'Alex Brush Bold';fill:#413727;fill-opacity:1;stroke:#483c2b;stroke-width:1.22155571;stroke-miterlimit:4;stroke-dasharray:none;stroke-opacity:1"
       id="path5688" />
    <path
       d="M 1140.3184 1666.3672 C 1134.6111 1667.0125 1130.1756 1671.2014 1126.7018 1675.4568 C 1123.3762 1679.4032 1120.1042 1684.0846 1120.248 1689.4746 C 1120.6646 1693.001 1125.7288 1694.6102 1128.1171 1691.9783 C 1131.5233 1688.8225 1134.4227 1685.1728 1137.4277 1681.6445 C 1133.8298 1689.7875 1130.4008 1698.3866 1123.8398 1704.6641 C 1122.1774 1706.0251 1119.9553 1707.26 1117.7539 1706.5527 C 1116.6694 1705.7193 1116.026 1704.4308 1115.7617 1703.1094 C 1114.1477 1704.2645 1115.1657 1706.6376 1116.4805 1707.5935 C 1119.0859 1709.9327 1123.3044 1708.9035 1125.4506 1706.4342 C 1131.4076 1701.8234 1134.5092 1694.7373 1137.9182 1688.2428 C 1140.7442 1682.5286 1143.4851 1676.773 1146.2461 1671.0273 C 1146.6084 1669.8069 1145.1821 1668.5267 1144.0078 1669.0156 C 1142.5776 1668.4088 1142.1475 1666.0919 1140.3184 1666.3672 z M 1141.6914 1669.1504 C 1142.8928 1669.9043 1142.1833 1671.6062 1141.3879 1672.3973 C 1136.7968 1678.9213 1133.2485 1686.5215 1126.5977 1691.2852 C 1125.5088 1692.0557 1123.3775 1691.8095 1123.3589 1690.1704 C 1122.7004 1686.4706 1125.2159 1683.2828 1127.2629 1680.4865 C 1130.7103 1675.7977 1134.8371 1671.1779 1140.4492 1669.1367 C 1140.8489 1669.0785 1141.3166 1668.9342 1141.6914 1669.1504 z "
       style="font-style:normal;font-variant:normal;font-weight:bold;font-stretch:normal;font-size:72px;font-family:'Alex Brush';-inkscape-font-specification:'Alex Brush Bold';fill:#413727;fill-opacity:1;stroke:#483c2b;stroke-width:1.22155571;stroke-miterlimit:4;stroke-dasharray:none;stroke-opacity:1"
       id="path5690" />
  </g>
</svg>
