<?xml version="1.0" encoding="UTF-8" standalone="no"?>
<!-- Created with Inkscape (http://www.inkscape.org/) -->

<svg
   xmlns:dc="http://purl.org/dc/elements/1.1/"
   xmlns:cc="http://creativecommons.org/ns#"
   xmlns:rdf="http://www.w3.org/1999/02/22-rdf-syntax-ns#"
   xmlns:svg="http://www.w3.org/2000/svg"
   xmlns="http://www.w3.org/2000/svg"
   xmlns:xlink="http://www.w3.org/1999/xlink"
   xmlns:sodipodi="http://sodipodi.sourceforge.net/DTD/sodipodi-0.dtd"
   xmlns:inkscape="http://www.inkscape.org/namespaces/inkscape"
   id="svg2"
   version="1.1"
   inkscape:version="0.91 r13725"
   width="2481"
   height="3503"
   sodipodi:docname="Pepper-and-Carrot_by-David-Revoy_E05P04.svg">
  <metadata
     id="metadata8">
    <rdf:RDF>
      <cc:Work
         rdf:about="">
        <dc:format>image/svg+xml</dc:format>
        <dc:type
           rdf:resource="http://purl.org/dc/dcmitype/StillImage" />
        <dc:title />
      </cc:Work>
    </rdf:RDF>
  </metadata>
  <defs
     id="defs6">
    <filter
       id="filter3980"
       style="color-interpolation-filters:sRGB;"
       inkscape:label="Drop Shadow">
      <feFlood
         id="feFlood3982"
         flood-opacity="0.228"
         flood-color="rgb(255,255,255)"
         result="flood" />
      <feComposite
         id="feComposite3984"
         in2="SourceGraphic"
         in="flood"
         operator="in"
         result="composite1" />
      <feGaussianBlur
         id="feGaussianBlur3986"
         in="composite"
         stdDeviation="0.2"
         result="blur" />
      <feOffset
         id="feOffset3988"
         dx="1.2"
         dy="-3.3"
         result="offset" />
      <feComposite
         id="feComposite3990"
         in2="offset"
         in="SourceGraphic"
         operator="over"
         result="composite2" />
    </filter>
  </defs>
  <sodipodi:namedview
     pagecolor="#ffffff"
     bordercolor="#666666"
     borderopacity="1"
     objecttolerance="10"
     gridtolerance="10"
     guidetolerance="10"
     inkscape:pageopacity="0"
     inkscape:pageshadow="2"
     inkscape:window-width="1366"
     inkscape:window-height="717"
     id="namedview4"
     showgrid="false"
     inkscape:zoom="0.72426467"
     inkscape:cx="1036.5081"
     inkscape:cy="414.29969"
     inkscape:window-x="0"
     inkscape:window-y="0"
     inkscape:window-maximized="1"
     inkscape:current-layer="svg2" />
  <image
     sodipodi:absref="/run/media/milenche/Data/Projekti/Pepper and Carrot Translations/peppercarrot_ep05_translation/sr/../gfx_Pepper-and-Carrot_by-David-Revoy_E05P04.png"
     xlink:href="../gfx_Pepper-and-Carrot_by-David-Revoy_E05P04.png"
     width="2481"
     height="3503"
     id="image10"
     x="0"
     y="0" />
  <g
     transform="matrix(0.95112257,-0.14803231,-0.24361406,0.77336902,702.86725,1930.3639)"
     style="font-style:normal;font-variant:normal;font-weight:normal;font-stretch:normal;font-size:12px;line-height:125%;font-family:Arial;-inkscape-font-specification:Arial;letter-spacing:0px;word-spacing:0px;fill:#483c2b;fill-opacity:1;stroke:#413727;stroke-width:1.37842441;stroke-miterlimit:4;stroke-dasharray:none;stroke-opacity:1;filter:url(#filter3980)"
     id="flowRoot2987">
    <path
       d="m 955.43394,1687.1874 q -1.38072,4.0459 -2.98621,6.4541 -1.57338,2.4082 -3.21098,3.6926 -1.60548,1.2523 -3.17886,1.6376 -1.54127,0.3853 -2.85777,0.3853 -2.18346,0 -3.66051,-0.61 -1.47705,-0.6422 -2.37613,-1.6697 -0.89907,-1.0597 -1.3165,-2.3762 -0.38531,-1.3486 -0.38531,-2.7614 0,-1.6697 0.44953,-3.8853 0.48165,-2.2477 1.02752,-4.5917 0.54586,-2.344 0.9954,-4.5275 0.48165,-2.1834 0.48165,-3.7568 0,-3.3715 -2.37613,-3.3715 -0.89907,0 -1.6697,0.4816 -0.77064,0.4817 -1.41283,1.3165 -0.6422,0.8028 -1.15595,1.9266 -0.51376,1.0917 -0.89908,2.344 l -4.46325,21.0961 -9.47238,0 6.96782,-32.8804 9.47237,0 -0.70641,3.4037 q 1.05962,-1.1881 2.08713,-1.8945 1.05962,-0.7385 2.05503,-1.1238 0.9954,-0.3854 1.86236,-0.5138 0.89908,-0.1284 1.66971,-0.1284 1.57338,0 2.92199,0.4174 1.34861,0.4174 2.3119,1.3165 0.9954,0.8991 1.54127,2.3119 0.54586,1.4128 0.54586,3.3715 0,1.3165 -0.25687,2.8578 -0.22477,1.5091 -0.57798,3.1146 -0.35321,1.5734 -0.77063,3.1468 -0.38532,1.5734 -0.73853,3.0183 -0.3532,1.4449 -0.61008,2.6972 -0.22477,1.2202 -0.22477,2.1514 0,1.2201 0.54586,1.9908 0.57798,0.7706 2.08714,0.7706 1.05962,0 1.86236,-0.4174 0.80275,-0.4174 1.44494,-1.1881 0.6422,-0.7706 1.15596,-1.8302 0.54586,-1.0918 1.05962,-2.3762 l 2.76144,0 z"
       style="font-style:normal;font-variant:normal;font-weight:normal;font-stretch:normal;font-size:65.76078033px;font-family:Lobster;-inkscape-font-specification:Lobster;fill:#483c2b;fill-opacity:1;stroke:#413727;stroke-width:1.37842441;stroke-miterlimit:4;stroke-dasharray:none;stroke-opacity:1"
       id="path3387"
       inkscape:connector-curvature="0" />
    <path
       d="m 947.9858,1718.2234 10.98154,-51.7609 9.47238,0 -1.05962,4.9449 q 1.44494,-1.2202 3.3073,-2.0229 1.86237,-0.8028 4.36693,-0.8028 1.66971,0 3.14675,0.5459 1.47705,0.5138 2.53667,1.7339 1.09174,1.1881 1.70182,3.1789 0.6422,1.9908 0.6422,4.9128 0,2.2156 -0.3211,4.8165 -0.28899,2.5687 -1.02751,5.1696 -0.73853,2.5688 -1.9587,4.977 -1.18806,2.3762 -2.98621,4.2064 -1.79814,1.8303 -4.27059,2.9541 -2.44034,1.0917 -5.61921,1.0917 -1.25228,0 -2.18346,-0.1926 -0.93119,-0.1927 -1.60549,-0.5138 -0.6422,-0.3211 -1.09173,-0.7385 -0.41743,-0.4495 -0.70642,-0.8991 l -3.40363,16.0228 -9.92192,2.3761 z m 14.38517,-23.2795 q 0.19266,0.5458 0.77064,1.0275 0.61008,0.4816 1.73393,0.4816 1.73392,0 3.08253,-0.867 1.34861,-0.899 2.37612,-2.344 1.02752,-1.477 1.73393,-3.3394 0.70642,-1.8623 1.15595,-3.821 0.44954,-1.9587 0.6422,-3.8532 0.22477,-1.9266 0.22477,-3.4679 0,-1.8944 -0.35321,-2.9862 -0.35321,-1.0917 -0.86697,-1.6376 -0.48164,-0.5458 -1.05962,-0.6743 -0.57797,-0.1605 -1.02751,-0.1605 -1.12384,0 -2.37612,0.8348 -1.22017,0.8028 -2.15136,2.4083 l -3.88528,18.3989 z"
       style="font-style:normal;font-variant:normal;font-weight:normal;font-stretch:normal;font-size:65.76078033px;font-family:Lobster;-inkscape-font-specification:Lobster;fill:#483c2b;fill-opacity:1;stroke:#413727;stroke-width:1.37842441;stroke-miterlimit:4;stroke-dasharray:none;stroke-opacity:1"
       id="path3389"
       inkscape:connector-curvature="0" />
    <path
       d="m 1024.6078,1693.8232 q -0.9312,2.6652 -2.0229,4.6239 -1.0917,1.9586 -2.2798,3.3073 -1.156,1.3486 -2.3761,2.1834 -1.2202,0.8349 -2.3761,1.2844 -1.156,0.4495 -2.2156,0.6101 -1.0596,0.1605 -1.9266,0.1605 -2.7936,0 -4.4633,-1.5091 -1.6376,-1.5413 -1.9908,-4.5275 -0.8028,1.1239 -1.766,2.2156 -0.9634,1.0596 -2.1514,1.9266 -1.18813,0.8348 -2.66517,1.3807 -1.44494,0.5137 -3.21098,0.5137 -1.70182,0 -3.2752,-0.5458 -1.57337,-0.5459 -2.79354,-1.7982 -1.22017,-1.2522 -1.9587,-3.2752 -0.73852,-2.0229 -0.73852,-4.9449 0,-2.2476 0.44953,-4.8164 0.44954,-2.5688 1.38072,-5.1376 0.93119,-2.5688 2.3119,-4.9128 1.41283,-2.3761 3.2752,-4.1742 1.89448,-1.8303 4.2706,-2.8899 2.37616,-1.0918 5.23396,-1.0918 2.7936,0 4.0459,0.9633 1.2844,0.9633 1.2844,2.3762 l 0,0.4816 0.7064,-3.5 9.4723,0 -4.7201,22.3484 q -0.1605,0.5459 -0.2248,1.0918 -0.064,0.5137 -0.064,1.0275 0,2.8256 2.6972,2.8256 0.9633,0 1.7661,-0.4816 0.8348,-0.5138 1.5091,-1.3486 0.6743,-0.8349 1.1881,-1.9587 0.5138,-1.156 0.867,-2.4083 l 2.7614,0 z m -16.5686,-14.8347 q 0,-0.2889 -0.1285,-0.7064 -0.1284,-0.4495 -0.4495,-0.8348 -0.289,-0.4175 -0.8027,-0.6743 -0.5138,-0.289 -1.3165,-0.289 -1.3808,0 -2.6331,0.8991 -1.2201,0.899 -2.2477,2.4082 -1.02755,1.477 -1.8303,3.3715 -0.80274,1.8945 -1.38072,3.9174 -0.54586,1.9908 -0.83485,3.9495 -0.28899,1.9266 -0.28899,3.4679 0,1.8944 0.35321,2.9219 0.35321,1.0276 0.83485,1.5413 0.51376,0.4817 1.09174,0.578 0.57797,0.096 1.02751,0.096 0.73855,0 1.54135,-0.3532 0.8348,-0.3853 1.5733,-1.0917 0.7707,-0.7385 1.3808,-1.8303 0.6422,-1.0917 0.9633,-2.5367 l 3.1468,-14.8347 z"
       style="font-style:normal;font-variant:normal;font-weight:normal;font-stretch:normal;font-size:65.76078033px;font-family:Lobster;-inkscape-font-specification:Lobster;fill:#483c2b;fill-opacity:1;stroke:#413727;stroke-width:1.37842441;stroke-miterlimit:4;stroke-dasharray:none;stroke-opacity:1"
       id="path3391"
       inkscape:connector-curvature="0" />
    <path
       d="m 1055.1376,1695.4547 q -0.9954,3.3716 -2.4404,5.5871 -1.4128,2.2156 -3.0504,3.6284 -1.6055,1.4129 -3.3073,2.1835 -1.7018,0.7385 -3.2431,1.1239 -0.064,3.7247 -0.9954,6.6467 -0.9312,2.922 -2.5688,4.9128 -1.6054,2.0229 -3.8852,3.0825 -2.2477,1.0596 -4.977,1.0596 -1.5092,0 -2.8578,-0.4174 -1.3165,-0.3853 -2.344,-1.1881 -0.9954,-0.7706 -1.5734,-1.9908 -0.578,-1.188 -0.578,-2.7935 0,-1.9908 0.8991,-3.5321 0.9312,-1.5413 2.4082,-2.7293 1.4771,-1.156 3.3073,-1.9908 1.8624,-0.8349 3.6926,-1.4129 -0.1926,-6.9678 -4.7201,-6.9678 l -2.055,0 0.867,-3.9495 1.8944,0 q 1.7661,0 3.2431,-0.8669 1.5092,-0.8991 2.5688,-2.4404 1.0917,-1.5412 1.6697,-3.5963 0.6101,-2.055 0.6101,-4.399 0,-0.9633 -0.2248,-1.9587 -0.2247,-0.9954 -0.7385,-1.7981 -0.4817,-0.8349 -1.3486,-1.3487 -0.8349,-0.5458 -2.0871,-0.5458 -1.3808,0 -2.5046,0.7064 -1.1239,0.6743 -1.9908,1.7018 -0.867,1.0275 -1.5092,2.2477 -0.6422,1.1881 -1.0275,2.1835 l -3.1789,0 q 0.8349,-2.3441 1.9587,-4.6238 1.156,-2.312 2.8257,-4.1101 1.6697,-1.8303 3.9495,-2.9541 2.2798,-1.1238 5.4266,-1.1238 2.344,0 4.2705,0.7064 1.9266,0.6743 3.2752,2.0229 1.3487,1.3165 2.0872,3.2752 0.7385,1.9266 0.7385,4.4311 0,2.1514 -0.578,4.0459 -0.5779,1.8623 -1.477,3.4357 -0.8991,1.5734 -2.055,2.8257 -1.1239,1.2522 -2.2798,2.1513 -1.1239,0.8991 -2.1514,1.445 -0.9954,0.5137 -1.6376,0.6422 0.7706,0.2568 1.5734,0.8348 0.8027,0.578 1.5413,1.4128 0.7706,0.8349 1.3486,1.9266 0.6101,1.0918 0.9311,2.4083 1.7661,-0.5138 3.1789,-1.2202 1.4128,-0.7385 2.5688,-1.8624 1.1559,-1.1238 2.055,-2.7614 0.9312,-1.6697 1.7339,-4.0459 l 2.7615,0 z m -21.7062,15.3485 q -1.2844,0.4495 -2.4725,0.9954 -1.1559,0.5459 -2.055,1.2202 -0.8991,0.7064 -1.4449,1.5413 -0.5459,0.8348 -0.5459,1.8302 0,0.9312 0.5459,1.5413 0.578,0.6101 1.7018,0.6101 0.7064,0 1.3807,-0.6422 0.7064,-0.6101 1.2844,-1.6697 0.578,-1.0597 0.9954,-2.4725 0.4174,-1.4128 0.6101,-2.9541 z"
       style="font-style:normal;font-variant:normal;font-weight:normal;font-stretch:normal;font-size:65.76078033px;font-family:Lobster;-inkscape-font-specification:Lobster;fill:#483c2b;fill-opacity:1;stroke:#413727;stroke-width:1.37842441;stroke-miterlimit:4;stroke-dasharray:none;stroke-opacity:1"
       id="path3393"
       inkscape:connector-curvature="0" />
    <path
       d="m 1088.3425,1695.2645 q -4.1421,12.1696 -12.2338,12.1696 -1.9908,0 -3.4679,-0.5779 -1.4449,-0.578 -2.4082,-1.5413 -0.9312,-0.9633 -1.4128,-2.2156 -0.4496,-1.2844 -0.4496,-2.633 0,-1.3486 0.4175,-3.6926 0.4495,-2.3761 1.0917,-5.5229 l -7.2889,0 -3.3715,15.798 -9.4724,0 6.9678,-32.8804 9.4724,0 -2.8257,13.165 7.3532,0 2.9862,-13.165 8.798,0 -3.4678,16.3118 q -0.7385,3.1789 -1.1881,5.1054 -0.4174,1.8945 -0.4174,2.7294 0,2.7614 2.633,2.7614 0.9954,0 1.7339,-0.3211 0.7385,-0.3532 1.3486,-1.0596 0.6422,-0.7385 1.1881,-1.8303 0.578,-1.0917 1.2523,-2.6009 l 2.7614,0 z"
       style="font-style:normal;font-variant:normal;font-weight:normal;font-stretch:normal;font-size:65.76078033px;font-family:Lobster;-inkscape-font-specification:Lobster;fill:#483c2b;fill-opacity:1;stroke:#413727;stroke-width:1.37842441;stroke-miterlimit:4;stroke-dasharray:none;stroke-opacity:1"
       id="path3395"
       inkscape:connector-curvature="0" />
    <path
       d="m 1120.616,1692.9392 q -0.9312,2.6652 -2.0229,4.6239 -1.0917,1.9586 -2.2798,3.3073 -1.1559,1.3486 -2.3761,2.1834 -1.2202,0.8349 -2.3761,1.2844 -1.156,0.4495 -2.2156,0.6101 -1.0596,0.1605 -1.9266,0.1605 -2.8256,0 -4.4954,-1.5412 -1.6697,-1.5734 -2.0229,-4.688 -1.2522,2.0229 -2.5366,3.243 -1.2844,1.2202 -2.5367,1.8945 -1.2523,0.6743 -2.4403,0.867 -1.1881,0.2247 -2.2156,0.2247 -1.4771,0 -2.7615,-0.4495 -1.2844,-0.4495 -2.2476,-1.4128 -0.9312,-0.9633 -1.4771,-2.4404 -0.5459,-1.477 -0.5459,-3.5641 0,-0.8991 0.1285,-1.9587 0.1284,-1.0918 0.3853,-2.3441 l 4.4633,-21.0961 9.4723,0 -4.7201,22.3484 q -0.1927,1.0275 -0.1927,1.8624 0,1.1238 0.4175,1.9266 0.4174,0.7706 1.5412,0.7706 0.9633,0 1.7661,-0.4174 0.8027,-0.4495 1.4449,-1.2202 0.6743,-0.7706 1.156,-1.8302 0.5137,-1.0918 0.899,-2.3441 l 4.4633,-21.0961 9.4724,0 -4.7202,22.3484 q -0.1605,0.5459 -0.2247,1.0918 -0.064,0.5137 -0.064,1.0275 0,1.3807 0.6422,1.9266 0.6743,0.5137 2.0551,0.5137 0.9633,0 1.766,-0.4174 0.8349,-0.4495 1.5092,-1.2202 0.6743,-0.7706 1.188,-1.8302 0.5138,-1.0918 0.867,-2.3441 l 2.7614,0 z"
       style="font-style:normal;font-variant:normal;font-weight:normal;font-stretch:normal;font-size:65.76078033px;font-family:Lobster;-inkscape-font-specification:Lobster;fill:#483c2b;fill-opacity:1;stroke:#413727;stroke-width:1.37842441;stroke-miterlimit:4;stroke-dasharray:none;stroke-opacity:1"
       id="path3397"
       inkscape:connector-curvature="0" />
    <path
       d="m 1130.669,1713.8115 q -1.7339,0 -2.8899,0 -1.1559,0 -1.8945,0.2569 -0.7385,0.289 -1.1559,0.9311 -0.4174,0.6744 -0.7064,1.9587 l -2.8899,0 q 0.8027,-3.7568 1.6697,-6.1008 0.867,-2.344 2.1192,-3.6605 1.2523,-1.2844 2.9863,-1.734 1.766,-0.4495 4.3348,-0.4495 l 5.1375,0 q 1.4129,0 2.5046,-0.096 1.1238,-0.064 1.9908,-0.6101 0.867,-0.5459 1.477,-1.766 0.6422,-1.1881 1.1239,-3.4037 -0.8991,0.9312 -1.6376,1.4771 -0.7064,0.5137 -1.3807,0.8027 -0.6422,0.2569 -1.3486,0.3211 -0.6743,0.096 -1.4771,0.096 -2.3119,0 -3.9174,-1.5412 -1.5734,-1.5734 -1.9266,-4.688 -1.2522,2.0229 -2.5366,3.243 -1.2844,1.2202 -2.5367,1.8945 -1.2523,0.6743 -2.4403,0.867 -1.1881,0.2247 -2.2156,0.2247 -1.4771,0 -2.7615,-0.4495 -1.2844,-0.4495 -2.2476,-1.4128 -0.9312,-0.9633 -1.4771,-2.4404 -0.5459,-1.477 -0.5459,-3.5641 0,-0.8991 0.1285,-1.9587 0.1284,-1.0918 0.3853,-2.3441 l 4.4633,-21.0961 9.4723,0 -4.7201,22.3484 q -0.1927,1.0275 -0.1927,1.8624 0,1.1238 0.4175,1.9266 0.4174,0.7706 1.5412,0.7706 0.9633,0 1.7661,-0.4174 0.8027,-0.4495 1.4449,-1.2202 0.6743,-0.7706 1.156,-1.8302 0.5137,-1.0918 0.899,-2.3441 l 4.4633,-21.0961 9.4724,0 -4.7202,22.3484 q -0.1605,0.5459 -0.2247,1.0918 -0.064,0.5137 -0.064,1.0275 0,1.3807 0.6422,1.9266 0.6743,0.5137 2.0551,0.5137 l 3.3715,0 q -0.3853,4.2706 -1.1881,7.2889 -0.8027,3.0505 -1.8623,5.0734 -1.0275,2.055 -2.2798,3.2431 -1.2202,1.188 -2.5046,1.7981 -1.2523,0.6101 -2.4724,0.7706 -1.2202,0.1606 -2.2477,0.1606 l -4.5596,0 z"
       style="font-style:normal;font-variant:normal;font-weight:normal;font-stretch:normal;font-size:65.76078033px;font-family:Lobster;-inkscape-font-specification:Lobster;fill:#483c2b;fill-opacity:1;stroke:#413727;stroke-width:1.37842441;stroke-miterlimit:4;stroke-dasharray:none;stroke-opacity:1"
       id="path3399"
       inkscape:connector-curvature="0" />
    <path
       d="m 1170.7334,1664.5404 9.4724,0 -4.7202,22.3484 q -0.1605,0.5459 -0.2247,1.0918 -0.064,0.5137 -0.064,1.0275 0,1.3807 0.6422,1.9266 0.6743,0.5137 2.0551,0.5137 0.4816,0 0.7706,-0.032 0.3211,-0.032 0.5459,-0.096 0.2568,-0.064 0.4495,-0.1285 0.1927,-0.096 0.4174,-0.1605 -0.1284,1.7981 -0.7706,3.0825 -0.6422,1.2523 -1.6376,2.0872 -0.9954,0.8348 -2.2798,1.2201 -1.2523,0.3853 -2.6009,0.3853 -2.7935,0 -4.4632,-1.6054 -1.6376,-1.6376 -1.9909,-4.6238 -1.2201,2.0229 -2.5366,3.243 -1.2844,1.2202 -2.5688,1.8945 -1.2523,0.6743 -2.4725,0.867 -1.188,0.2247 -2.2155,0.2247 -1.4771,0 -2.7615,-0.4495 -1.2844,-0.4495 -2.2477,-1.4128 -0.9311,-0.9633 -1.477,-2.4404 -0.5459,-1.477 -0.5459,-3.5641 0,-0.8991 0.1285,-1.9587 0.1284,-1.0918 0.3853,-2.3441 l 4.4632,-21.0961 9.4724,0 -4.7201,22.3484 q -0.1927,0.8349 -0.1927,1.6697 0,0.578 0.096,1.0918 0.096,0.5137 0.3211,0.9312 0.2247,0.3853 0.5779,0.6421 0.3854,0.2248 0.9633,0.2248 0.9633,0 1.7661,-0.4174 0.8027,-0.4495 1.4449,-1.2202 0.6743,-0.7706 1.156,-1.8302 0.5137,-1.0918 0.899,-2.3441 l 4.4633,-21.0961 z"
       style="font-style:normal;font-variant:normal;font-weight:normal;font-stretch:normal;font-size:65.76078033px;font-family:Lobster;-inkscape-font-specification:Lobster;fill:#483c2b;fill-opacity:1;stroke:#413727;stroke-width:1.37842441;stroke-miterlimit:4;stroke-dasharray:none;stroke-opacity:1"
       id="path3401"
       inkscape:connector-curvature="0" />
  </g>
  <g
     transform="matrix(0.97443716,0.09188487,-0.50799876,0.67853835,919.32453,1846.3448)"
     inkscape:transform-center-x="-50.328574"
     inkscape:transform-center-y="6.4266335"
     style="font-style:normal;font-variant:normal;font-weight:normal;font-stretch:normal;font-size:12px;line-height:125%;font-family:Arial;-inkscape-font-specification:Arial;letter-spacing:0px;word-spacing:0px;fill:#413727;fill-opacity:1;stroke:#483c2b;stroke-width:1.22155571;stroke-miterlimit:4;stroke-dasharray:none;stroke-opacity:1;filter:url(#filter3980)"
     id="flowRoot2995">
    <path
       d="m 953.25379,1685.3674 q -1.3087,3.2877 -3.54307,5.6178 -2.23436,2.2982 -4.85176,3.7665 -2.58548,1.4364 -5.29863,2.1067 -2.68124,0.6703 -4.94752,0.6703 -3.63882,0 -6.32006,-0.8618 -2.68124,-0.8619 -4.46873,-2.777 -1.75557,-1.9152 -2.64931,-4.9795 -0.86183,-3.0642 -0.86183,-7.4691 0,-2.2344 0.25536,-4.8518 0.28727,-2.6493 0.89374,-5.4582 0.60647,-2.8089 1.53214,-5.6498 0.95758,-2.8408 2.2982,-5.4582 1.34062,-2.6493 3.09619,-4.9475 1.75557,-2.2982 3.95801,-3.99 2.20245,-1.6917 4.88369,-2.6493 2.68123,-0.9895 5.9051,-0.9895 2.26628,0 4.24529,0.5107 2.01093,0.4788 3.47922,1.5322 1.50022,1.0533 2.33013,2.7131 0.86182,1.6598 0.86182,3.99 0,1.3087 -0.25535,2.4258 -0.22344,1.0853 -0.79799,1.9152 -0.54263,0.798 -1.43638,1.2449 -0.86182,0.4468 -2.10668,0.4468 -0.76607,0 -1.78749,-0.2872 -0.98951,-0.2873 -1.91517,-1.4045 0.57455,-0.2873 1.11718,-0.8937 0.54263,-0.6384 0.95758,-1.4364 0.41496,-0.8299 0.67031,-1.7875 0.25536,-0.9576 0.25536,-1.9152 0,-0.766 -0.22344,-1.5002 -0.19151,-0.7341 -0.67031,-1.2768 -0.47879,-0.5426 -1.24486,-0.8618 -0.76606,-0.3511 -1.85133,-0.3511 -1.81941,0 -3.54306,1.3406 -1.69173,1.3406 -3.22387,3.6388 -1.50021,2.2663 -2.77699,5.2987 -1.24486,3.0323 -2.13861,6.4158 -0.89374,3.3835 -1.40445,6.9584 -0.51072,3.575 -0.51072,6.8946 0,2.2663 0.3192,4.1496 0.35111,1.8513 1.21294,3.1919 0.89374,1.3406 2.39396,2.1067 1.53214,0.7342 3.9261,0.7342 3.86225,0 7.14996,-1.7237 3.28771,-1.7236 5.58591,-4.8198 l 1.50022,0.6703 z"
       style="font-style:normal;font-variant:normal;font-weight:normal;font-stretch:normal;font-size:65.37110138px;font-family:Lobster;-inkscape-font-specification:Lobster;fill:#413727;fill-opacity:1;stroke:#483c2b;stroke-width:1.22155571;stroke-miterlimit:4;stroke-dasharray:none;stroke-opacity:1"
       id="path3374"
       inkscape:connector-curvature="0" />
    <path
       d="m 946.57557,1714.2035 10.91646,-51.4542 9.41625,0 -1.05334,4.9156 q 1.43637,-1.2129 3.2877,-2.0109 1.85133,-0.798 4.34105,-0.798 1.65982,0 3.12811,0.5426 1.4683,0.5107 2.52164,1.7237 1.08526,1.181 1.69173,3.16 0.63839,1.979 0.63839,4.8837 0,2.2024 -0.31919,4.7879 -0.28728,2.5536 -1.02142,5.1391 -0.73415,2.5535 -1.94709,4.9475 -1.18102,2.362 -2.96852,4.1814 -1.78749,1.8194 -4.24529,2.9366 -2.42588,1.0853 -5.58591,1.0853 -1.24486,0 -2.17052,-0.1915 -0.92567,-0.1915 -1.59598,-0.5107 -0.63838,-0.3192 -1.08526,-0.7342 -0.41495,-0.4469 -0.70223,-0.8937 l -3.38346,15.9278 -9.86312,2.362 z m 14.29993,-23.1416 q 0.19151,0.5426 0.76606,1.0214 0.60647,0.4788 1.72366,0.4788 1.72365,0 3.06427,-0.8618 1.34062,-0.8938 2.36204,-2.3301 1.02142,-1.4683 1.72365,-3.3197 0.70223,-1.8513 1.1491,-3.7984 0.44687,-1.9471 0.63839,-3.8303 0.22344,-1.9152 0.22344,-3.4473 0,-1.8833 -0.35112,-2.9685 -0.35111,-1.0853 -0.86182,-1.6279 -0.47879,-0.5427 -1.05335,-0.6703 -0.57455,-0.1596 -1.02142,-0.1596 -1.11718,0 -2.36204,0.8299 -1.21294,0.798 -2.13861,2.3939 l -3.86225,18.2899 z"
       style="font-style:normal;font-variant:normal;font-weight:normal;font-stretch:normal;font-size:65.37110138px;font-family:Lobster;-inkscape-font-specification:Lobster;fill:#413727;fill-opacity:1;stroke:#483c2b;stroke-width:1.22155571;stroke-miterlimit:4;stroke-dasharray:none;stroke-opacity:1"
       id="path3376"
       inkscape:connector-curvature="0" />
    <path
       d="m 1013.2702,1689.1064 q -1.3725,2.2982 -3.16,4.4687 -1.7556,2.1706 -3.99,3.8623 -2.2024,1.6917 -4.9156,2.7451 -2.68127,1.0214 -5.90514,1.0214 -2.33012,0 -4.21337,-0.5746 -1.88325,-0.6064 -3.22387,-1.8513 -1.34062,-1.2449 -2.04285,-3.1919 -0.73414,-1.9791 -0.73414,-4.756 0,-1.8833 0.38303,-4.3411 0.38303,-2.4578 1.21294,-5.0433 0.82991,-2.5855 2.20244,-5.0752 1.37254,-2.4897 3.31963,-4.4368 1.94709,-1.979 4.56449,-3.16 2.61739,-1.213 5.96904,-1.213 2.2024,0 3.575,0.5427 1.4044,0.5107 2.2024,1.3725 0.8299,0.8618 1.1172,2.0109 0.3192,1.1172 0.3192,2.3302 0,2.8408 -1.2449,5.2986 -1.2448,2.4259 -3.3515,4.2453 -2.0748,1.8194 -4.788,2.9366 -2.71318,1.1172 -5.64977,1.3087 -0.0638,0.7341 -0.12768,1.4044 -0.0319,0.6384 -0.0319,1.213 0,1.6598 0.28727,2.7451 0.3192,1.0533 0.89375,1.6598 0.60647,0.6064 1.4683,0.8618 0.89374,0.2234 2.07476,0.2234 1.94707,0 3.51117,-0.5107 1.5961,-0.5107 2.9686,-1.4044 1.3726,-0.8938 2.5855,-2.1067 1.2449,-1.213 2.4897,-2.5855 l 2.2344,0 z m -17.84306,-4.6283 q 1.85133,-0.1277 3.57498,-1.0534 1.72368,-0.9256 3.03238,-2.3939 1.3087,-1.5002 2.0749,-3.3835 0.7979,-1.9152 0.7979,-3.958 0,-1.2129 -0.351,-1.9471 -0.3512,-0.7341 -1.2769,-0.7341 -1.2449,0 -2.4579,1.2129 -1.18099,1.181 -2.23433,3.0962 -1.05335,1.9152 -1.88325,4.341 -0.79799,2.394 -1.27678,4.8199 z"
       style="font-style:normal;font-variant:normal;font-weight:normal;font-stretch:normal;font-size:65.37110138px;font-family:Lobster;-inkscape-font-specification:Lobster;fill:#413727;fill-opacity:1;stroke:#483c2b;stroke-width:1.22155571;stroke-miterlimit:4;stroke-dasharray:none;stroke-opacity:1"
       id="path3378"
       inkscape:connector-curvature="0" />
    <path
       d="m 1047.7714,1690.5438 q -1.3725,4.0219 -2.9685,6.4158 -1.5641,2.394 -3.192,3.6708 -1.5959,1.2448 -3.16,1.6279 -1.5321,0.383 -2.8408,0.383 -2.1705,0 -3.6388,-0.6065 -1.4683,-0.6384 -2.3621,-1.6598 -0.8937,-1.0533 -1.3087,-2.362 -0.383,-1.3407 -0.383,-2.7451 0,-1.4364 0.3192,-3.0962 0.3192,-1.6917 0.6703,-3.3516 0.383,-1.6598 0.7022,-3.1281 0.3192,-1.5002 0.3192,-2.5854 0,-3.3516 -2.362,-3.3516 -0.8619,0 -1.6918,0.4788 -0.798,0.4788 -1.5002,1.3087 -0.6703,0.798 -1.181,1.9152 -0.5107,1.0852 -0.7661,2.3301 l -3.4792,16.4705 -9.4162,0 6.9265,-32.6856 -3.5112,0 0.7023,-3.5431 3.6069,0 1.7555,-8.2352 9.6717,-1.3087 -2.011,9.5439 8.1714,0 -0.798,3.5431 -8.1714,0 -1.6917,7.916 q 1.0533,-1.181 2.1067,-1.8832 1.0533,-0.7342 2.0428,-1.1172 0.9895,-0.415 1.8833,-0.5426 0.9257,-0.1277 1.6917,-0.1277 1.5641,0 2.8728,0.4149 1.3406,0.415 2.2982,1.3407 0.9895,0.8937 1.5321,2.2982 0.5426,1.4044 0.5426,3.3515 0,1.5002 -0.3511,3.16 -0.3511,1.6279 -0.766,3.2558 -0.415,1.6279 -0.7661,3.1601 -0.3511,1.5321 -0.3511,2.777 0,1.2129 0.5426,1.979 0.5746,0.766 2.0748,0.766 1.0533,0 1.8513,-0.4149 0.798,-0.415 1.4364,-1.181 0.6384,-0.7661 1.1491,-1.8195 0.5426,-1.0852 1.0533,-2.362 l 2.7451,0 z"
       style="font-style:normal;font-variant:normal;font-weight:normal;font-stretch:normal;font-size:65.37110138px;font-family:Lobster;-inkscape-font-specification:Lobster;fill:#413727;fill-opacity:1;stroke:#483c2b;stroke-width:1.22155571;stroke-miterlimit:4;stroke-dasharray:none;stroke-opacity:1"
       id="path3380"
       inkscape:connector-curvature="0" />
    <path
       d="m 1081.7676,1691.7892 q -4.1176,12.0975 -12.1614,12.0975 -1.979,0 -3.4473,-0.5746 -1.4363,-0.5745 -2.3939,-1.5321 -0.9257,-0.9576 -1.4045,-2.2024 -0.4468,-1.2768 -0.4468,-2.6174 0,-1.3407 0.4149,-3.6708 0.4469,-2.362 1.0853,-5.4901 l -7.2458,0 -3.3515,15.7044 -9.4163,0 6.9266,-32.6856 9.4162,0 -2.8089,13.087 7.3096,0 2.9685,-13.087 8.7459,0 -3.4473,16.2151 q -0.7341,3.16 -1.181,5.0752 -0.415,1.8832 -0.415,2.7132 0,2.745 2.6174,2.745 0.9895,0 1.7237,-0.3192 0.7341,-0.3511 1.3406,-1.0533 0.6384,-0.7342 1.181,-1.8194 0.5746,-1.0853 1.2449,-2.5855 l 2.7451,0 z"
       style="font-style:normal;font-variant:normal;font-weight:normal;font-stretch:normal;font-size:65.37110138px;font-family:Lobster;-inkscape-font-specification:Lobster;fill:#413727;fill-opacity:1;stroke:#483c2b;stroke-width:1.22155571;stroke-miterlimit:4;stroke-dasharray:none;stroke-opacity:1"
       id="path3382"
       inkscape:connector-curvature="0" />
    <path
       d="m 1099.3678,1670.3422 9.4162,0 -4.6921,22.216 q -0.1596,0.5426 -0.2235,1.0852 -0.064,0.5107 -0.064,1.0214 0,1.3726 0.6384,1.9152 0.6703,0.5107 2.0428,0.5107 0.4788,0 0.7661,-0.032 0.3192,-0.032 0.5426,-0.096 0.2554,-0.064 0.4469,-0.1276 0.1915,-0.096 0.415,-0.1596 -0.1277,1.7875 -0.7661,3.0642 -0.6384,1.2449 -1.6279,2.0748 -0.9895,0.8299 -2.2663,1.213 -1.2448,0.383 -2.5855,0.383 -2.777,0 -4.4368,-1.596 -1.6279,-1.6279 -1.979,-4.5964 -1.2129,2.0109 -2.5216,3.2239 -1.2768,1.2129 -2.5536,1.8832 -1.2448,0.6703 -2.4578,0.8618 -1.181,0.2235 -2.2024,0.2235 -1.4683,0 -2.7451,-0.4469 -1.2768,-0.4469 -2.2344,-1.4044 -0.9256,-0.9576 -1.4683,-2.4259 -0.5426,-1.4683 -0.5426,-3.5431 0,-0.8937 0.1277,-1.9471 0.1277,-1.0852 0.383,-2.3301 l 4.4368,-20.9711 9.4163,0 -4.6922,22.216 q -0.1915,0.8299 -0.1915,1.6598 0,0.5745 0.096,1.0852 0.096,0.5107 0.3192,0.9257 0.2234,0.383 0.5745,0.6384 0.383,0.2234 0.9576,0.2234 0.9576,0 1.7556,-0.4149 0.7979,-0.4469 1.4363,-1.213 0.6703,-0.766 1.1491,-1.8194 0.5108,-1.0852 0.8938,-2.3301 l 4.4368,-20.9711 z"
       style="font-style:normal;font-variant:normal;font-weight:normal;font-stretch:normal;font-size:65.37110138px;font-family:Lobster;-inkscape-font-specification:Lobster;fill:#413727;fill-opacity:1;stroke:#483c2b;stroke-width:1.22155571;stroke-miterlimit:4;stroke-dasharray:none;stroke-opacity:1"
       id="path3384"
       inkscape:connector-curvature="0" />
  </g>
</svg>
